<svg width="16" height="18" viewBox="0 0 16 18" fill="none" xmlns="http://www.w3.org/2000/svg">
<path fill-rule="evenodd" clip-rule="evenodd" d="M0 7.48598C0 3.3461 3.45949 0 7.6441 0C11.8405 0 15.3 3.3461 15.3 7.48598C15.3 9.57212 14.5413 11.5089 13.2926 13.1504C11.9149 14.9612 10.2169 16.5388 8.30569 17.7772C7.86826 18.0634 7.47349 18.085 6.9934 17.7772C5.07126 16.5388 3.37328 14.9612 2.00745 13.1504C0.757785 11.5089 0 9.57212 0 7.48598ZM5.12476 7.71915C5.12476 9.106 6.25644 10.1968 7.64405 10.1968C9.03257 10.1968 10.1751 9.106 10.1751 7.71915C10.1751 6.34309 9.03257 5.19922 7.64405 5.19922C6.25644 5.19922 5.12476 6.34309 5.12476 7.71915Z" fill="white"/>
</svg>
