<svg width="46" height="46" viewBox="0 0 46 46" fill="none" xmlns="http://www.w3.org/2000/svg">
<circle cx="23" cy="23" r="23" fill="#FFD954"/>
<path d="M29.3911 31H17.2085V28.583L22.958 22.4551C23.7474 21.5924 24.3293 20.8397 24.7036 20.1968C25.0861 19.5539 25.2773 18.9435 25.2773 18.3657C25.2773 17.5763 25.078 16.9578 24.6792 16.5103C24.2804 16.0545 23.7108 15.8267 22.9702 15.8267C22.1727 15.8267 21.542 16.1034 21.0781 16.6567C20.6224 17.202 20.3945 17.9222 20.3945 18.8174H16.8545C16.8545 17.735 17.1108 16.7463 17.6235 15.8511C18.1444 14.9559 18.8768 14.256 19.8208 13.7515C20.7648 13.2388 21.835 12.9824 23.0312 12.9824C24.8623 12.9824 26.2824 13.4219 27.2915 14.3008C28.3088 15.1797 28.8174 16.4207 28.8174 18.0239C28.8174 18.9028 28.5895 19.798 28.1338 20.7095C27.6781 21.6209 26.8968 22.6829 25.79 23.8955L21.7495 28.1558H29.3911V31Z" fill="#0F0F0F"/>
</svg>
