<svg width="46" height="46" viewBox="0 0 46 46" fill="none" xmlns="http://www.w3.org/2000/svg">
<circle cx="23" cy="23" r="23" fill="#FFD954"/>
<path d="M20.7974 20.5508H22.6772C23.5724 20.5508 24.2357 20.327 24.667 19.8794C25.0983 19.4318 25.314 18.8377 25.314 18.0972C25.314 17.381 25.0983 16.8236 24.667 16.4248C24.2438 16.026 23.6579 15.8267 22.9092 15.8267C22.2337 15.8267 21.6681 16.0138 21.2124 16.3882C20.7567 16.7544 20.5288 17.2345 20.5288 17.8286H17.001C17.001 16.9009 17.2492 16.0708 17.7456 15.3384C18.2502 14.5978 18.95 14.02 19.8452 13.605C20.7485 13.1899 21.7414 12.9824 22.8237 12.9824C24.7036 12.9824 26.1766 13.4341 27.2427 14.3374C28.3088 15.2326 28.8418 16.4696 28.8418 18.0483C28.8418 18.8621 28.5936 19.6108 28.0972 20.2944C27.6007 20.978 26.9497 21.5029 26.144 21.8691C27.145 22.2272 27.8896 22.7643 28.3779 23.4805C28.8743 24.1966 29.1226 25.043 29.1226 26.0195C29.1226 27.5983 28.5448 28.8638 27.3892 29.8159C26.2417 30.7681 24.7199 31.2441 22.8237 31.2441C21.0496 31.2441 19.597 30.7762 18.4658 29.8403C17.3428 28.9045 16.7812 27.6675 16.7812 26.1294H20.3091C20.3091 26.7967 20.5573 27.342 21.0537 27.7651C21.5583 28.1883 22.1768 28.3999 22.9092 28.3999C23.7474 28.3999 24.4025 28.1802 24.8745 27.7407C25.3547 27.2931 25.5947 26.7031 25.5947 25.9707C25.5947 24.1966 24.6182 23.3096 22.665 23.3096H20.7974V20.5508Z" fill="#0F0F0F"/>
</svg>
