<svg width="46" height="46" viewBox="0 0 46 46" fill="none" xmlns="http://www.w3.org/2000/svg">
<circle cx="23" cy="23" r="23" fill="#FFD954"/>
<path d="M17.7334 22.2598L18.7588 13.2266H28.7197V16.1685H21.6519L21.2124 19.9893C22.0506 19.5417 22.9417 19.3179 23.8857 19.3179C25.5785 19.3179 26.9049 19.8428 27.8652 20.8926C28.8255 21.9424 29.3057 23.4113 29.3057 25.2993C29.3057 26.4468 29.0615 27.4762 28.5732 28.3877C28.0931 29.291 27.4014 29.995 26.498 30.4995C25.5947 30.9959 24.5286 31.2441 23.2998 31.2441C22.2256 31.2441 21.2287 31.0285 20.3091 30.5972C19.3895 30.1577 18.6611 29.5433 18.124 28.7539C17.5951 27.9645 17.3143 27.0653 17.2817 26.0562H20.7729C20.8462 26.7967 21.1025 27.3745 21.542 27.7896C21.9896 28.1965 22.5715 28.3999 23.2876 28.3999C24.0851 28.3999 24.6995 28.1151 25.1309 27.5454C25.5622 26.9676 25.7778 26.1538 25.7778 25.104C25.7778 24.0949 25.5296 23.3218 25.0332 22.7847C24.5368 22.2476 23.8328 21.979 22.9214 21.979C22.0832 21.979 21.4036 22.1987 20.8828 22.6382L20.541 22.9556L17.7334 22.2598Z" fill="#0F0F0F"/>
</svg>
