<svg width="46" height="46" viewBox="0 0 46 46" fill="none" xmlns="http://www.w3.org/2000/svg">
<circle cx="23" cy="23" r="23" fill="#FFD954"/>
<path d="M26.7788 13.0435V15.9487H26.437C24.842 15.9731 23.5562 16.3882 22.5796 17.1938C21.6112 17.9995 21.0293 19.1185 20.834 20.5508C21.778 19.5905 22.9702 19.1104 24.4106 19.1104C25.9569 19.1104 27.1857 19.6637 28.0972 20.7705C29.0086 21.8773 29.4644 23.334 29.4644 25.1406C29.4644 26.2962 29.2121 27.342 28.7075 28.2778C28.2111 29.2137 27.5031 29.9421 26.5835 30.4629C25.672 30.9837 24.6385 31.2441 23.4829 31.2441C21.6112 31.2441 20.0975 30.5931 18.9419 29.291C17.7944 27.9889 17.2207 26.2515 17.2207 24.0786V22.8091C17.2207 20.8804 17.5828 19.1795 18.3071 17.7065C19.0396 16.2254 20.0853 15.082 21.4443 14.2764C22.8115 13.4626 24.3944 13.0516 26.1929 13.0435H26.7788ZM23.3364 21.9424C22.7668 21.9424 22.25 22.0929 21.7861 22.394C21.3223 22.687 20.9805 23.0776 20.7607 23.5659V24.6401C20.7607 25.8201 20.9927 26.7438 21.4565 27.4111C21.9204 28.0703 22.5715 28.3999 23.4097 28.3999C24.1665 28.3999 24.7769 28.1029 25.2407 27.5088C25.7127 26.9066 25.9487 26.1294 25.9487 25.1772C25.9487 24.2088 25.7127 23.4276 25.2407 22.8335C24.7687 22.2394 24.134 21.9424 23.3364 21.9424Z" fill="#0F0F0F"/>
</svg>
