<svg width="156" height="56" viewBox="0 0 156 56" fill="none" xmlns="http://www.w3.org/2000/svg">
<g clip-path="url(#clip0)">
<path d="M126.941 28.3318C126.354 29.2269 125.666 30.0407 125.12 30.9359C124.128 32.5431 123.562 34.2927 123.4 36.1643C123.359 36.5916 123.298 36.9171 122.732 36.9171C120.405 36.8967 118.078 36.9171 115.669 36.9171C115.508 36.0016 115.406 35.1878 115.224 34.4147C114.799 32.5431 113.929 30.8952 112.735 29.3897C108.364 23.9374 110.853 16.3287 117.551 14.7418C120.971 13.928 124.654 15.3725 126.718 18.3021C128.823 21.2723 128.904 25.3005 126.941 28.3318Z" fill="#FFE2A9"/>
<path d="M125.848 15.5963C121.862 12.3208 116.115 12.5853 112.371 16.2269C108.607 19.9296 108.304 25.7888 111.723 30.0407C113.16 31.8514 114.051 33.8654 114.314 36.144C114.395 36.7747 114.395 37.4053 114.435 38.0767H124.513C124.331 34.5368 125.97 31.7903 127.872 29.0235C130.847 24.6902 129.855 18.892 125.848 15.5963ZM126.941 28.3318C126.354 29.2269 125.666 30.0407 125.12 30.9359C124.128 32.5431 123.562 34.2927 123.4 36.1643C123.359 36.5916 123.298 36.9171 122.732 36.9171C120.405 36.8967 118.078 36.9171 115.669 36.9171C115.508 36.0016 115.406 35.1878 115.224 34.4147C114.799 32.5431 113.929 30.8952 112.735 29.3897C108.364 23.9374 110.853 16.3287 117.551 14.7418C120.971 13.928 124.654 15.3725 126.718 18.3021C128.823 21.2723 128.904 25.3005 126.941 28.3318Z" fill="#FFB000"/>
<path d="M125.848 15.5963C121.862 12.3208 116.115 12.5853 112.371 16.2269C108.607 19.9296 108.304 25.7888 111.723 30.0407C113.16 31.8514 114.051 33.8654 114.314 36.144C114.395 36.7747 114.395 37.4053 114.435 38.0767H124.513C124.331 34.5368 125.97 31.7903 127.872 29.0235C130.847 24.6902 129.855 18.892 125.848 15.5963ZM126.941 28.3318C126.354 29.2269 125.666 30.0407 125.12 30.9359C124.128 32.5431 123.562 34.2927 123.4 36.1643C123.359 36.5916 123.298 36.9171 122.732 36.9171C120.405 36.8967 118.078 36.9171 115.669 36.9171C115.508 36.0016 115.406 35.1878 115.224 34.4147C114.799 32.5431 113.929 30.8952 112.735 29.3897C108.364 23.9374 110.853 16.3287 117.551 14.7418C120.971 13.928 124.654 15.3725 126.718 18.3021C128.823 21.2723 128.904 25.3005 126.941 28.3318Z" fill="#FFB000"/>
<path d="M116.924 42.7152H122.105C122.125 43.1628 122.165 43.8138 121.781 43.9766C121.295 44.2003 121.073 44.3224 120.85 44.5869C120.384 45.1769 120.061 45.8686 120.081 47.0689C120.121 48.7778 120.101 49.673 120.081 50.9953C120.061 52.7246 118.847 54.047 117.248 54.0673C115.69 54.0877 114.516 52.9484 114.395 51.2598C114.334 50.4664 114.374 49.673 114.354 48.8999C114.354 48.6761 114.273 48.6151 114.233 48.5744C114.132 48.493 114.03 48.4523 113.848 48.5133C113.788 48.5337 113.707 48.6151 113.666 48.6761C113.423 49.1237 113.241 49.8561 112.816 50.0392C112.169 50.324 111.541 50.2833 110.57 50.2629C110.57 49.7747 110.57 49.5509 110.57 49.1847C110.772 49.1847 110.934 49.1847 111.096 49.1847C111.926 49.1847 112.472 49.1237 112.675 48.0658C112.816 47.3537 113.565 47.1096 114.293 47.2316C115.083 47.3741 115.447 47.903 115.508 48.6761C115.568 49.4695 115.548 50.2019 115.589 51.036C115.649 52.1753 116.277 52.928 117.248 52.9077C118.179 52.8874 118.887 52.1346 118.887 51.0157C118.907 49.4695 118.927 48.2692 118.887 46.723C118.887 46.4179 118.705 45.7262 118.563 45.421C118.341 44.9734 118.017 44.3428 117.43 44.0579C116.823 43.7324 116.985 43.2442 116.924 42.7152Z" fill="#2B2B2B"/>
<path d="M124.472 39.4601C124.472 39.7653 124.229 40.0094 123.926 40.0094H115.002C114.698 40.0094 114.455 39.7653 114.455 39.4601C114.455 39.1549 114.698 38.9108 115.002 38.9108H123.926C124.229 38.8905 124.472 39.1549 124.472 39.4601Z" fill="#FFB000"/>
<path d="M115.669 41.3725C115.669 41.0673 115.912 40.8435 116.196 40.8435H122.691C122.995 40.8435 123.218 41.0877 123.218 41.3725C123.218 41.6776 122.975 41.9014 122.691 41.9014H116.196C115.892 41.9218 115.669 41.6776 115.669 41.3725Z" fill="#FFB000"/>
<path d="M124.108 26.2974C124.047 26.3584 123.987 26.4195 123.926 26.4805C123.723 26.6839 123.582 26.9281 123.521 27.2129C122.833 29.6745 122.428 32.1565 122.61 34.7403C122.651 35.2285 122.61 35.6965 122.61 36.2457H121.417C121.356 33.4993 121.214 30.7731 122.024 28.108C122.206 27.4977 122.327 26.867 122.449 26.2567C122.57 25.5853 122.145 25.3005 121.68 25.6464C120.142 26.7653 118.685 26.7043 117.147 25.6464C116.702 25.3412 116.256 25.626 116.398 26.2974C116.479 26.6839 116.54 27.0705 116.661 27.457C117.531 30.3256 117.612 33.2348 117.41 36.2661H116.277C116.277 34.8623 116.398 33.4586 116.236 32.0752C116.034 30.3052 115.609 28.5556 115.265 26.806C115.245 26.6839 115.103 26.5822 115.002 26.5008C114.941 26.4398 114.86 26.3991 114.799 26.3381C114.395 26.0126 114.455 25.3819 114.901 25.1378C115.528 24.8123 116.074 24.5071 116.661 24.3036C117.005 24.1816 117.551 24.4054 117.895 24.6292C118.968 25.3819 119.98 25.4226 121.012 24.6088C121.68 24.1002 122.307 24.1612 122.995 24.6088C123.278 24.7919 123.602 24.9547 123.966 25.1378C124.411 25.3209 124.492 25.9515 124.108 26.2974Z" fill="#FFB000"/>
<path d="M125.423 20.2348L125.322 20.2755C125.059 20.3772 124.735 20.2755 124.594 20.0313C124.148 19.2582 123.683 18.5869 122.995 17.8952C122.833 17.7324 122.813 17.4476 122.954 17.2645L123.056 17.1018C123.238 16.8373 123.602 16.878 123.865 17.1018C124.654 17.8138 125.12 18.5462 125.666 19.5024C125.808 19.7872 125.707 20.1127 125.423 20.2348Z" fill="#FFB000"/>
<path d="M125.767 21.842L125.889 21.8216C126.172 21.7606 126.476 21.9437 126.516 22.2489V22.2692C126.556 22.554 126.374 22.7982 126.091 22.8592L125.97 22.8795C125.707 22.9202 125.444 22.7575 125.383 22.493C125.322 22.1878 125.504 21.903 125.767 21.842Z" fill="#FFB000"/>
<path d="M105.754 44.0579C105.713 43.7731 105.653 43.4883 105.592 43.2238L104.094 43.1424L103.447 41.7997L104.317 40.5587C103.973 40.0908 103.548 39.6636 103.103 39.2974L101.828 40.1315L100.513 39.4194L100.472 37.8936C99.946 37.7308 99.3794 37.6291 98.8128 37.5884L98.2665 38.9922L96.7892 39.1956L95.8786 37.975C95.312 38.1784 94.8061 38.4226 94.3204 38.7277L94.7049 40.1925L93.6324 41.2301L92.1956 40.7825C91.8719 41.2504 91.5885 41.7794 91.3659 42.3287L92.5396 43.2848L92.2766 44.77L90.86 45.2582C90.86 45.5634 90.8803 45.8686 90.941 46.1737C90.9815 46.4585 91.0422 46.723 91.1029 46.9875L92.6004 47.0689L93.2479 48.4116L92.3778 49.6526C92.742 50.1205 93.1467 50.5478 93.5919 50.9139L94.8668 50.1002L96.1821 50.8122L96.2024 52.338C96.7487 52.5008 97.3154 52.6025 97.9224 52.6432L98.4688 51.2191L99.946 51.0157L100.857 52.2363C101.403 52.0329 101.929 51.7888 102.415 51.4632L102.03 49.9985L103.103 48.9609L104.54 49.4085C104.863 48.9202 105.147 48.4116 105.349 47.8623L104.175 46.9061L104.438 45.421L105.855 44.9327C105.815 44.6479 105.794 44.3631 105.754 44.0579ZM100.796 47.4147C99.5413 48.7981 97.4165 48.8999 96.0405 47.6385C94.6644 46.3772 94.5835 44.241 95.8381 42.8576C97.0928 41.4742 99.2176 41.3725 100.594 42.6338C101.949 43.8952 102.051 46.0313 100.796 47.4147Z" fill="#FFB000"/>
<path d="M101.626 41.4742C99.6223 39.6229 96.5059 39.7653 94.6644 41.7794C92.8229 43.7934 92.9646 46.9265 94.9882 48.7778C96.9916 50.6291 100.108 50.4867 101.949 48.4523C103.791 46.4585 103.649 43.3255 101.626 41.4742ZM101.585 48.1471C99.9258 49.9578 97.113 50.1002 95.312 48.4319C93.4907 46.7637 93.3693 43.9359 95.0287 42.1252C96.688 40.3146 99.5008 40.1722 101.302 41.8404C103.123 43.4883 103.245 46.3161 101.585 48.1471Z" fill="#FFE2A9"/>
<path d="M96.0607 50.8122L96.1214 50.8326L96.1619 52.3381L96.1416 52.3584C96.688 52.5212 97.2546 52.6229 97.8617 52.6636L97.8415 52.6432L98.4081 51.2598L99.8853 51.0564L100.796 52.2363L100.776 52.2567C101.322 52.0532 101.848 51.8091 102.334 51.4836H102.314L101.949 50.0188L103.022 48.9812L104.459 49.3881V49.4085C104.782 48.9202 105.066 48.4116 105.268 47.8623H105.248L104.094 46.9061L104.358 45.421L105.754 44.9124L105.774 44.9327C105.774 44.6479 105.734 44.3427 105.693 44.0579C105.653 43.7731 105.592 43.4883 105.531 43.2238L105.511 43.2442L105.086 43.2238C102.799 47.5368 99.0759 49.7136 96.0607 50.8122Z" fill="#FFB000"/>
<path d="M101.949 48.4726C102.577 47.7809 102.981 46.9468 103.143 46.0923C102.901 46.3772 102.658 46.6416 102.395 46.8858C102.212 47.3333 101.929 47.7606 101.585 48.1268C100.836 48.9609 99.8449 49.4288 98.8128 49.5509C98.4891 49.734 98.1653 49.8967 97.8618 50.0391C99.339 50.2019 100.877 49.6526 101.949 48.4726Z" fill="#FFE2A9"/>
<path d="M94.6037 39.9484L94.3002 38.748C94.3002 38.748 94.968 38.3208 95.4941 38.1174C95.4941 38.1377 94.6847 38.5649 94.6037 39.9484Z" fill="#FFB000"/>
<path d="M109.761 51.8905C109.72 51.7684 109.68 51.6463 109.639 51.5446L108.992 51.5853L108.648 51.036L108.951 50.4664C108.769 50.2833 108.587 50.1205 108.364 49.9984L107.879 50.4257L107.272 50.2019L107.17 49.5509C106.927 49.5102 106.685 49.4898 106.442 49.5102L106.28 50.1409L105.653 50.3036L105.207 49.8357C104.985 49.9578 104.762 50.0798 104.58 50.2426L104.823 50.8529L104.418 51.3615L103.771 51.2598C103.649 51.4836 103.568 51.7074 103.508 51.9515L104.054 52.2974L104.014 52.9484L103.427 53.2332C103.447 53.3553 103.467 53.4977 103.508 53.6197C103.548 53.7418 103.589 53.8435 103.629 53.9656L104.277 53.9249L104.621 54.4742L104.317 55.0438C104.499 55.2269 104.681 55.3897 104.904 55.5118L105.41 55.0845L106.017 55.3083L106.118 55.9593C106.361 56 106.604 56.0204 106.867 56L107.029 55.3693L107.656 55.2066L108.101 55.6745C108.324 55.5524 108.546 55.4304 108.729 55.2676L108.486 54.6573L108.89 54.1487L109.538 54.2504C109.659 54.0266 109.74 53.8028 109.801 53.5587L109.255 53.2128L109.275 52.5618L109.862 52.277C109.821 52.1346 109.801 52.0125 109.761 51.8905ZM107.838 53.579C107.373 54.2301 106.482 54.3928 105.815 53.9249C105.167 53.457 105.005 52.5618 105.471 51.8905C105.936 51.2394 106.826 51.0767 107.474 51.5446C108.142 52.0125 108.304 52.928 107.838 53.579Z" fill="#FFB000"/>
<path d="M107.879 51.0157C106.928 50.3443 105.592 50.5681 104.924 51.5243C104.256 52.4804 104.479 53.8028 105.43 54.4945C106.381 55.1659 107.696 54.9421 108.385 53.9859C109.073 53.0094 108.83 51.687 107.879 51.0157ZM108.223 53.8435C107.616 54.7183 106.422 54.9218 105.572 54.3114C104.702 53.7011 104.499 52.5008 105.106 51.6463C105.713 50.7715 106.907 50.5681 107.777 51.1784C108.627 51.7887 108.83 52.9891 108.223 53.8435Z" fill="#FFE2A9"/>
<path d="M106.017 55.288H106.037L106.138 55.9186C106.381 55.9593 106.624 55.9797 106.887 55.9593L107.049 55.3286L107.676 55.1659L108.142 55.6135V55.6338C108.364 55.5117 108.587 55.3897 108.769 55.2269H108.749L108.506 54.6166L108.911 54.108L109.538 54.2097V54.23C109.659 54.0063 109.74 53.7825 109.801 53.5383H109.781L109.234 53.1925L109.255 52.5415L109.821 52.2363C109.801 52.1142 109.781 51.9922 109.74 51.8701C109.7 51.748 109.659 51.626 109.619 51.5243V51.5446L109.437 51.5649C108.708 53.5383 107.231 54.6573 106.017 55.288Z" fill="#FFB000"/>
<path d="M108.384 53.9656C108.607 53.6401 108.749 53.2535 108.769 52.8873C108.688 53.0297 108.587 53.1518 108.486 53.2739C108.425 53.4773 108.344 53.6604 108.202 53.8435C107.919 54.23 107.535 54.4945 107.089 54.5962C106.968 54.698 106.826 54.7793 106.705 54.8607C107.373 54.8404 108 54.5352 108.384 53.9656Z" fill="#FFE2A9"/>
<path d="M104.803 50.7308L104.6 50.2426C104.6 50.2426 104.863 50.0188 105.086 49.9171C105.086 49.9171 104.762 50.1408 104.803 50.7308Z" fill="#FFB000"/>
<path d="M110.408 47.252C110.408 47.1706 110.408 47.0892 110.388 47.0282L109.983 46.9671L109.842 46.5806L110.105 46.2754C110.024 46.133 109.922 46.011 109.821 45.9092L109.457 46.0923L109.133 45.8686L109.174 45.4617C109.032 45.4006 108.89 45.3599 108.749 45.3396L108.567 45.7058H108.162L107.96 45.3599C107.798 45.4006 107.656 45.4413 107.514 45.5227L107.575 45.9296L107.251 46.1737L106.887 46.011C106.786 46.133 106.705 46.2551 106.624 46.3975L106.907 46.6823L106.786 47.0689L106.401 47.1502C106.401 47.2316 106.401 47.313 106.401 47.3944C106.401 47.4757 106.401 47.5368 106.422 47.6182L106.826 47.6792L106.968 48.0657L106.705 48.3709C106.786 48.5133 106.887 48.6354 106.988 48.7371L107.352 48.554L107.676 48.7778L107.636 49.1847C107.777 49.2457 107.919 49.2864 108.081 49.3067L108.263 48.9405L108.668 48.9202L108.87 49.266C109.032 49.2254 109.174 49.1847 109.315 49.1033L109.255 48.6964L109.578 48.4523L109.943 48.615C110.044 48.493 110.125 48.3709 110.206 48.2285L109.922 47.9437L110.044 47.5571L110.428 47.4757C110.408 47.4147 110.408 47.3333 110.408 47.252ZM108.992 47.9844C108.627 48.3099 108.04 48.2692 107.717 47.903C107.393 47.5368 107.433 46.9468 107.798 46.6213C108.162 46.2958 108.749 46.3365 109.073 46.7027C109.417 47.0892 109.376 47.6588 108.992 47.9844Z" fill="#FFB000"/>
<path d="M109.396 46.4382C108.911 45.8889 108.081 45.8279 107.535 46.3161C106.988 46.8044 106.928 47.6385 107.413 48.1878C107.899 48.7371 108.729 48.7981 109.275 48.3099C109.821 47.8216 109.882 46.9875 109.396 46.4382ZM109.194 48.2081C108.708 48.6354 107.96 48.5947 107.514 48.1064C107.089 47.6182 107.13 46.8654 107.616 46.4178C108.101 45.9906 108.87 46.0313 109.295 46.5196C109.72 47.0282 109.68 47.7809 109.194 48.2081Z" fill="#FFE2A9"/>
<path d="M107.636 48.7574L107.616 49.1643C107.757 49.2254 107.899 49.266 108.061 49.2864L108.243 48.9405L108.648 48.9202L108.85 49.266C109.012 49.2254 109.153 49.1847 109.295 49.1033L109.234 48.6964L109.558 48.4523L109.922 48.615C110.024 48.493 110.105 48.3709 110.186 48.2285L109.902 47.9437L110.024 47.5571L110.408 47.4554C110.408 47.374 110.408 47.2926 110.408 47.2113C110.408 47.1299 110.408 47.0485 110.388 46.9875L110.266 46.9671C109.518 48.0861 108.465 48.554 107.636 48.7574Z" fill="#FFB000"/>
<path d="M109.275 48.3098C109.457 48.1471 109.599 47.9436 109.659 47.7198C109.578 47.7809 109.518 47.8419 109.437 47.9029C109.376 48.025 109.295 48.1267 109.194 48.2081C108.971 48.4116 108.688 48.5133 108.425 48.5133C108.344 48.554 108.243 48.5947 108.162 48.615C108.526 48.6964 108.951 48.5947 109.275 48.3098Z" fill="#FFE2A9"/>
<path d="M107.575 45.8279L107.535 45.5023C107.535 45.5023 107.717 45.4006 107.879 45.3803C107.858 45.3803 107.636 45.4617 107.575 45.8279Z" fill="#FFB000"/>
<path d="M109.396 13.9484L105.39 10.6119" stroke="#FFC200" stroke-width="1.5" stroke-miterlimit="10" stroke-linecap="round" stroke-linejoin="round"/>
<path d="M129.268 13.9687L133.295 10.6119" stroke="#FFC200" stroke-width="1.5" stroke-miterlimit="10" stroke-linecap="round" stroke-linejoin="round"/>
<path d="M119.474 9.4116V4.61035" stroke="#FFC200" stroke-width="1.5" stroke-miterlimit="10" stroke-linecap="round" stroke-linejoin="round"/>
<path d="M25.113 24.385C25.113 31.8513 19.9325 36.4085 13.1332 36.4085C5.48398 36.4085 0 30.7324 0 23.7136C0 16.6135 5.58516 10.9578 12.7487 10.9578C17.403 10.9578 21.3288 13.2567 23.3727 16.5524L18.6577 19.2786C17.6459 17.6714 15.4604 16.41 12.7083 16.41C8.62057 16.41 5.56492 19.4617 5.56492 23.7543C5.56492 27.9046 8.47892 30.9562 13.2142 30.9562C16.4519 30.9562 18.5565 29.5321 19.4266 27.1925H12.9309V22.3099H25.1332V24.385H25.113Z" fill="#2B2B2B"/>
<path d="M36.8904 31.7089C38.3069 31.7089 39.5211 31.1596 40.2293 30.3866L44.398 32.7872C42.6981 35.1675 40.1282 36.3881 36.8297 36.3881C30.8803 36.3881 27.1973 32.3803 27.1973 27.1722C27.1973 21.964 30.941 17.9562 36.4452 17.9562C41.5244 17.9562 45.2681 21.903 45.2681 27.1722C45.2681 27.9046 45.2074 28.5963 45.0658 29.2676H32.742C33.3895 31.0986 34.9882 31.7089 36.8904 31.7089ZM40.0877 25.3615C39.5413 23.3271 37.9629 22.5947 36.4047 22.5947C34.4216 22.5947 33.1062 23.5712 32.6206 25.3615H40.0877Z" fill="#2B2B2B"/>
<path d="M54.2934 23.4695V29.6542C54.2934 31.1596 55.5885 31.3021 57.8752 31.1596V35.8999C51.0759 36.5916 49.0928 34.5368 49.0928 29.6542V23.4695H46.3204V18.4445H49.0928V15.1283L54.3137 13.5618V18.4445H57.8752V23.4695H54.2934Z" fill="#2B2B2B"/>
<path d="M59.7976 30.3662L64.5936 27.579C65.4637 29.6135 66.9612 30.9765 69.6931 30.9765C72.344 30.9765 72.9916 29.9186 72.9916 28.9828C72.9916 27.4773 71.5953 26.8873 67.9528 25.8701C64.3305 24.8529 60.7892 23.1033 60.7892 18.4241C60.7892 13.7042 64.7555 10.9781 68.9444 10.9781C72.9309 10.9781 76.0675 12.8905 77.8482 16.4914L73.1737 19.2582C72.344 17.5086 71.1906 16.4304 68.9646 16.4304C67.2243 16.4304 66.3541 17.3052 66.3541 18.2817C66.3541 19.4006 66.941 20.1737 70.7251 21.313C74.4081 22.4319 78.5363 23.7136 78.5363 28.9014C78.5363 33.6213 74.7926 36.4085 69.511 36.4085C64.4115 36.4085 61.1535 33.9468 59.7976 30.3662Z" fill="#2B2B2B"/>
<path d="M107.211 25.1784V35.8999H101.99V25.626C101.99 23.8764 101.16 22.7575 99.4806 22.7575C97.7403 22.7575 96.769 23.9781 96.769 26.0329V35.8795H91.5481V25.6057C91.5481 23.856 90.7184 22.7371 89.0388 22.7371C87.2985 22.7371 86.3271 23.9578 86.3271 26.0125V35.8592H81.1062V18.4445H86.3271V20.0517C87.1164 18.8717 88.6543 17.9562 90.9814 17.9562C93.0253 17.9562 94.5632 18.7903 95.5346 20.2551C96.5059 18.8514 98.1045 17.9562 100.573 17.9562C104.6 17.9562 107.211 20.8248 107.211 25.1784Z" fill="#2B2B2B"/>
<path d="M142.867 18.0986V24.0391C140.722 23.6933 137.646 24.5681 137.646 28.0266V35.9202H132.425V18.4445H137.646V21.5571C138.334 19.2175 140.681 18.0986 142.867 18.0986Z" fill="#2B2B2B"/>
<path d="M152.418 23.4695V29.6542C152.418 31.1596 153.693 31.3021 156 31.1596V35.8999C149.201 36.5916 147.218 34.5368 147.218 29.6542V23.4695H144.445V18.4445H147.218V15.1283L152.438 13.5618V18.4445H156.02V23.4695H152.418Z" fill="#2B2B2B"/>
</g>
<defs>
<clipPath id="clip0">
<rect width="156" height="56" fill="white"/>
</clipPath>
</defs>
</svg>
