<svg width="185" height="64" viewBox="0 0 185 64" fill="none" xmlns="http://www.w3.org/2000/svg">
<g clip-path="url(#clip0)">
<path d="M150.539 32.3793C149.843 33.4023 149.027 34.3323 148.379 35.3553C147.203 37.1921 146.531 39.1917 146.339 41.3308C146.291 41.819 146.219 42.191 145.547 42.191C142.788 42.1678 140.028 42.191 137.172 42.191C136.98 41.1448 136.86 40.2147 136.644 39.3312C136.14 37.1921 135.108 35.3088 133.692 33.5883C128.509 27.3571 131.461 18.6614 139.404 16.8478C143.46 15.9178 147.827 17.5686 150.275 20.9167C152.771 24.3113 152.867 28.9149 150.539 32.3793Z" fill="#FFE2A9"/>
<path d="M149.243 17.8245C144.515 14.0811 137.7 14.3834 133.26 18.5453C128.797 22.7769 128.437 29.473 132.493 34.3324C134.196 36.4017 135.252 38.7035 135.564 41.3076C135.66 42.0284 135.66 42.7491 135.708 43.5164H147.659C147.443 39.4708 149.387 36.332 151.643 33.1699C155.171 28.2175 153.995 21.5911 149.243 17.8245ZM150.539 32.3794C149.843 33.4024 149.027 34.3324 148.379 35.3554C147.203 37.1922 146.531 39.1918 146.339 41.3309C146.291 41.8191 146.219 42.1911 145.547 42.1911C142.788 42.1679 140.028 42.1911 137.172 42.1911C136.98 41.1448 136.86 40.2148 136.644 39.3313C136.14 37.1922 135.108 35.3089 133.692 33.5884C128.509 27.3572 131.461 18.6615 139.404 16.848C143.46 15.9179 147.827 17.5687 150.275 20.9168C152.771 24.3114 152.867 28.915 150.539 32.3794Z" fill="#FFB000"/>
<path d="M149.243 17.8245C144.515 14.0811 137.7 14.3834 133.26 18.5453C128.797 22.7769 128.437 29.473 132.493 34.3324C134.196 36.4017 135.252 38.7035 135.564 41.3076C135.66 42.0284 135.66 42.7491 135.708 43.5164H147.659C147.443 39.4708 149.387 36.332 151.643 33.1699C155.171 28.2175 153.995 21.5911 149.243 17.8245ZM150.539 32.3794C149.843 33.4024 149.027 34.3324 148.379 35.3554C147.203 37.1922 146.531 39.1918 146.339 41.3309C146.291 41.8191 146.219 42.1911 145.547 42.1911C142.788 42.1679 140.028 42.1911 137.172 42.1911C136.98 41.1448 136.86 40.2148 136.644 39.3313C136.14 37.1922 135.108 35.3089 133.692 33.5884C128.509 27.3572 131.461 18.6615 139.404 16.848C143.46 15.9179 147.827 17.5687 150.275 20.9168C152.771 24.3114 152.867 28.915 150.539 32.3794Z" fill="#FFB000"/>
<path d="M138.66 48.8176H144.803C144.827 49.3291 144.875 50.0732 144.419 50.2592C143.844 50.5149 143.58 50.6544 143.316 50.9567C142.764 51.631 142.38 52.4215 142.404 53.7933C142.452 55.7463 142.428 56.7693 142.404 58.2806C142.38 60.2569 140.94 61.7682 139.044 61.7915C137.196 61.8147 135.804 60.5127 135.66 58.5829C135.588 57.6761 135.636 56.7693 135.612 55.8858C135.612 55.6301 135.516 55.5603 135.468 55.5138C135.348 55.4208 135.228 55.3743 135.012 55.4441C134.94 55.4673 134.844 55.5603 134.796 55.6301C134.508 56.1416 134.292 56.9786 133.788 57.1879C133.02 57.5134 132.277 57.4669 131.125 57.4436C131.125 56.8856 131.125 56.6298 131.125 56.2113C131.365 56.2113 131.557 56.2113 131.749 56.2113C132.732 56.2113 133.38 56.1416 133.62 54.9325C133.788 54.1188 134.676 53.8398 135.54 53.9793C136.476 54.142 136.908 54.7465 136.98 55.6301C137.052 56.5368 137.028 57.3739 137.076 58.3271C137.148 59.6292 137.892 60.4894 139.044 60.4662C140.148 60.4429 140.988 59.5827 140.988 58.3039C141.012 56.5368 141.036 55.165 140.988 53.398C140.988 53.0492 140.772 52.2587 140.604 51.91C140.34 51.3984 139.956 50.6777 139.26 50.3522C138.54 49.9802 138.732 49.4221 138.66 48.8176Z" fill="#2B2B2B"/>
<path d="M147.611 45.0973C147.611 45.446 147.323 45.725 146.963 45.725H136.38C136.02 45.725 135.732 45.446 135.732 45.0973C135.732 44.7485 136.02 44.4695 136.38 44.4695H146.963C147.323 44.4463 147.611 44.7485 147.611 45.0973Z" fill="#FFB000"/>
<path d="M137.172 47.283C137.172 46.9342 137.46 46.6785 137.796 46.6785H145.499C145.859 46.6785 146.123 46.9575 146.123 47.283C146.123 47.6317 145.835 47.8875 145.499 47.8875H137.796C137.436 47.9107 137.172 47.6317 137.172 47.283Z" fill="#FFB000"/>
<path d="M147.179 30.0541C147.107 30.1239 147.035 30.1936 146.963 30.2634C146.723 30.4959 146.555 30.7749 146.483 31.1004C145.667 33.9137 145.187 36.7503 145.403 39.7031C145.451 40.2612 145.403 40.7959 145.403 41.4237H143.988C143.916 38.2848 143.748 35.1693 144.707 32.1234C144.923 31.4259 145.067 30.7051 145.211 30.0076C145.355 29.2404 144.851 28.9148 144.299 29.3101C142.476 30.5889 140.748 30.5191 138.924 29.3101C138.396 28.9613 137.868 29.2869 138.036 30.0541C138.132 30.4959 138.204 30.9376 138.348 31.3794C139.38 34.6577 139.476 37.9826 139.236 41.4469H137.892C137.892 39.8426 138.036 38.2383 137.844 36.6573C137.604 34.6345 137.1 32.6349 136.692 30.6354C136.668 30.4959 136.5 30.3796 136.38 30.2866C136.308 30.2169 136.212 30.1704 136.14 30.1006C135.66 29.7286 135.732 29.0078 136.26 28.7288C137.004 28.3568 137.652 28.0081 138.348 27.7756C138.756 27.6361 139.404 27.8918 139.812 28.1476C141.084 29.0078 142.284 29.0543 143.508 28.1243C144.299 27.5431 145.043 27.6128 145.859 28.1243C146.195 28.3336 146.579 28.5196 147.011 28.7288C147.539 28.9381 147.635 29.6589 147.179 30.0541Z" fill="#FFB000"/>
<path d="M148.739 23.1254L148.619 23.1719C148.307 23.2882 147.923 23.1719 147.755 22.8929C147.227 22.0094 146.675 21.2421 145.859 20.4516C145.667 20.2656 145.643 19.9401 145.811 19.7308L145.931 19.5448C146.147 19.2426 146.579 19.2891 146.891 19.5448C147.827 20.3586 148.379 21.1956 149.027 22.2884C149.195 22.6139 149.075 22.9859 148.739 23.1254Z" fill="#FFB000"/>
<path d="M149.147 24.9622L149.291 24.9389C149.627 24.8692 149.987 25.0784 150.035 25.4272V25.4504C150.083 25.7759 149.867 26.0549 149.531 26.1247L149.387 26.1479C149.075 26.1944 148.763 26.0084 148.691 25.7062C148.619 25.3574 148.835 25.0319 149.147 24.9622Z" fill="#FFB000"/>
<path d="M125.413 50.3519C125.365 50.0264 125.293 49.7009 125.221 49.3987L123.445 49.3057L122.677 47.7711L123.709 46.3528C123.301 45.8181 122.797 45.3298 122.269 44.9113L120.758 45.8646L119.198 45.0508L119.15 43.307C118.526 43.121 117.854 43.0048 117.182 42.9583L116.534 44.5625L114.782 44.795L113.702 43.4C113.03 43.6325 112.43 43.9115 111.854 44.2603L112.31 45.9343L111.038 47.1201L109.335 46.6086C108.951 47.1434 108.615 47.7479 108.351 48.3756L109.742 49.4684L109.431 51.1657L107.751 51.7237C107.751 52.0725 107.775 52.4213 107.847 52.77C107.895 53.0955 107.967 53.3978 108.039 53.7L109.814 53.793L110.582 55.3276L109.551 56.7459C109.982 57.2806 110.462 57.7689 110.99 58.1874L112.502 57.2574L114.062 58.0712L114.086 59.8149C114.734 60.001 115.406 60.1172 116.126 60.1637L116.774 58.5362L118.526 58.3037L119.606 59.6987C120.254 59.4662 120.878 59.1872 121.453 58.8152L120.998 57.1411L122.269 55.9553L123.973 56.4669C124.357 55.9088 124.693 55.3276 124.933 54.6998L123.541 53.607L123.853 51.9097L125.533 51.3517C125.485 51.0262 125.461 50.7007 125.413 50.3519ZM119.534 54.1883C118.046 55.7693 115.526 55.8856 113.894 54.4441C112.262 53.0025 112.166 50.5612 113.654 48.9802C115.142 47.3991 117.662 47.2829 119.294 48.7244C120.902 50.1659 121.022 52.6073 119.534 54.1883Z" fill="#FFB000"/>
<path d="M120.518 47.3992C118.142 45.2833 114.446 45.4461 112.262 47.7479C110.078 50.0497 110.246 53.6303 112.646 55.7461C115.022 57.8619 118.718 57.6992 120.902 55.3741C123.085 53.0956 122.917 49.515 120.518 47.3992ZM120.47 55.0254C118.502 57.0947 115.166 57.2574 113.03 55.3509C110.87 53.4443 110.726 50.2125 112.694 48.1432C114.662 46.0739 117.998 45.9111 120.134 47.8177C122.293 49.701 122.437 52.9328 120.47 55.0254Z" fill="#FFE2A9"/>
<path d="M113.918 58.0712L113.99 58.0944L114.038 59.815L114.014 59.8382C114.662 60.0242 115.334 60.1405 116.054 60.187L116.03 60.1637L116.702 58.5827L118.454 58.3502L119.534 59.6987L119.51 59.722C120.158 59.4894 120.782 59.2104 121.357 58.8384H121.333L120.902 57.1644L122.173 55.9786L123.877 56.4436V56.4669C124.261 55.9089 124.597 55.3276 124.837 54.6998H124.813L123.445 53.607L123.757 51.9097L125.413 51.3285L125.437 51.3517C125.437 51.0262 125.389 50.6775 125.341 50.352C125.293 50.0264 125.221 49.7009 125.149 49.3987L125.125 49.4219L124.621 49.3987C121.909 54.3278 117.494 56.8156 113.918 58.0712Z" fill="#FFB000"/>
<path d="M120.902 55.3973C121.645 54.6068 122.125 53.6535 122.317 52.677C122.029 53.0025 121.741 53.3048 121.429 53.5838C121.214 54.0953 120.878 54.5836 120.47 55.0021C119.582 55.9553 118.406 56.4901 117.182 56.6296C116.798 56.8389 116.414 57.0249 116.054 57.1876C117.806 57.3736 119.63 56.7459 120.902 55.3973Z" fill="#FFE2A9"/>
<path d="M112.19 45.6553L111.83 44.2835C111.83 44.2835 112.622 43.7952 113.246 43.5627C113.246 43.586 112.286 44.0743 112.19 45.6553Z" fill="#FFB000"/>
<path d="M130.165 59.3034C130.117 59.1639 130.069 59.0244 130.021 58.9082L129.253 58.9547L128.845 58.3269L129.205 57.6759C128.989 57.4666 128.773 57.2806 128.509 57.1411L127.933 57.6294L127.213 57.3736L127.093 56.6296C126.805 56.5831 126.517 56.5598 126.229 56.5831L126.037 57.3039L125.293 57.4899L124.765 56.9551C124.501 57.0946 124.237 57.2341 124.021 57.4201L124.309 58.1176L123.829 58.6989L123.061 58.5827C122.917 58.8384 122.821 59.0942 122.749 59.3732L123.397 59.7684L123.349 60.5125L122.653 60.838C122.677 60.9775 122.701 61.1402 122.749 61.2797C122.797 61.4192 122.845 61.5355 122.893 61.675L123.661 61.6285L124.069 62.2563L123.709 62.9073C123.925 63.1165 124.141 63.3025 124.405 63.442L125.005 62.9538L125.725 63.2095L125.845 63.9536C126.133 64.0001 126.421 64.0233 126.733 64.0001L126.925 63.2793L127.669 63.0933L128.197 63.628C128.461 63.4885 128.725 63.349 128.941 63.163L128.653 62.4655L129.133 61.8842L129.901 62.0005C130.045 61.7447 130.141 61.489 130.213 61.21L129.565 60.8147L129.589 60.0707L130.285 59.7452C130.237 59.5824 130.213 59.4429 130.165 59.3034ZM127.885 61.2332C127.333 61.9773 126.277 62.1633 125.485 61.6285C124.717 61.0937 124.525 60.0707 125.077 59.3034C125.629 58.5594 126.685 58.3734 127.453 58.9082C128.245 59.4429 128.437 60.4892 127.885 61.2332Z" fill="#FFB000"/>
<path d="M127.933 58.3038C126.805 57.5365 125.221 57.7922 124.429 58.885C123.637 59.9778 123.901 61.4891 125.029 62.2796C126.157 63.0469 127.717 62.7911 128.533 61.6983C129.349 60.5823 129.061 59.071 127.933 58.3038ZM128.341 61.5356C127.621 62.5354 126.205 62.7679 125.197 62.0704C124.165 61.3728 123.925 60.001 124.645 59.0245C125.365 58.0247 126.781 57.7922 127.813 58.4898C128.821 59.1873 129.061 60.5591 128.341 61.5356Z" fill="#FFE2A9"/>
<path d="M125.725 63.1864H125.749L125.869 63.9071C126.157 63.9536 126.445 63.9769 126.757 63.9536L126.949 63.2329L127.693 63.0469L128.245 63.5584V63.5816C128.509 63.4421 128.773 63.3026 128.989 63.1166H128.965L128.677 62.4191L129.157 61.8378L129.901 61.9541V61.9773C130.045 61.7216 130.141 61.4658 130.213 61.1868H130.189L129.541 60.7916L129.565 60.0475L130.237 59.6988C130.213 59.5593 130.189 59.4198 130.141 59.2803C130.093 59.1408 130.045 59.0013 129.997 58.885V58.9083L129.781 58.9315C128.917 61.1868 127.165 62.4656 125.725 63.1864Z" fill="#FFB000"/>
<path d="M128.533 61.6749C128.797 61.3029 128.965 60.8611 128.989 60.4426C128.893 60.6054 128.773 60.7449 128.653 60.8844C128.581 61.1169 128.485 61.3262 128.317 61.5354C127.981 61.9772 127.525 62.2794 126.997 62.3957C126.853 62.5119 126.685 62.6049 126.541 62.6979C127.333 62.6747 128.077 62.3259 128.533 61.6749Z" fill="#FFE2A9"/>
<path d="M124.285 57.9781L124.045 57.4201C124.045 57.4201 124.357 57.1643 124.621 57.0481C124.621 57.0481 124.237 57.3039 124.285 57.9781Z" fill="#FFB000"/>
<path d="M130.933 54.0022C130.933 53.9092 130.933 53.8162 130.909 53.7465L130.429 53.6767L130.261 53.2349L130.573 52.8862C130.477 52.7234 130.357 52.5839 130.237 52.4677L129.805 52.6769L129.421 52.4212L129.469 51.9562C129.301 51.8864 129.133 51.8399 128.965 51.8167L128.749 52.2352H128.269L128.029 51.8399C127.837 51.8864 127.669 51.9329 127.501 52.0259L127.573 52.4909L127.189 52.7699L126.757 52.5839C126.637 52.7234 126.541 52.8629 126.445 53.0257L126.781 53.3512L126.637 53.793L126.181 53.886C126.181 53.979 126.181 54.072 126.181 54.165C126.181 54.258 126.181 54.3277 126.205 54.4207L126.685 54.4905L126.853 54.9322L126.541 55.281C126.637 55.4437 126.757 55.5832 126.877 55.6995L127.309 55.4902L127.693 55.746L127.645 56.211C127.813 56.2808 127.981 56.3273 128.173 56.3505L128.389 55.932L128.869 55.9088L129.109 56.304C129.301 56.2575 129.469 56.211 129.637 56.118L129.565 55.653L129.949 55.374L130.381 55.56C130.501 55.4205 130.597 55.281 130.693 55.1182L130.357 54.7927L130.501 54.351L130.957 54.258C130.933 54.1882 130.933 54.0952 130.933 54.0022ZM129.253 54.8392C128.821 55.2112 128.125 55.1647 127.741 54.7462C127.357 54.3277 127.405 53.6535 127.837 53.2814C128.269 52.9094 128.965 52.9559 129.349 53.3744C129.757 53.8162 129.709 54.4672 129.253 54.8392Z" fill="#FFB000"/>
<path d="M129.733 53.0721C129.157 52.4443 128.173 52.3746 127.525 52.9326C126.877 53.4906 126.805 54.4439 127.381 55.0716C127.957 55.6994 128.941 55.7691 129.589 55.2111C130.237 54.6531 130.309 53.6998 129.733 53.0721ZM129.493 55.0949C128.917 55.5831 128.029 55.5366 127.501 54.9786C126.997 54.4206 127.045 53.5603 127.621 53.0488C128.197 52.5606 129.109 52.6071 129.613 53.1651C130.117 53.7463 130.069 54.6066 129.493 55.0949Z" fill="#FFE2A9"/>
<path d="M127.645 55.7228L127.621 56.1878C127.789 56.2576 127.957 56.3041 128.149 56.3273L128.365 55.9321L128.845 55.9088L129.085 56.3041C129.277 56.2576 129.445 56.2111 129.613 56.1181L129.541 55.6531L129.925 55.3741L130.357 55.5601C130.477 55.4206 130.573 55.281 130.669 55.1183L130.333 54.7928L130.477 54.351L130.933 54.2348C130.933 54.1418 130.933 54.0488 130.933 53.9558C130.933 53.8628 130.933 53.7698 130.909 53.7L130.765 53.6768C129.877 54.9555 128.629 55.4903 127.645 55.7228Z" fill="#FFB000"/>
<path d="M129.589 55.2114C129.805 55.0254 129.973 54.7929 130.045 54.5371C129.949 54.6069 129.877 54.6766 129.781 54.7464C129.709 54.8859 129.613 55.0021 129.493 55.0951C129.229 55.3276 128.893 55.4439 128.581 55.4439C128.485 55.4904 128.365 55.5369 128.269 55.5601C128.701 55.6531 129.205 55.5369 129.589 55.2114Z" fill="#FFE2A9"/>
<path d="M127.573 52.3748L127.525 52.0028C127.525 52.0028 127.741 51.8865 127.933 51.8633C127.909 51.8633 127.645 51.9563 127.573 52.3748Z" fill="#FFB000"/>
<path d="M129.733 15.941L124.981 12.1279" stroke="#FFC200" stroke-width="2" stroke-miterlimit="10" stroke-linecap="round" stroke-linejoin="round"/>
<path d="M153.299 15.9643L158.074 12.1279" stroke="#FFC200" stroke-width="2" stroke-miterlimit="10" stroke-linecap="round" stroke-linejoin="round"/>
<path d="M141.684 10.7562V5.26904" stroke="#FFC200" stroke-width="2" stroke-miterlimit="10" stroke-linecap="round" stroke-linejoin="round"/>
<path d="M29.7814 27.8686C29.7814 36.4016 23.638 41.6097 15.5747 41.6097C6.50344 41.6097 0 35.1228 0 27.1013C0 18.9869 6.62343 12.5232 15.1187 12.5232C20.6382 12.5232 25.2938 15.1505 27.7176 18.9171L22.1261 22.0327C20.9262 20.1959 18.3344 18.7544 15.0707 18.7544C10.2231 18.7544 6.59943 22.242 6.59943 27.1478C6.59943 31.891 10.0551 35.3785 15.6706 35.3785C19.5103 35.3785 22.0061 33.751 23.038 31.0772H15.3347V25.497H29.8054V27.8686H29.7814Z" fill="#2B2B2B"/>
<path d="M43.7482 36.2389C45.4281 36.2389 46.8679 35.6111 47.7079 34.7276L52.6514 37.4712C50.6356 40.1915 47.5879 41.5865 43.6762 41.5865C36.6208 41.5865 32.2532 37.0062 32.2532 31.054C32.2532 25.1019 36.6928 20.5215 43.2203 20.5215C49.2437 20.5215 53.6833 25.0321 53.6833 31.054C53.6833 31.891 53.6114 32.6816 53.4434 33.4488H38.8286C39.5966 35.5414 41.4924 36.2389 43.7482 36.2389ZM47.5399 28.9847C46.8919 26.6596 45.0201 25.8226 43.1723 25.8226C40.8205 25.8226 39.2606 26.9387 38.6846 28.9847H47.5399Z" fill="#2B2B2B"/>
<path d="M64.3864 26.8223V33.8905C64.3864 35.6111 65.9223 35.7738 68.6341 35.6111V41.0285C60.5708 41.819 58.219 39.4707 58.219 33.8905V26.8223H54.9312V21.0794H58.219V17.2896L64.4104 15.4993V21.0794H68.6341V26.8223H64.3864Z" fill="#2B2B2B"/>
<path d="M70.9138 34.7042L76.6014 31.5189C77.6333 33.844 79.4091 35.4017 82.6488 35.4017C85.7926 35.4017 86.5605 34.1927 86.5605 33.1232C86.5605 31.4026 84.9046 30.7284 80.585 29.5658C76.2894 28.4033 72.0897 26.4038 72.0897 21.0561C72.0897 15.662 76.7933 12.5464 81.7609 12.5464C86.4885 12.5464 90.2082 14.7319 92.32 18.8473L86.7765 22.0094C85.7926 20.0098 84.4247 18.7776 81.7849 18.7776C79.7211 18.7776 78.6892 19.7773 78.6892 20.8934C78.6892 22.1721 79.3851 23.0557 83.8727 24.3577C88.2404 25.6365 93.1359 27.1013 93.1359 33.0302C93.1359 38.4243 88.6963 41.6097 82.4329 41.6097C76.3854 41.6097 72.5217 38.7963 70.9138 34.7042Z" fill="#2B2B2B"/>
<path d="M127.141 28.7754V41.0285H120.95V29.287C120.95 27.2874 119.966 26.0086 117.974 26.0086C115.91 26.0086 114.758 27.4037 114.758 29.752V41.0053H108.567V29.2637C108.567 27.2642 107.583 25.9854 105.591 25.9854C103.527 25.9854 102.375 27.3804 102.375 29.7287V40.982H96.1837V21.0795H102.375V22.9163C103.311 21.5678 105.135 20.5215 107.895 20.5215C110.318 20.5215 112.142 21.4748 113.294 23.1488C114.446 21.5445 116.342 20.5215 119.27 20.5215C124.045 20.5215 127.141 23.7998 127.141 28.7754Z" fill="#2B2B2B"/>
<path d="M169.425 20.6841V27.4733C166.882 27.078 163.234 28.0778 163.234 32.0304V41.0516H157.042V21.0793H163.234V24.6367C164.05 21.9629 166.834 20.6841 169.425 20.6841Z" fill="#2B2B2B"/>
<path d="M180.752 26.8223V33.8905C180.752 35.6111 182.264 35.7738 185 35.6111V41.0285C176.937 41.819 174.585 39.4707 174.585 33.8905V26.8223H171.297V21.0794H174.585V17.2896L180.776 15.4993V21.0794H185.024V26.8223H180.752Z" fill="#2B2B2B"/>
</g>
<defs>
<clipPath id="clip0">
<rect width="185" height="64" fill="white"/>
</clipPath>
</defs>
</svg>
