<svg width="40" height="40" viewBox="0 0 40 40" fill="none" xmlns="http://www.w3.org/2000/svg">
<path d="M35.1371 21.4149C34.5058 23.4514 32.057 24.7393 29.5507 24.3636L31.9674 16.6085C34.3948 17.2723 35.7665 19.3843 35.1371 21.4149Z" fill="#FFD954" stroke="#0F0F0F" stroke-width="0.3"/>
<path d="M29.2222 24.4969C29.2221 24.4965 29.222 24.4959 29.2218 24.4949C29.2212 24.4897 29.2212 24.4787 29.2255 24.4594L31.7344 16.4085L31.7347 16.4086L31.737 16.399C31.7386 16.3923 31.7413 16.3877 31.7451 16.3837C31.7492 16.3795 31.758 16.3725 31.7762 16.3664L31.7763 16.3668L31.7864 16.3626C31.8234 16.3473 31.8694 16.3396 31.9135 16.3458M29.2222 24.4969C29.2223 24.4972 29.2223 24.4973 29.2223 24.4973C29.2223 24.4973 29.2223 24.4972 29.2222 24.4971C29.222 24.4966 29.2219 24.4965 29.2222 24.4969ZM29.2222 24.4969C29.2223 24.497 29.2224 24.4972 29.2226 24.4974C29.2485 24.526 29.2802 24.5451 29.3196 24.5516C29.6964 24.6142 30.0553 24.6512 30.4278 24.6512C32.7972 24.6512 34.8239 23.3328 35.3971 21.4537L35.3975 21.4524C36.0833 19.2723 34.5909 17.0194 31.9135 16.3458M31.9135 16.3458C31.9152 16.3461 31.917 16.3463 31.9187 16.3466L31.9433 16.1986L31.9068 16.3442C31.909 16.3447 31.9112 16.3453 31.9135 16.3458ZM29.5651 24.2611L29.5107 24.436L29.6928 24.4549L29.6971 24.4553C29.939 24.4804 30.1904 24.5065 30.4278 24.5065C32.6357 24.5065 34.5879 23.2709 35.1631 21.4538L35.1634 21.453C35.8068 19.3835 34.4477 17.3053 32.1097 16.5889L31.9669 16.5452L31.9225 16.6878L29.5651 24.2611Z" fill="#0F0F0F" stroke="#0F0F0F" stroke-width="0.3"/>
<path d="M24.2343 32.9549L24.3691 32.9353L24.3626 32.7993L24.0479 26.2072L28.1748 25.8042L28.7994 36.297L20.9608 36.6144C20.9699 36.5231 20.9856 36.397 21.013 36.2462C21.0718 35.9213 21.1839 35.4842 21.396 35.0337C21.8182 34.1367 22.6349 33.1874 24.2343 32.9549Z" fill="#E6E7E8" stroke="#0F0F0F" stroke-width="0.3"/>
<path d="M23.6311 26.0847C23.6311 25.9703 23.7382 25.856 23.876 25.8433L28.3 25.4112L23.6311 26.0847ZM23.6311 26.0847H23.7811C23.7811 26.084 23.7811 26.0834 23.7811 26.0827L23.7809 26.0777L23.6311 26.0847ZM28.4564 25.6359L28.4559 25.6272H28.4561C28.4561 25.612 28.4493 25.5983 28.435 25.5894L28.5143 25.4621L28.4564 25.6359ZM28.4564 25.6359L29.0836 36.4438C29.082 36.4734 29.0552 36.524 28.964 36.5325L20.7966 36.8499M28.4564 25.6359L20.7966 36.8499M20.7966 36.8499C20.7613 36.8495 20.73 36.8393 20.6884 36.8146L20.7966 36.8499ZM20.6715 36.7975C20.6685 36.7938 20.6675 36.7919 20.6675 36.7919L20.6675 36.7919C20.6678 36.7925 20.669 36.7953 20.6695 36.7995C20.6699 36.8038 20.6694 36.8064 20.6694 36.8064L20.6715 36.7975ZM24.1674 26.126L24.0256 26.14L24.0323 26.2823L24.3382 32.809C24.3369 32.8374 24.3125 32.8798 24.2449 32.886L24.2449 32.8858L24.2374 32.8869C22.9016 33.0783 22.0964 33.7881 21.6174 34.5503C21.1416 35.3073 20.9882 36.1134 20.941 36.5122L20.9203 36.6868L21.096 36.6797L28.6581 36.3747L28.8106 36.3686L28.8018 36.2162L28.2048 25.8854L28.1958 25.7295L28.0403 25.7448L24.1674 26.126Z" fill="#0F0F0F" stroke="#0F0F0F" stroke-width="0.3"/>
<path d="M10.3399 27.2599L16.8445 6.33571L32.0252 15.4027L28.9055 25.425L28.3007 25.4905L28.2991 25.4906L23.8767 25.9225L23.8766 25.9225L10.3399 27.2599Z" fill="white" stroke="#0F0F0F" stroke-width="0.3"/>
<path d="M16.6255 6.10287L16.6278 6.09547L16.6291 6.08917C16.6299 6.08774 16.6326 6.08406 16.6393 6.07846C16.6515 6.06838 16.6705 6.05775 16.6943 6.04946C16.7451 6.03633 16.7958 6.04282 16.8395 6.06337L32.2796 15.2853L32.2796 15.2854L32.2839 15.2878C32.3022 15.2979 32.3136 15.3118 32.319 15.324C32.3244 15.336 32.3235 15.3443 32.3218 15.3491L32.3218 15.3491L32.3205 15.3534L29.1373 25.5797C29.1249 25.6133 29.0867 25.6422 29.05 25.6422H29.0426L29.0353 25.6429L10.153 27.5101H10.1529H10.1529H10.1528H10.1527H10.1527H10.1526H10.1526H10.1525H10.1524H10.1524H10.1523H10.1523H10.1522H10.1521H10.1521H10.152H10.152H10.1519H10.1518H10.1518H10.1517H10.1517H10.1516H10.1516H10.1515H10.1514H10.1514H10.1513H10.1513H10.1512H10.1512H10.1511H10.151H10.151H10.1509H10.1509H10.1508H10.1508H10.1507H10.1507H10.1506H10.1505H10.1505H10.1504H10.1504H10.1503H10.1503H10.1502H10.1502H10.1501H10.1501H10.15H10.15H10.1499H10.1498H10.1498H10.1497H10.1497H10.1496H10.1496H10.1495H10.1495H10.1494H10.1494H10.1493H10.1493H10.1492H10.1492H10.1491H10.1491H10.149H10.149H10.1489H10.1489H10.1488H10.1488H10.1487H10.1487H10.1486H10.1486H10.1485H10.1485H10.1484H10.1484H10.1483H10.1483H10.1482H10.1482H10.1481H10.1481H10.148H10.148H10.1479H10.1479H10.1478H10.1478H10.1478H10.1477H10.1477H10.1476H10.1476H10.1475H10.1475H10.1474H10.1474H10.1473H10.1473H10.1472H10.1472H10.1471H10.1471H10.147H10.147H10.147H10.1469H10.1469H10.1468H10.1468H10.1467H10.1467H10.1466H10.1466H10.1465H10.1465H10.1464H10.1464H10.1464H10.1463H10.1463H10.1462H10.1462H10.1461H10.1461H10.146H10.146H10.1459H10.1459H10.1459H10.1458H10.1458H10.1457H10.1457H10.1456H10.1456H10.1455H10.1455H10.1454H10.1454H10.1454H10.1453H10.1453H10.1452H10.1452H10.1451H10.1451H10.145H10.145H10.145H10.1449H10.1449H10.1448H10.1448H10.1447H10.1447H10.1446H10.1446H10.1446H10.1445H10.1445H10.1444H10.1444H10.1443H10.1443H10.1442H10.1442H10.1441H10.1441H10.1441H10.144H10.144H10.1439H10.1439H10.1438H10.1438H10.1437H10.1437H10.1436H10.1436H10.1436H10.1435H10.1435H10.1434H10.1434H10.1433H10.1433H10.1432H10.1432H10.1431H10.1431H10.1431H10.143H10.143H10.1429H10.1429H10.1428H10.1428H10.1427H10.1427H10.1426H10.1426H10.1425H10.1425H10.1425H10.1424H10.1424H10.1423H10.1423H10.1422H10.1422H10.1421H10.1421H10.142H10.142H10.1419H10.1419H10.1418H10.1418H10.1417H10.1417H10.1417H10.1416H10.1416H10.1415H10.1415H10.1414H10.1414H10.1413H10.1413H10.1412H10.1412H10.1411H10.1411H10.141H10.141H10.1409H10.1409H10.1408H10.1408H10.1407H10.1407H10.1406H10.1406H10.1405H10.1405H10.1404H10.1404H10.1403H10.1403H10.1402H10.1402H10.1401H10.1401H10.14H10.14H10.1399H10.1398H10.1398H10.1397H10.1397H10.1396H10.1396H10.1395H10.1395H10.1394H10.1394H10.1393H10.1393H10.1392H10.1392H10.1391H10.139H10.139H10.1389H10.1389H10.1388H10.1388H10.1387H10.1387H10.1386H10.1385H10.1385H10.1384H10.1384H10.1383H10.1383H10.1382H10.1381H10.1381H10.138H10.138H10.1379H10.1379H10.1378H10.1377H10.1377H10.1376H10.1376H10.1375H10.1374H10.1374H10.1373H10.1373H10.1372H10.1371H10.1371H10.137H10.137H10.1369H10.1368H10.1368H10.1367H10.1366H10.1366H10.1365H10.1365H10.1364H10.1363H10.1363H10.1362H10.1361H10.1361H10.136H10.1359H10.1359H10.1358H10.1357H10.1357H10.1356H10.1356H10.1355H10.1354H10.1353H10.1353H10.1352H10.1351H10.1351H10.135H10.1349H10.1349H10.1348H10.1347H10.1347H10.1346H10.1345H10.1345H10.1344H10.1343H10.1342H10.1342H10.1341H10.134H10.134H10.1339H10.1338H10.1337H10.1337H10.1336H10.1335H10.1334H10.1334H10.1333H10.1332H10.1331H10.1331H10.133H10.1329H10.1328H10.1328H10.1327H10.1326H10.1325H10.1324H10.1324H10.1323H10.1322H10.1321H10.1321H10.132H10.1319H10.1318H10.1317H10.1316H10.1316H10.1315H10.1314H10.1313H10.1312H10.1312H10.1311H10.131H10.1309H10.1308H10.1307H10.1306H10.1306H10.1305H10.1304H10.1303H10.1302H10.1301H10.13H10.13H10.1299H10.1298H10.1297H10.1296H10.1295C10.0888 27.5101 10.0494 27.4975 10.0178 27.4739C9.99881 27.4513 9.99702 27.4314 9.99916 27.4188L16.6255 6.10287ZM17.0031 6.36162L16.8396 6.26387L16.783 6.44584L10.3537 27.12L10.2865 27.336L10.5116 27.3138L28.8198 25.5095L28.9187 25.4997L28.9483 25.4048L32.0405 15.4807L32.0756 15.3679L31.9742 15.3073L17.0031 6.36162Z" fill="#0F0F0F" stroke="#0F0F0F" stroke-width="0.3"/>
<path d="M11.2023 12.0458L8.72863 20.0055L4.73461 17.4056L5.46595 15.0745L5.46595 15.0745L5.4662 15.0736L6.1881 12.7256L11.2023 12.0458Z" fill="#808285" stroke="#0F0F0F" stroke-width="0.3"/>
<path d="M8.74049 20.302L8.7338 20.2964L8.72651 20.2917L4.47093 17.5216L4.47114 17.5213L4.46172 17.5161C4.44798 17.5085 4.44163 17.4992 4.43852 17.4905C4.43505 17.4808 4.43446 17.4681 4.43908 17.4547L4.43914 17.4547L4.44046 17.4505L5.95504 12.5866C5.96337 12.5648 5.99653 12.5304 6.06001 12.5229L6.06001 12.5229L6.0625 12.5226L11.4049 11.7983L11.4053 11.7982C11.4589 11.7908 11.4997 11.8072 11.5217 11.83L11.5275 11.836L11.5339 11.8413C11.5415 11.8476 11.548 11.8573 11.5511 11.8676C11.5541 11.8774 11.5528 11.8834 11.5517 11.886L11.5513 11.8858L11.5477 11.8974L8.94745 20.2645C8.93641 20.2897 8.91952 20.31 8.89592 20.3236C8.86333 20.3181 8.83528 20.3182 8.81774 20.3182C8.81609 20.3182 8.81453 20.3182 8.81307 20.3182C8.76887 20.3182 8.74832 20.3085 8.74049 20.302ZM4.73569 17.336L4.7021 17.4442L4.79702 17.5061L8.57807 19.9713L8.74435 20.0797L8.80324 19.8901L11.1913 12.2024L11.261 11.9781L11.0281 12.0092L6.28267 12.6446L6.18771 12.6573L6.15932 12.7488L4.73569 17.336Z" fill="#0F0F0F" stroke="#0F0F0F" stroke-width="0.3"/>
<path d="M13.6099 5.34075L13.6099 5.34075L13.6103 5.33931C13.8118 4.67032 14.6695 4.22245 15.5315 4.41325C16.3919 4.60372 16.8555 5.30874 16.6457 5.96177L16.6453 5.96311L9.95573 27.4759L9.95534 27.4772C9.75386 28.1462 8.89618 28.5941 8.03422 28.4033L8.03227 28.4029C7.17286 28.2245 6.69511 27.5071 6.90467 26.8548L6.90505 26.8536L9.30838 19.1532L9.30844 19.153L11.2066 13.0411L11.2066 13.0409L13.6099 5.34075Z" fill="#FFD954" stroke="#0F0F0F" stroke-width="0.3"/>
<path d="M9.98193 27.5142L9.98184 27.5145C9.75423 28.2412 8.86883 28.6577 8.04694 28.4805C7.20593 28.3024 6.66161 27.5709 6.89412 26.8279L9.98193 27.5142ZM9.98193 27.5142L16.6715 6.00141L16.6719 6.00012C16.7768 5.65175 16.7238 5.27313 16.4973 4.95498C16.2737 4.64078 15.9325 4.43145 15.5172 4.34858C15.3851 4.32121 15.2526 4.30745 15.1199 4.30745C14.4148 4.30745 13.7603 4.70265 13.5832 5.31664L6.89421 26.8276L9.98193 27.5142ZM7.95833 28.6322L7.95653 28.6318C6.94441 28.4158 6.38758 27.5836 6.62956 26.8025L13.3343 5.28991L13.3343 5.2899C13.54 4.62977 14.2662 4.15 15.1199 4.15C15.2809 4.15 15.4376 4.16217 15.5919 4.19713L15.5929 4.19733C16.0825 4.30491 16.477 4.55376 16.7281 4.90111C16.9772 5.24569 17.0437 5.64121 16.9211 6.02566L16.9208 6.0266L10.216 27.5394L10.2159 27.5394L10.2151 27.5422C10.0242 28.1987 9.30101 28.6793 8.43037 28.6793C8.26939 28.6793 8.11272 28.6672 7.95833 28.6322Z" fill="#0F0F0F" stroke="#0F0F0F" stroke-width="0.3"/>
<path d="M30.6114 20.4554L33.7189 21.1162" stroke="#0F0F0F" stroke-width="0.3"/>
<path d="M33.6997 21.1937L33.6872 21.1885L33.6736 21.1856L30.5661 20.5248L30.5662 20.5247L30.5595 20.5236C30.5201 20.517 30.5002 20.4998 30.4907 20.4857C30.4808 20.4711 30.476 20.4511 30.4818 20.4271C30.4848 20.4145 30.4959 20.3962 30.5247 20.382C30.5535 20.3678 30.5936 20.3617 30.6365 20.3724L30.6364 20.3724L30.6415 20.3735L33.749 21.0343L33.749 21.0344L33.7556 21.0355C33.795 21.0421 33.8149 21.0593 33.8244 21.0734C33.8341 21.0876 33.8389 21.1069 33.8338 21.1301C33.8246 21.1614 33.7915 21.195 33.719 21.195C33.7117 21.195 33.708 21.1949 33.7041 21.1945C33.7011 21.1941 33.6998 21.1937 33.6997 21.1937Z" fill="#0F0F0F" stroke="#0F0F0F" stroke-width="0.3"/>
<path d="M10.9562 24.7757L20.9369 24.0514" stroke="#0F0F0F" stroke-width="0.3"/>
<path d="M20.9171 23.9724L20.9171 23.9724L20.9187 23.9723C20.9635 23.9686 21.0025 23.9802 21.0285 23.9973C21.0542 24.0143 21.062 24.0321 21.0635 24.0441C21.0652 24.0584 21.0611 24.0753 21.0446 24.0924C21.0278 24.11 20.998 24.127 20.9557 24.1307C20.9555 24.1307 20.9553 24.1307 20.9551 24.1308L10.9815 24.8545H10.9814H10.9813H10.9812H10.9811H10.981H10.981H10.9809H10.9808H10.9807H10.9806H10.9805H10.9804H10.9803H10.9802H10.9802H10.9801H10.98H10.9799H10.9798H10.9797H10.9796H10.9795H10.9795H10.9794H10.9793H10.9792H10.9791H10.979H10.9789H10.9788H10.9788H10.9787H10.9786H10.9785H10.9784H10.9783H10.9782H10.9782H10.9781H10.978H10.9779H10.9778H10.9777H10.9776H10.9775H10.9775H10.9774H10.9773H10.9772H10.9771H10.977H10.9769H10.9769H10.9768H10.9767H10.9766H10.9765H10.9764H10.9764H10.9763H10.9762H10.9761H10.976H10.9759H10.9758H10.9758H10.9757H10.9756H10.9755H10.9754H10.9753H10.9753H10.9752H10.9751H10.975H10.9749H10.9748H10.9748H10.9747H10.9746H10.9745H10.9744H10.9743H10.9743H10.9742H10.9741H10.974H10.9739H10.9738H10.9738H10.9737H10.9736H10.9735H10.9734H10.9734H10.9733H10.9732H10.9731H10.973H10.9729H10.9729H10.9728H10.9727H10.9726H10.9725H10.9725H10.9724H10.9723H10.9722H10.9721H10.9721H10.972H10.9719H10.9718H10.9717H10.9717H10.9716H10.9715H10.9714H10.9713H10.9713H10.9712H10.9711H10.971H10.971H10.9709H10.9708H10.9707H10.9706H10.9706H10.9705H10.9704H10.9703H10.9703H10.9702H10.9701H10.97H10.97H10.9699H10.9698H10.9697H10.9696H10.9696H10.9695H10.9694H10.9693H10.9693H10.9692H10.9691H10.969H10.969H10.9689H10.9688H10.9687H10.9687H10.9686H10.9685H10.9685H10.9684H10.9683H10.9682H10.9682H10.9681H10.968H10.9679H10.9679H10.9678H10.9677H10.9677H10.9676H10.9675H10.9674H10.9674H10.9673H10.9672H10.9672H10.9671H10.967H10.9669H10.9669H10.9668H10.9667H10.9667H10.9666H10.9665H10.9665H10.9664H10.9663H10.9662H10.9662H10.9661H10.966H10.966H10.9659H10.9658H10.9658H10.9657H10.9656H10.9656H10.9655H10.9654H10.9654H10.9653H10.9652H10.9652H10.9651H10.965H10.965H10.9649H10.9648H10.9648H10.9647H10.9646H10.9646H10.9645H10.9645H10.9644H10.9643H10.9643H10.9642H10.9641H10.9641H10.964H10.964H10.9639H10.9638H10.9638H10.9637H10.9636H10.9636H10.9635H10.9635H10.9634H10.9633H10.9633H10.9632H10.9632H10.9631H10.963H10.963H10.9629H10.9629H10.9628H10.9627H10.9627H10.9626H10.9626H10.9625H10.9625H10.9624H10.9623H10.9623H10.9622H10.9622H10.9621H10.9621H10.962H10.962H10.9619H10.9618H10.9618H10.9617H10.9617H10.9616H10.9616H10.9615H10.9615H10.9614H10.9614H10.9613H10.9612H10.9612H10.9611H10.9611H10.961H10.961H10.9609H10.9609H10.9608H10.9608H10.9607H10.9607H10.9606H10.9606H10.9605H10.9605H10.9604H10.9604H10.9603H10.9603H10.9602H10.9602H10.9602H10.9601H10.9601H10.96H10.96H10.9599H10.9599H10.9598H10.9598H10.9597H10.9597H10.9596H10.9596H10.9596H10.9595H10.9595H10.9594H10.9594H10.9593H10.9593H10.9593H10.9592H10.9592H10.9591H10.9591H10.959H10.959H10.959H10.9589H10.9589H10.9588H10.9588H10.9588H10.9587H10.9587H10.9586H10.9586H10.9586H10.9585H10.9585H10.9585H10.9584H10.9584H10.9583H10.9583H10.9583H10.9582H10.9582H10.9582H10.9581H10.9581H10.9581H10.958H10.958H10.958H10.9579H10.9579H10.9579H10.9578H10.9578H10.9578H10.9577H10.9577H10.9577H10.9576H10.9576H10.9576H10.9576H10.9575H10.9575H10.9575H10.9574H10.9574H10.9574H10.9574H10.9573H10.9573H10.9573H10.9572H10.9572H10.9572H10.9572H10.9571H10.9571H10.9571H10.9571H10.957H10.957H10.957H10.957H10.957H10.9569H10.9569H10.9569H10.9569H10.9568H10.9568H10.9568H10.9568H10.9568H10.9567H10.9567H10.9567H10.9567H10.9567H10.9566H10.9566H10.9566H10.9566H10.9566H10.9566H10.9565H10.9565H10.9565H10.9565H10.9565H10.9565H10.9564H10.9564H10.9564H10.9564H10.9564H10.9564H10.9564H10.9564H10.9563H10.9563H10.9563H10.9563H10.9563H10.9563H10.9563H10.9563H10.9563H10.9563H10.9562H10.9562H10.9562H10.9562H10.9562H10.9562H10.9562H10.9562H10.9562H10.9562H10.9562H10.9562H10.9562H10.9562H10.9562H10.9562H10.9561H10.9561H10.9561H10.9561H10.9561H10.9561H10.9561H10.9561C10.8709 24.8545 10.8328 24.8013 10.8294 24.7821C10.828 24.768 10.8324 24.7516 10.8484 24.7349C10.8652 24.7173 10.895 24.7003 10.9373 24.6966C10.9375 24.6966 10.9377 24.6966 10.9379 24.6966L20.9171 23.9724Z" fill="#0F0F0F" stroke="#0F0F0F" stroke-width="0.3"/>
<path d="M22.8351 23.9119L26.1569 23.6705" stroke="#0F0F0F" stroke-width="0.3"/>
<path d="M26.1219 23.5913L26.1219 23.5913L26.1234 23.5912C26.1683 23.5875 26.2072 23.5991 26.2332 23.6162C26.259 23.6332 26.2668 23.651 26.2682 23.6629C26.2699 23.6773 26.2658 23.6941 26.2494 23.7113C26.2326 23.7289 26.2027 23.746 26.1604 23.7496L22.8603 23.9906H22.8602H22.8602H22.8601H22.8601H22.86H22.86H22.8599H22.8598H22.8598H22.8597H22.8597H22.8596H22.8596H22.8595H22.8595H22.8594H22.8593H22.8593H22.8592H22.8592H22.8591H22.859H22.859H22.8589H22.8589H22.8588H22.8588H22.8587H22.8586H22.8586H22.8585H22.8585H22.8584H22.8583H22.8583H22.8582H22.8581H22.8581H22.858H22.858H22.8579H22.8578H22.8578H22.8577H22.8576H22.8576H22.8575H22.8575H22.8574H22.8573H22.8573H22.8572H22.8571H22.8571H22.857H22.8569H22.8569H22.8568H22.8567H22.8567H22.8566H22.8566H22.8565H22.8564H22.8564H22.8563H22.8562H22.8561H22.8561H22.856H22.8559H22.8559H22.8558H22.8557H22.8557H22.8556H22.8555H22.8555H22.8554H22.8553H22.8553H22.8552H22.8551H22.8551H22.855H22.8549H22.8548H22.8548H22.8547H22.8546H22.8546H22.8545H22.8544H22.8543H22.8543H22.8542H22.8541H22.8541H22.854H22.8539H22.8538H22.8538H22.8537H22.8536H22.8535H22.8535H22.8534H22.8533H22.8533H22.8532H22.8531H22.853H22.853H22.8529H22.8528H22.8527H22.8527H22.8526H22.8525H22.8524H22.8524H22.8523H22.8522H22.8521H22.8521H22.852H22.8519H22.8518H22.8517H22.8517H22.8516H22.8515H22.8514H22.8514H22.8513H22.8512H22.8511H22.8511H22.851H22.8509H22.8508H22.8507H22.8507H22.8506H22.8505H22.8504H22.8503H22.8503H22.8502H22.8501H22.85H22.8499H22.8499H22.8498H22.8497H22.8496H22.8495H22.8495H22.8494H22.8493H22.8492H22.8491H22.8491H22.849H22.8489H22.8488H22.8487H22.8487H22.8486H22.8485H22.8484H22.8483H22.8483H22.8482H22.8481H22.848H22.8479H22.8478H22.8478H22.8477H22.8476H22.8475H22.8474H22.8473H22.8473H22.8472H22.8471H22.847H22.8469H22.8468H22.8468H22.8467H22.8466H22.8465H22.8464H22.8463H22.8463H22.8462H22.8461H22.846H22.8459H22.8458H22.8458H22.8457H22.8456H22.8455H22.8454H22.8453H22.8452H22.8452H22.8451H22.845H22.8449H22.8448H22.8447H22.8446H22.8446H22.8445H22.8444H22.8443H22.8442H22.8441H22.844H22.844H22.8439H22.8438H22.8437H22.8436H22.8435H22.8434H22.8434H22.8433H22.8432H22.8431H22.843H22.8429H22.8428H22.8427H22.8427H22.8426H22.8425H22.8424H22.8423H22.8422H22.8421H22.842H22.842H22.8419H22.8418H22.8417H22.8416H22.8415H22.8414H22.8413H22.8413H22.8412H22.8411H22.841H22.8409H22.8408H22.8407H22.8406H22.8405H22.8405H22.8404H22.8403H22.8402H22.8401H22.84H22.8399H22.8398H22.8397H22.8397H22.8396H22.8395H22.8394H22.8393H22.8392H22.8391H22.839H22.8389H22.8389H22.8388H22.8387H22.8386H22.8385H22.8384H22.8383H22.8382H22.8381H22.8381H22.838H22.8379H22.8378H22.8377H22.8376H22.8375H22.8374H22.8373H22.8373H22.8372H22.8371H22.837H22.8369H22.8368H22.8367H22.8366H22.8365H22.8364H22.8364H22.8363H22.8362H22.8361H22.836H22.8359H22.8358H22.8357H22.8356H22.8356H22.8355H22.8354H22.8353H22.8352H22.8351C22.7499 23.9906 22.7117 23.9373 22.7084 23.9181C22.707 23.9041 22.7114 23.8876 22.7273 23.8709C22.7441 23.8533 22.7739 23.8363 22.8163 23.8327L26.1219 23.5913Z" fill="#0F0F0F" stroke="#0F0F0F" stroke-width="0.3"/>
</svg>
