<svg width="40" height="40" viewBox="0 0 40 40" fill="none" xmlns="http://www.w3.org/2000/svg">
<path d="M13 19C11.8 14.2 15.5 11.3334 17.5 10.5C21.1 9.70003 22.6667 10.5 23 11C24.5 11.6667 27.3 14.1 26.5 18.5C25.7 22.9 22.5 24 21 24C18.8333 24.3334 14.2 23.8 13 19Z" fill="#FFD954"/>
<path d="M27.2083 9.11714L24.7643 11.561C23.2925 10.2927 21.3861 9.64456 19.4462 9.75305C17.5063 9.86155 15.6841 10.7182 14.3628 12.1428C13.0416 13.5674 12.3244 15.4489 12.3621 17.3914C12.3998 19.334 13.1894 21.1863 14.5649 22.5585C15.9404 23.9308 17.7945 24.7161 19.7371 24.7493C21.6798 24.7825 23.5596 24.0609 24.9811 22.7364C26.4026 21.4119 27.255 19.5877 27.359 17.6475C27.463 15.7074 26.8105 13.8025 25.5387 12.3336L27.9816 9.89058L30.654 10.5587C30.7456 10.5816 30.8416 10.5804 30.9326 10.5552C31.0237 10.53 31.1066 10.4816 31.1734 10.4148L35.2608 6.32808C35.334 6.25484 35.385 6.16231 35.4077 6.06125C35.4304 5.96019 35.4239 5.85476 35.389 5.75723C35.3542 5.6597 35.2923 5.57407 35.2107 5.51033C35.129 5.44658 35.031 5.40733 34.9279 5.39714L31.9927 5.10683L31.7024 2.17167C31.6922 2.06859 31.6529 1.97053 31.5892 1.88889C31.5254 1.80725 31.4398 1.7454 31.3423 1.71052C31.2447 1.67565 31.1393 1.66918 31.0382 1.69189C30.9372 1.7146 30.8447 1.76554 30.7714 1.83878L26.684 5.92628C26.6172 5.99306 26.5689 6.07598 26.5437 6.16699C26.5185 6.25799 26.5173 6.35397 26.5402 6.44558L27.2083 9.11714ZM26.4323 17.2393C26.4346 18.7365 25.9256 20.1897 24.9896 21.3584C24.0536 22.527 22.7467 23.341 21.285 23.6658C19.8234 23.9905 18.2947 23.8064 16.9519 23.1441C15.6091 22.4817 14.5327 21.3807 13.9008 20.0233C13.2689 18.6659 13.1194 17.1334 13.4771 15.6795C13.8347 14.2256 14.678 12.9373 15.8675 12.0279C17.057 11.1185 18.5213 10.6425 20.0181 10.6786C21.515 10.7148 22.9546 11.2609 24.0988 12.2266L21.6865 14.6389C21.0344 14.1828 20.2349 13.9879 19.446 14.0925C18.6572 14.1971 17.9362 14.5938 17.4255 15.2041C16.9148 15.8144 16.6516 16.594 16.6877 17.389C16.7239 18.184 17.0568 18.9365 17.6208 19.498C18.1847 20.0594 18.9387 20.389 19.7338 20.4216C20.5289 20.4542 21.3074 20.1875 21.9154 19.6741C22.5235 19.1607 22.9169 18.438 23.018 17.6487C23.1192 16.8593 22.9206 16.0607 22.4616 15.4107L24.873 13C25.8804 14.1827 26.4333 15.6856 26.4323 17.2393ZM22.1063 17.2393C22.1068 17.7333 21.9439 18.2137 21.6429 18.6055C21.3419 18.9973 20.9198 19.2786 20.4423 19.4054C19.9648 19.5323 19.4588 19.4976 19.003 19.3069C18.5473 19.1161 18.1674 18.78 17.9227 18.3508C17.6779 17.9216 17.582 17.4235 17.6498 16.9342C17.7177 16.4448 17.9455 15.9916 18.2978 15.6452C18.6501 15.2988 19.1071 15.0787 19.5976 15.0192C20.088 14.9596 20.5844 15.064 21.0094 15.316L19.4719 16.8535C19.3693 16.956 19.3117 17.0951 19.3117 17.2402C19.3117 17.3852 19.3693 17.5243 19.4719 17.6269C19.5744 17.7295 19.7136 17.7871 19.8586 17.7871C20.0036 17.7871 20.1428 17.7295 20.2453 17.6269L21.7855 16.0867C21.9958 16.4344 22.1068 16.8329 22.1063 17.2393ZM30.6188 9.42277L28.8836 8.98902L31.6961 6.17652L33.67 6.37183L30.6188 9.42277ZM30.7277 3.42902L30.923 5.40277L28.1105 8.21527L27.6766 6.48003L30.7277 3.42902Z" fill="#0F0F0F"/>
<path d="M12.7278 25.1238C13.405 25.7521 13.9447 26.5138 14.3129 27.361C14.6811 28.2082 14.8698 29.1225 14.8672 30.0462V35.1003C14.8678 35.6375 15.0815 36.1526 15.4613 36.5324C15.8412 36.9123 16.3562 37.126 16.8934 37.1266H19.423V38.6796C19.423 38.804 19.4724 38.9232 19.5603 39.0111C19.6482 39.099 19.7675 39.1484 19.8918 39.1484C20.0161 39.1484 20.1353 39.099 20.2232 39.0111C20.3112 38.9232 20.3605 38.804 20.3605 38.6796V37.1266H22.8901C23.4274 37.126 23.9424 36.9123 24.3223 36.5325C24.7022 36.1526 24.9159 35.6376 24.9165 35.1003V30.039C24.9233 29.105 25.1216 28.1824 25.4992 27.3281C25.8768 26.4738 26.4256 25.7061 27.1118 25.0724C28.2098 24.0485 29.0778 22.8031 29.6586 21.4186C30.2394 20.0342 30.5197 18.5422 30.4809 17.0414C30.4268 14.7845 29.6456 12.6053 28.2535 10.8281C28.2157 10.7795 28.1687 10.7388 28.1151 10.7084C28.0616 10.678 28.0026 10.6584 27.9415 10.6508C27.8804 10.6432 27.8184 10.6477 27.759 10.664C27.6997 10.6804 27.6441 10.7083 27.5955 10.7461C27.5469 10.784 27.5063 10.831 27.4759 10.8846C27.4455 10.9381 27.426 10.9971 27.4184 11.0582C27.4108 11.1193 27.4153 11.1813 27.4317 11.2407C27.4481 11.3001 27.476 11.3556 27.5139 11.4042C28.7824 13.0234 29.4943 15.0089 29.5437 17.0653C29.5789 18.4334 29.3234 19.7933 28.7939 21.0552C28.2644 22.3171 27.4731 23.4523 26.4723 24.3856C25.0145 25.7368 24.128 27.5938 23.9941 29.577H15.7896C15.6751 27.6131 14.8051 25.7697 13.3619 24.4328C11.9295 23.1177 10.9275 21.4006 10.4873 19.5065C10.047 17.6123 10.189 15.6294 10.8945 13.8173C11.6001 12.0051 12.8364 10.4483 14.4416 9.35056C16.0467 8.25283 17.946 7.66537 19.8906 7.6651C19.9209 7.6651 19.9512 7.6651 19.9815 7.6651C22.0348 7.68035 24.0287 8.35606 25.6683 9.59229C25.7677 9.66688 25.8927 9.69891 26.0158 9.68133C26.1389 9.66375 26.2499 9.59799 26.3245 9.49854C26.3991 9.39908 26.4311 9.27407 26.4136 9.151C26.396 9.02793 26.3302 8.91688 26.2308 8.84229C24.4315 7.48594 22.2435 6.74466 19.9903 6.72807C19.9571 6.72776 19.9239 6.7276 19.8908 6.7276C17.7572 6.72776 15.6734 7.37219 13.9123 8.57651C12.1511 9.78082 10.7946 11.4889 10.0205 13.4771C9.24636 15.4652 9.09064 17.6408 9.57371 19.719C10.0568 21.7971 11.1561 23.681 12.7278 25.1238ZM22.8899 36.1891H16.8932C16.6046 36.1887 16.3279 36.0739 16.1238 35.8698C15.9198 35.6656 15.805 35.3889 15.8047 35.1003V34.8992H21.1759C21.3002 34.8992 21.4194 34.8499 21.5073 34.7619C21.5952 34.674 21.6446 34.5548 21.6446 34.4305C21.6446 34.3062 21.5952 34.1869 21.5073 34.099C21.4194 34.0111 21.3002 33.9617 21.1759 33.9617H15.8047V32.6718H17.1262C17.2505 32.6718 17.3697 32.6224 17.4576 32.5345C17.5455 32.4466 17.5949 32.3274 17.5949 32.2031C17.5949 32.0787 17.5455 31.9595 17.4576 31.8716C17.3697 31.7837 17.2505 31.7343 17.1262 31.7343H15.8047V30.5148H23.9787V31.7343H18.7381C18.6138 31.7343 18.4946 31.7837 18.4067 31.8716C18.3188 31.9595 18.2694 32.0787 18.2694 32.2031C18.2694 32.3274 18.3188 32.4466 18.4067 32.5345C18.4946 32.6224 18.6138 32.6718 18.7381 32.6718H23.9787V33.9616H22.7878C22.6635 33.9616 22.5443 34.011 22.4563 34.0989C22.3684 34.1868 22.3191 34.306 22.3191 34.4303C22.3191 34.5547 22.3684 34.6739 22.4563 34.7618C22.5443 34.8497 22.6635 34.8991 22.7878 34.8991H23.9787V35.1002C23.9785 35.3889 23.8636 35.6657 23.6595 35.8698C23.4554 36.0739 23.1786 36.1888 22.8899 36.1891Z" fill="#0F0F0F"/>
<path d="M20.2615 4.90406C20.3858 4.90406 20.505 4.85468 20.5929 4.76677C20.6808 4.67886 20.7302 4.55963 20.7302 4.43531V1.32031C20.7302 1.19599 20.6808 1.07676 20.5929 0.988856C20.505 0.900949 20.3858 0.851562 20.2615 0.851562C20.1372 0.851562 20.0179 0.900949 19.93 0.988856C19.8421 1.07676 19.7927 1.19599 19.7927 1.32031V4.43531C19.7927 4.55963 19.8421 4.67886 19.93 4.76677C20.0179 4.85468 20.1372 4.90406 20.2615 4.90406Z" fill="#0F0F0F"/>
<path d="M31.6202 15.6953C31.4959 15.6953 31.3766 15.7447 31.2887 15.8326C31.2008 15.9205 31.1514 16.0397 31.1514 16.1641C31.1514 16.2884 31.2008 16.4076 31.2887 16.4955C31.3766 16.5834 31.4959 16.6328 31.6202 16.6328H34.7353C34.8597 16.6328 34.9789 16.5834 35.0668 16.4955C35.1547 16.4076 35.2041 16.2884 35.2041 16.1641C35.2041 16.0397 35.1547 15.9205 35.0668 15.8326C34.9789 15.7447 34.8597 15.6953 34.7353 15.6953H31.6202Z" fill="#0F0F0F"/>
<path d="M5.04782 16.6328H8.16298C8.2873 16.6328 8.40653 16.5834 8.49443 16.4955C8.58234 16.4076 8.63173 16.2884 8.63173 16.1641C8.63173 16.0397 8.58234 15.9205 8.49443 15.8326C8.40653 15.7447 8.2873 15.6953 8.16298 15.6953H5.04782C4.9235 15.6953 4.80427 15.7447 4.71636 15.8326C4.62846 15.9205 4.57907 16.0397 4.57907 16.1641C4.57907 16.2884 4.62846 16.4076 4.71636 16.4955C4.80427 16.5834 4.9235 16.6328 5.04782 16.6328Z" fill="#0F0F0F"/>
<path d="M11.0386 7.97392C11.1265 8.06183 11.2457 8.11123 11.3701 8.11123C11.4944 8.11124 11.6136 8.06186 11.7015 7.97396C11.7895 7.88605 11.8388 7.76682 11.8389 7.6425C11.8389 7.51817 11.7895 7.39894 11.7016 7.31103L9.27079 4.88016C9.18288 4.79225 9.06364 4.74286 8.93931 4.74286C8.81498 4.74286 8.69574 4.79225 8.60783 4.88016C8.51991 4.96808 8.47052 5.08732 8.47052 5.21165C8.47052 5.33598 8.51991 5.45522 8.60783 5.54313L11.0386 7.97392Z" fill="#0F0F0F"/>
</svg>
