<svg width="21" height="17" viewBox="0 0 21 17" fill="none" xmlns="http://www.w3.org/2000/svg">
<path d="M18.9375 0.85H2.06251C1.05072 0.85 0.225 1.66287 0.225 2.66668V14.3334C0.225 15.3371 1.05073 16.15 2.06251 16.15H18.9375C19.9493 16.15 20.775 15.3371 20.775 14.3333V2.66668C20.775 1.66287 19.9493 0.85 18.9375 0.85ZM9.9871 8.96207C8.37934 7.53147 3.93652 3.51838 2.23779 1.98332H18.7619C17.063 3.51875 12.6205 7.53164 11.0125 8.96246C10.8919 9.06981 10.7126 9.18332 10.5 9.18332C10.2876 9.18332 10.1082 9.06984 9.9871 8.96207ZM7.72819 8.46664C5.66254 10.2298 2.6327 13.0573 1.36874 14.2454V2.73146C2.62396 3.86595 5.65722 6.60599 7.72819 8.46664ZM12.4171 9.23343C14.4322 10.9445 17.4747 13.7812 18.7898 15.0167H2.21026C3.52509 13.7815 6.56792 10.9447 8.58295 9.23345C8.82458 9.44983 9.04469 9.64659 9.2227 9.805C9.59493 10.1369 10.0367 10.3167 10.5 10.3167C10.9633 10.3167 11.405 10.1369 11.7768 9.80549C11.9549 9.64697 12.1752 9.45 12.4171 9.23343ZM19.6313 14.2453C18.367 13.0569 15.3375 10.2296 13.2719 8.46667C15.3429 6.606 18.3758 3.86614 19.6313 2.73139V14.2453Z" fill="#767676" stroke="#767676" stroke-width="0.3"/>
</svg>
