<svg width="22" height="22" viewBox="0 0 22 22" fill="none" xmlns="http://www.w3.org/2000/svg">
<path d="M16.8416 21.1999C17.3874 21.2022 17.9309 21.1311 18.4578 20.9884L18.4595 20.9879C19.102 20.8074 19.6496 20.3848 19.9877 19.8087C19.9879 19.8083 19.9881 19.8079 19.9884 19.8076L21.0032 18.1175C21.0032 18.1175 21.0032 18.1175 21.0032 18.1175C21.3817 17.4874 21.1985 16.6703 20.587 16.2629L16.547 13.5632L16.5464 13.5628C15.9465 13.1652 15.1425 13.2962 14.6992 13.8633L14.6988 13.8639L13.5219 15.3801L13.5219 15.3801L13.5205 15.382C13.4293 15.5025 13.2638 15.5372 13.1322 15.464L13.1317 15.4637L12.9078 15.34L12.907 15.3395L12.9014 15.3365C12.175 14.9398 11.2674 14.4441 9.42672 12.599C7.58654 10.7545 7.09051 9.84426 6.69459 9.11778L6.69118 9.11152L6.69102 9.11121L6.56827 8.88689L6.56828 8.88689L6.56716 8.8849C6.49268 8.75241 6.52708 8.58524 6.64745 8.49308L6.64745 8.49308L6.64883 8.49201L8.16098 7.31312L8.16152 7.3127C8.72727 6.86853 8.8578 6.06378 8.4618 5.46309L8.46132 5.46235L7.11413 3.43817L5.76711 1.41424C5.76708 1.41419 5.76705 1.41415 5.76702 1.4141C5.36068 0.801813 4.5453 0.617791 3.916 0.996799C3.91599 0.99681 3.91597 0.996821 3.91595 0.996832L2.22732 2.01324C1.65233 2.35224 1.2306 2.90092 1.05037 3.54433L1.05036 3.54433L1.05006 3.54544C0.736085 4.69175 0.619117 6.22928 1.29733 8.19482C1.97413 10.1562 3.43927 12.534 6.27123 15.372L6.27124 15.372C10.7758 19.8853 14.4759 21.1998 16.8416 21.1999ZM16.8416 21.1999C16.8415 21.1999 16.8413 21.1999 16.8412 21.1999L16.842 20.9999V21.1999C16.8419 21.1999 16.8418 21.1999 16.8416 21.1999ZM20.0871 17.5695L20.0869 17.5698L19.0734 19.2627L19.0722 19.2647C18.8744 19.6039 18.5534 19.8532 18.1765 19.9608C16.2303 20.4958 12.7085 20.102 7.32212 14.7048C1.92956 9.30137 1.46642 6.07528 1.99901 4.12977C2.11546 3.71963 2.3582 3.28037 2.67519 3.09471L2.67519 3.09473L2.67739 3.09341L4.1215 2.22259C4.12165 2.2225 4.12179 2.22241 4.12194 2.22233C4.33709 2.09423 4.50804 2.05176 4.65369 2.06667C4.79293 2.08094 4.93934 2.15079 5.10316 2.31009L6.24198 4.18009L6.24695 4.18826L6.25268 4.19591L7.40045 5.72933C7.45355 5.81175 7.49284 5.92643 7.49859 6.03191C7.50452 6.14067 7.47472 6.19917 7.44206 6.22569L5.90877 7.37796L5.90877 7.37796L5.90729 7.37909C5.65908 7.56926 5.42313 7.82759 5.28745 8.11807C5.15043 8.41142 5.10997 8.75428 5.29052 9.0786L5.63122 9.71902L5.63121 9.71902L5.63211 9.72067C6.06633 10.5187 7.04755 11.9188 8.19058 13.0641L8.19661 13.0702C9.72731 14.604 10.1239 15.0013 11.292 15.7817L12.4436 16.5509L12.4501 16.5552L12.4568 16.559C12.7427 16.7196 13.0972 16.8031 13.4332 16.7818C13.7691 16.7606 14.1087 16.6323 14.3298 16.3432C14.33 16.3429 14.3302 16.3426 14.3304 16.3423L15.3993 14.9694C15.3993 14.9694 15.3993 14.9694 15.3993 14.9693C15.4752 14.8725 15.5985 14.7387 15.7217 14.6489C15.7839 14.6036 15.8348 14.5779 15.8711 14.5681C15.8881 14.5635 15.8972 14.5637 15.9001 14.564C15.9002 14.564 15.9002 14.564 15.9002 14.564L15.9027 14.5655L19.9952 17.1526C20.1314 17.2445 20.1723 17.4279 20.0871 17.5695ZM20.2585 17.6725L19.245 19.3654L20.2585 17.6725Z" fill="#767676" stroke="#767676" stroke-width="0.4"/>
</svg>
