<svg width="70" height="70" viewBox="0 0 70 70" fill="none" xmlns="http://www.w3.org/2000/svg">
<path d="M34.8028 70C33.681 69.4615 32.5592 68.9231 31.4373 68.3846C25.688 65.6923 20.6398 62.0577 16.2927 57.6154C11.6652 52.9039 8.01928 47.3846 5.49518 41.4615C3.53199 36.8846 2.12971 32.3077 1.28834 27.4615C0.306748 22.2115 -0.113935 16.8269 0.0262927 11.5769C0.0262927 10.2308 0.166521 9.01923 0.306748 7.67308C0.446976 7.67308 0.587204 7.67308 0.587204 7.67308C3.11131 7.67308 5.49518 7.67308 8.01928 7.53846C16.7134 7 24.9869 5.11539 32.6994 1.21154C33.4005 0.807692 34.1017 0.403846 34.8028 0C34.943 0 35.0833 0 35.2235 0C40.4119 3.09615 46.1613 4.98077 52.0508 6.19231C57.099 7.26923 62.2875 7.67308 67.4759 7.53846C68.177 7.53846 68.8782 7.53846 69.7195 7.53846C69.8598 8.88461 70 10.2308 70 11.4423C70 14 70 16.4231 69.8598 18.9808C69.1586 28.4038 66.915 37.4231 62.4277 45.7692C57.2393 55.4615 49.5267 62.8654 39.4303 67.9808C38.028 68.6538 36.6258 69.3269 35.0833 70C34.943 70 34.943 70 34.8028 70ZM5.19644 12.3776C5.19644 14.8006 5.19644 16.8269 5.33667 18.9808C5.4769 22.0769 5.89758 25.1731 6.59872 28.1346C7.58031 33.1154 9.26305 37.9615 11.6469 42.4038C14.3113 47.6538 17.9572 52.3654 22.4445 56.4038C26.2306 59.7692 30.1753 62.0648 34.8028 64.084C34.943 64.084 35.0833 64.084 35.2235 64.084C36.2051 63.5455 37.1867 63.1417 38.1683 62.6032C43.7774 59.6417 48.4232 56 52.4898 51.1538C56.5564 46.3077 59.361 40.7885 61.4644 34.8654C63.708 28.2692 64.6896 21.6731 64.6896 14.8077C64.6896 13.8654 64.6896 13.1852 64.6896 12.2429C64.4092 12.2429 64.2689 12.2429 64.1287 12.2429C62.0253 12.1083 60.184 12.1083 58.2209 11.9737C55.6968 11.7045 53.0324 11.4352 50.5083 10.8968C45.1797 9.81986 39.9912 8.06986 35.2235 5.64679C34.943 5.51217 34.8028 5.51217 34.5223 5.64679C32.6994 6.45448 30.9984 7.39679 29.0352 8.20448C22.3042 10.7622 18.8764 11.7978 10.4869 12.191C7.86517 12.3776 6.17804 12.3776 5.19644 12.3776Z" fill="#AFCA0B"/>
<path d="M16.2744 31.7692C17.256 30.8269 18.3595 29.7571 19.3411 28.8147C22.9871 32.3147 26.3708 35.8147 30.157 39.4494C37.3086 32.584 44.0578 25.8532 51.0692 19.1224C52.0508 20.0647 53.2946 21.2692 54.1359 22.0769C46.143 29.75 38.0097 37.5577 30.0167 45.2308C25.5295 40.6538 20.7617 36.2115 16.2744 31.7692Z" fill="#AFCA0B"/>
</svg>
