<svg width="70" height="70" viewBox="0 0 70 70" fill="none" xmlns="http://www.w3.org/2000/svg">
<path d="M36.2947 70C35.4658 70 34.4989 70 33.6701 70C33.5319 70 33.3938 70 33.2556 70C32.1506 69.8618 31.0455 69.8618 29.9404 69.7235C26.3488 69.1705 23.0335 68.0645 19.7183 66.5438C14.0546 63.9171 9.49613 59.9079 6.04272 54.7928C0.931661 47.1891 -0.864116 39.0325 0.379114 29.9082C0.793524 27.1432 1.48421 24.5165 2.5893 21.8898C5.35203 14.9774 9.91055 9.58579 16.1267 5.57661C21.2378 2.25867 26.9014 0.3232 33.1175 0.0467049C36.4328 -0.0915427 39.7481 0.0467049 42.9252 0.876191C51.2134 2.9499 57.9821 7.37383 63.0932 14.148C67.0991 19.4014 69.3093 25.4843 69.8619 31.9819C69.8619 32.3966 70 32.9496 70 33.3644C70 34.4704 70 35.4381 70 36.5441C70 36.6823 70 36.8206 70 36.8206C69.8619 37.6501 69.8619 38.4795 69.7237 39.309C69.3093 42.4887 68.6186 45.5302 67.3754 48.2951C63.922 56.59 58.1202 62.6729 49.9702 66.5438C46.1024 68.341 42.0964 69.447 37.9523 69.7235C37.3997 70 36.8472 70 36.2947 70ZM29.1115 58.1107C28.9734 58.1107 28.9734 58.1107 29.1115 58.1107C28.9734 58.1107 28.9734 58.1107 28.8353 58.1107C25.7963 56.8665 23.3098 55.0693 21.3759 52.3043C19.9945 50.3688 19.1657 48.1569 19.0276 45.8067C18.8894 42.7652 19.5801 39.862 21.0996 37.2353C22.3428 34.7469 23.8624 32.3966 25.2437 30.0464C25.6581 29.3552 25.6581 29.3552 25.1056 28.8022C20.9615 24.6548 16.8174 20.6456 12.8114 16.4982C12.6733 16.3599 12.5351 16.3599 12.5351 16.2217C7.56222 21.7516 4.1088 31.2907 6.31899 41.521C8.80545 52.8573 17.7843 61.4286 28.559 63.7789C37.9523 65.8526 46.5168 63.6406 53.9761 57.696C52.1804 55.8987 50.3846 54.2398 48.727 52.4426C46.5168 55.3458 43.6159 57.4195 40.1625 58.5254C40.3006 58.3872 40.4387 58.249 40.5769 58.1107C42.2345 56.8665 43.3396 55.0693 43.8922 53.1338C44.4447 51.6131 44.4447 49.9541 44.4447 48.2951C44.4447 48.1569 44.3066 48.0186 44.3066 47.8804C43.6159 47.1891 42.9252 46.4979 42.2345 45.8067C42.0964 45.6684 42.0964 45.6684 41.9583 45.5302C42.2345 48.5716 42.2345 51.4748 40.0243 53.9633C40.0243 53.825 40.0243 53.825 40.0243 53.6868C40.3006 52.3043 40.3006 50.7836 39.8862 49.4011C39.4718 47.7421 38.7811 46.3597 37.8142 44.8389C36.7091 42.9035 35.0514 41.3827 33.5319 40.0003C33.3938 39.862 33.3938 39.862 33.2556 39.862C33.2556 40.0003 33.2556 40.1385 33.1175 40.2768C33.1175 40.8298 32.9794 41.3827 32.9794 41.7975C32.9794 43.4565 32.565 44.9772 31.8743 46.4979C31.3217 47.7421 30.7692 48.8481 30.2166 50.0923C29.6641 51.4748 29.526 52.8573 29.9404 54.378C29.9404 54.378 29.9404 54.378 29.9404 54.5163C29.8022 54.378 29.6641 54.378 29.6641 54.2398C29.2497 53.6868 28.8353 53.1338 28.4209 52.5808C27.3158 50.5071 27.3158 48.4334 28.1446 46.2214C28.559 44.9772 29.2497 43.733 29.9404 42.627C31.0455 40.6915 31.8743 38.756 32.2887 36.5441C32.2887 36.4058 32.2887 36.2676 32.2887 36.2676C31.8743 35.8528 31.3217 35.2998 30.9073 34.8851C30.9073 35.0234 30.9073 35.0234 30.9073 35.1616C30.7692 36.6823 30.2166 38.0648 29.6641 39.4473C28.8353 41.1062 28.0064 42.7652 27.1776 44.4242C26.3488 46.2214 25.52 47.8804 25.52 49.9541C25.52 50.9218 25.3819 51.8896 25.6581 52.719C26.0725 54.5163 27.0395 56.1752 28.4209 57.4195C28.559 57.5577 28.8353 57.8342 29.1115 58.1107ZM57.5677 53.9633C66.6847 43.4565 67.5135 25.4843 55.4956 13.8715C43.754 2.39691 26.0725 3.64114 16.1267 12.489C20.1327 16.3599 24.0005 20.3691 28.0065 24.24C29.3878 19.4014 29.6641 14.5627 29.6641 9.58579C30.2166 9.86229 30.7692 10.1388 31.1836 10.4153C34.0845 12.2125 36.4328 14.4245 38.643 17.0512C40.9913 19.9544 42.2345 23.2723 42.2345 27.1432C42.2345 29.9082 41.8201 32.6731 40.9913 35.2998C40.8532 35.5763 40.8532 35.9911 40.715 36.4058C40.715 36.4058 40.715 36.4058 40.8532 36.4058C43.3396 33.9174 44.721 30.7377 44.8591 27.005C44.9973 27.1432 44.9973 27.2815 45.1354 27.2815C47.0693 30.4612 48.5888 33.6409 49.6939 37.2353C50.2465 39.0325 50.6609 40.6915 50.799 42.627C50.9371 44.1477 50.799 45.5302 50.9371 47.0509C50.9371 47.1891 51.0753 47.4656 51.2134 47.6039C53.2855 49.6776 55.3575 51.7513 57.4296 53.825C57.4296 53.825 57.5677 53.825 57.5677 53.9633Z" fill="#AFCA0B"/>
</svg>
