<svg width="70" height="70" viewBox="0 0 70 70" fill="none" xmlns="http://www.w3.org/2000/svg">
<path d="M34.9996 53.3482C28.5238 53.3482 22.819 48.2601 21.5855 41.3217C21.123 38.3922 21.4313 35.6169 22.6648 32.9958C23.8983 30.2204 25.5943 27.5993 27.4445 25.2865C29.6031 22.357 32.0701 19.5817 34.6912 16.9605C34.9996 16.6522 35.1538 16.6522 35.4622 16.9605C39.1626 20.8151 42.5547 24.824 45.4842 29.4495C46.4093 30.9914 47.1802 32.5332 47.9512 34.2292C49.0305 36.8504 49.1846 39.6257 48.4137 42.401C46.7177 48.4143 43.0172 51.9605 37.4666 53.194C36.5415 53.3482 35.7705 53.3482 34.9996 53.3482Z" fill="#AFCA0B"/>
<path fill-rule="evenodd" clip-rule="evenodd" d="M70 35C70 54.33 54.33 70 35 70C15.67 70 0 54.33 0 35C0 15.67 15.67 0 35 0C54.33 0 70 15.67 70 35ZM34.9998 65.2687C51.2891 65.2687 64.4942 52.0559 64.4942 35.757C64.4942 19.4582 51.2891 6.24533 34.9998 6.24533C18.7105 6.24533 5.50544 19.4582 5.50544 35.757C5.50544 52.0559 18.7105 65.2687 34.9998 65.2687Z" fill="#AFCA0B"/>
</svg>
