<svg width="70" height="70" viewBox="0 0 70 70" fill="none" xmlns="http://www.w3.org/2000/svg">
<path d="M20.411 57.8958C16.8493 57.8958 13.2877 57.8958 9.58904 57.8958C10.411 56.4375 11.0959 54.9792 11.9178 53.6667C15.4795 53.6667 19.1781 53.6667 22.7397 53.6667C23.8356 51.625 24.9315 49.5833 26.0274 47.5417C22.1918 47.5417 18.4932 47.5417 14.6575 47.5417C16.4384 44.0417 18.3562 40.6875 20.137 37.1875C18.0822 37.1875 16.0274 37.1875 13.9726 37.1875C11.7808 41.4167 9.45205 45.5 7.12329 49.7292C6.9863 49.5833 6.9863 49.4375 6.9863 49.4375C6.30137 48.2708 5.61644 46.9583 4.93151 45.7917C4.79452 45.6458 4.79452 45.5 4.93151 45.2083C6.30137 42.7292 7.67123 40.1042 9.0411 37.625C9.0411 37.4792 9.17808 37.4792 9.17808 37.3333C6.0274 37.3333 3.0137 37.3333 0 37.3333C0 35.875 0 34.4167 0 32.9583C3.0137 32.9583 6.0274 32.9583 9.0411 32.9583C8.49315 31.7917 7.80822 30.7708 7.26027 29.6042C6.71233 28.5833 6.0274 27.4167 5.47945 26.3958C4.93151 25.2292 4.24658 24.2083 3.69863 23.0417C3.83562 23.0417 3.83562 23.0417 3.9726 23.0417C5.34247 23.0417 6.71233 23.0417 8.08219 23.0417C8.35616 23.0417 8.35616 23.1875 8.49315 23.3333C9.86301 25.5208 11.0959 27.8542 12.3288 30.1875C12.7397 31.0625 13.2877 31.9375 13.8356 32.8125C15.8904 32.8125 17.9452 32.8125 20 32.8125C18.2192 29.4583 16.4384 26.1042 14.6575 22.75C15.6164 22.75 16.5753 22.75 17.5342 22.75C18.4932 22.75 19.4521 22.75 20.411 22.75C21.3699 22.75 22.3288 22.75 23.1507 22.75C24.1096 22.75 25.0685 22.75 26.0274 22.75C26.0274 22.6042 25.8904 22.6042 25.8904 22.4583C24.9315 20.5625 23.8356 18.6667 22.8767 16.7708C22.7397 16.625 22.6027 16.4792 22.4658 16.4792C19.0411 16.4792 15.6164 16.4792 12.1918 16.4792C11.9178 16.4792 11.7808 16.4792 11.6438 16.1875C10.9589 15.0208 10.274 13.7083 9.72603 12.5417C9.72603 12.3958 9.58904 12.25 9.45205 12.1042C9.86301 12.1042 10.274 12.1042 10.6849 12.1042C11.0959 12.1042 11.5069 12.1042 11.9178 12.1042C12.3288 12.1042 12.7397 12.1042 13.1507 12.1042C13.5616 12.1042 13.9726 12.1042 14.3836 12.1042C14.7945 12.1042 15.2055 12.1042 15.6164 12.1042C16.0274 12.1042 16.4384 12.1042 16.8493 12.1042C17.2603 12.1042 17.6712 12.1042 18.0822 12.1042C18.4932 12.1042 18.9041 12.1042 19.3151 12.1042C19.726 12.1042 20.137 12.1042 20.5479 12.1042C19.0411 9.33333 17.5342 6.5625 16.0274 3.79167C17.2603 3.0625 18.3562 2.33333 19.589 1.60417C20.8219 4.66667 22.3288 7.4375 23.8356 10.3542C25.3425 7.58333 26.8493 4.8125 28.3562 2.1875C29.863 2.1875 31.5069 2.1875 33.0137 2.1875C30.6849 6.41667 28.4932 10.5 26.1644 14.7292C27.2603 16.625 28.2192 18.5208 29.3151 20.4167C31.2329 16.9167 33.2877 13.4167 35.2055 9.77083C37.1233 13.125 39.0411 16.625 40.8219 19.9792C41.7808 18.0833 42.8767 16.1875 43.8356 14.4375C43.6986 14.1458 43.4247 13.7083 43.2877 13.4167C41.7808 10.5 40.137 7.58333 38.6301 4.66667C38.4932 4.52083 38.4932 4.375 38.6301 4.08333C39.3151 2.91667 40 1.60417 40.6849 0.291667C40.6849 0.145833 40.8219 0.145833 40.8219 0C42.6027 3.35417 44.3836 6.5625 46.1644 9.91667C47.8082 7.29167 49.3151 4.52083 50.8219 1.75C52.0548 2.47917 53.1507 3.20833 54.3836 3.9375C52.8767 6.70833 51.3699 9.625 49.726 12.3958C49.863 12.3958 50 12.3958 50 12.3958C51.9178 12.3958 53.8356 12.3958 55.6164 12.3958C56.5753 12.3958 57.3973 12.3958 58.3562 12.3958C58.4931 12.3958 58.6301 12.3958 58.7671 12.5417C59.4521 13.8542 60.137 15.1667 60.8219 16.4792C60.8219 16.4792 60.8219 16.625 60.9589 16.625C56.4384 16.625 51.9178 16.625 47.3973 16.625C46.3014 18.6667 45.2055 20.7083 44.1096 22.75C48.0822 22.75 51.9178 22.75 55.8904 22.75C55.4795 23.625 54.9315 24.5 54.5205 25.2292C54.1096 26.1042 53.5616 26.8333 53.1507 27.7083C52.7397 28.5833 52.1918 29.3125 51.7808 30.1875C51.3699 31.0625 50.8219 31.7917 50.411 32.6667C52.4658 32.6667 54.3836 32.6667 56.3014 32.6667L56.4384 32.5208C58.2192 29.3125 59.863 26.25 61.6438 23.0417C61.7808 22.8958 61.9178 22.75 62.0548 22.75C63.4247 22.75 64.7945 22.75 66.0274 22.75C66.1644 22.75 66.1644 22.75 66.3014 22.75C64.5205 26.1042 62.7397 29.3125 60.9589 32.6667C63.9726 32.6667 66.9863 32.6667 70 32.6667C70 34.125 70 35.5833 70 37.0417C66.9863 37.0417 63.8356 37.0417 60.8219 37.0417C61.5068 38.5 62.3288 39.8125 63.0137 41.125C63.6986 42.4375 64.5205 43.8958 65.2055 45.2083C64.5205 46.8125 63.6986 48.2708 63.0137 49.7292C63.0137 49.7292 63.0137 49.7292 63.0137 49.5833C60.8219 45.5 58.4931 41.2708 56.3014 37.1875C54.3836 37.1875 52.4658 37.1875 50.411 37.1875C52.3288 40.6875 54.2466 44.0417 56.1644 47.5417C52.1918 47.5417 48.2192 47.5417 44.2466 47.5417C45.3425 49.5833 46.4384 51.625 47.5342 53.5208C52.0548 53.5208 56.5753 53.5208 61.0959 53.5208C60.274 54.9792 59.589 56.4375 58.7671 57.75C55.7534 57.75 52.8767 57.75 49.863 57.75C50.6849 59.2083 51.3699 60.6667 52.1918 61.9792C53.0137 63.4375 53.6986 64.75 54.5205 66.2083C53.2877 66.9375 52.1918 67.6667 50.9589 68.3958C49.4521 65.625 47.9452 62.8542 46.4384 60.0833C44.6575 63.4375 42.8767 66.6458 41.0959 70C40.9589 69.8542 38.9041 66.2083 38.7671 65.7708C40.5479 62.4167 42.3288 59.0625 44.1096 55.8542C43.1507 53.9583 42.1918 52.2083 41.0959 50.4583C41.0959 50.4583 41.0959 50.4583 41.0959 50.6042C39.1781 53.9583 37.3973 57.4583 35.4795 60.8125C33.5616 57.3125 31.6438 53.6667 29.726 50.1667C29.726 50.3125 29.589 50.3125 29.589 50.4583C28.6301 52.0625 27.8082 53.8125 26.8493 55.4167C26.7123 55.5625 26.7123 55.8542 26.8493 56C29.0411 59.9375 31.0959 63.875 33.2877 67.8125C33.2877 67.9583 33.4247 67.9583 33.4247 68.1042C33.2877 68.1042 33.2877 68.1042 33.1507 68.1042C31.7808 68.1042 30.411 68.1042 28.9041 68.1042C28.7671 68.1042 28.6301 67.9583 28.4932 67.8125C27.2603 65.4792 25.8904 63.1458 24.6575 60.8125C24.5205 60.5208 24.3836 60.2292 24.1096 59.9375C22.6027 62.8542 21.0959 65.625 19.4521 68.3958C18.2192 67.6667 17.1233 66.9375 15.8904 66.2083C17.3973 63.4375 18.9041 60.6667 20.411 57.8958ZM35.2055 18.5208C33.9726 20.7083 32.8767 22.75 31.6438 24.7917C32.7397 26.8333 33.8356 28.875 34.9315 30.9167C36.1644 28.7292 37.2603 26.5417 38.4932 24.5C37.3973 22.4583 36.3014 20.5625 35.2055 18.5208ZM38.4932 37.1875C39.589 39.2292 40.6849 41.125 41.6438 43.0208C43.9726 43.0208 46.1644 43.0208 48.4931 43.0208H48.6301C48.6301 42.875 48.4931 42.875 48.4931 42.7292C47.5342 40.9792 46.5753 39.2292 45.4795 37.3333C45.3425 37.1875 45.2055 37.0417 45.0685 37.0417C42.8767 37.0417 40.8219 37.0417 38.6301 37.0417C38.6301 37.1875 38.6301 37.1875 38.4932 37.1875ZM38.4932 45.7917C37.3973 43.75 36.3014 41.5625 35.0685 39.5208C35.0685 39.6667 34.9315 39.6667 34.9315 39.8125C33.9726 41.7083 32.8767 43.6042 31.9178 45.3542C31.7808 45.5 31.7808 45.6458 31.9178 45.7917C33.0137 47.6875 33.9726 49.5833 35.0685 51.4792C35.0685 51.625 35.2055 51.625 35.2055 51.7708C36.3014 49.875 37.3973 47.8333 38.4932 45.7917ZM21.7808 43.0208C21.9178 43.0208 21.9178 43.0208 22.0548 43.0208C24.1096 43.0208 26.1644 43.0208 28.2192 43.0208C28.3562 43.0208 28.4932 42.875 28.6301 42.7292C29.589 40.9792 30.5479 39.0833 31.5068 37.3333C31.5068 37.1875 31.6438 37.1875 31.6438 37.0417C29.4521 37.0417 27.2603 37.0417 24.9315 37.0417C23.9726 39.0833 22.8767 41.125 21.7808 43.0208ZM48.6301 27.2708C48.4932 27.2708 48.4931 27.2708 48.3562 27.2708C46.1644 27.2708 44.1096 27.2708 41.9178 27.2708C41.7808 27.2708 41.6438 27.2708 41.5069 27.4167C40.5479 29.1667 39.726 30.7708 38.7671 32.5208C38.7671 32.5208 38.7671 32.6667 38.6301 32.8125C38.7671 32.8125 38.7671 32.8125 38.7671 32.8125C40.9589 32.8125 43.0137 32.8125 45.2055 32.8125C45.3425 32.8125 45.4795 32.6667 45.6164 32.5208C46.5753 30.9167 47.3973 29.1667 48.3562 27.5625C48.4931 27.5625 48.4932 27.4167 48.6301 27.2708ZM21.7808 27.2708C21.7808 27.4167 21.9178 27.5625 21.9178 27.5625C22.8767 29.1667 23.6986 30.9167 24.6575 32.5208C24.7945 32.6667 24.9315 32.8125 25.0685 32.8125C27.1233 32.8125 29.0411 32.8125 31.0959 32.8125C31.2329 32.8125 31.2329 32.8125 31.3699 32.8125C30.274 30.9167 29.3151 29.0208 28.3562 27.2708C26.1644 27.2708 23.9726 27.2708 21.7808 27.2708Z" fill="#AFCA0B"/>
</svg>
