<svg width="23" height="22" viewBox="0 0 23 22" fill="none" xmlns="http://www.w3.org/2000/svg">
<path d="M22.4729 4.96427C22.3435 4.78077 22.1353 4.66734 21.9091 4.65778L7.88807 4.05972C7.48578 4.0423 7.1496 4.34964 7.13241 4.74588C7.11531 5.14197 7.42538 5.47664 7.82575 5.49366L20.8975 6.05127L18.3274 13.9868H6.88971L4.82333 2.85288C4.7779 2.60886 4.6086 2.40528 4.37511 2.31463L0.990733 0.998919C0.617732 0.854409 0.196828 1.03571 0.0503392 1.40437C-0.0958971 1.77323 0.087265 2.18999 0.460064 2.33495L3.46932 3.5048L5.57216 14.8341C5.63554 15.1747 5.9355 15.4221 6.28559 15.4221H6.63441L5.83788 17.6115C5.77121 17.7949 5.79868 17.9986 5.91213 18.1579C6.02544 18.3173 6.20972 18.4121 6.40643 18.4121H6.96513C6.61893 18.7934 6.40643 19.2954 6.40643 19.8474C6.40643 21.0346 7.38264 22.0004 8.58212 22.0004C9.7816 22.0004 10.7578 21.0346 10.7578 19.8474C10.7578 19.2954 10.5453 18.7934 10.1992 18.4121H14.9427C14.5964 18.7934 14.3839 19.2954 14.3839 19.8474C14.3839 21.0346 15.3599 22.0004 16.5596 22.0004C17.7594 22.0004 18.7353 21.0346 18.7353 19.8474C18.7353 19.2954 18.5229 18.7934 18.1768 18.4121H18.8562C19.19 18.4121 19.4606 18.1443 19.4606 17.8141C19.4606 17.4837 19.19 17.216 18.8562 17.216H7.26635L7.91898 15.4219H18.8561C19.1715 15.4219 19.4506 15.2202 19.5467 14.9233L22.5685 5.59362C22.6379 5.38068 22.6022 5.14787 22.4729 4.96427ZM8.58217 20.8045C8.04887 20.8045 7.61517 20.3754 7.61517 19.8477C7.61517 19.3199 8.04887 18.8908 8.58217 18.8908C9.11547 18.8908 9.54912 19.3199 9.54912 19.8477C9.54912 20.3754 9.11547 20.8045 8.58217 20.8045ZM16.5596 20.8045C16.0263 20.8045 15.5927 20.3754 15.5927 19.8477C15.5927 19.3199 16.0263 18.8908 16.5596 18.8908C17.0929 18.8908 17.5266 19.3199 17.5266 19.8477C17.5266 20.3754 17.0929 20.8045 16.5596 20.8045Z" fill="#353C56"/>
</svg>
