<svg width="408" height="408" viewBox="0 0 408 408" fill="none" xmlns="http://www.w3.org/2000/svg">
<g clip-path="url(#clip0)">
<path d="M161.5 153H25.5C11.441 153 0 141.559 0 127.5V25.5C0 11.441 11.441 0 25.5 0H161.5C175.559 0 187 11.441 187 25.5V127.5C187 141.559 175.559 153 161.5 153ZM25.5 17C20.808 17 17 20.808 17 25.5V127.5C17 132.192 20.808 136 25.5 136H161.5C166.192 136 170 132.192 170 127.5V25.5C170 20.808 166.192 17 161.5 17H25.5Z" fill="#B9D420"/>
<path d="M382.5 408H246.5C232.441 408 221 396.559 221 382.5V25.5C221 11.441 232.441 0 246.5 0H382.5C396.559 0 408 11.441 408 25.5V382.5C408 396.559 396.559 408 382.5 408ZM246.5 17C241.808 17 238 20.808 238 25.5V382.5C238 387.192 241.808 391 246.5 391H382.5C387.192 391 391 387.192 391 382.5V25.5C391 20.808 387.192 17 382.5 17H246.5Z" fill="#B9D420"/>
<path d="M178.5 255H8.5C3.808 255 0 251.192 0 246.5C0 241.808 3.808 238 8.5 238H178.5C183.192 238 187 241.808 187 246.5C187 251.192 183.192 255 178.5 255Z" fill="#B9D420"/>
<path d="M178.5 204H8.5C3.808 204 0 200.192 0 195.5C0 190.808 3.808 187 8.5 187H178.5C183.192 187 187 190.808 187 195.5C187 200.192 183.192 204 178.5 204Z" fill="#B9D420"/>
<path d="M178.5 306H8.5C3.808 306 0 302.192 0 297.5C0 292.808 3.808 289 8.5 289H178.5C183.192 289 187 292.808 187 297.5C187 302.192 183.192 306 178.5 306Z" fill="#B9D420"/>
<path d="M178.5 357H8.5C3.808 357 0 353.192 0 348.5C0 343.808 3.808 340 8.5 340H178.5C183.192 340 187 343.808 187 348.5C187 353.192 183.192 357 178.5 357Z" fill="#B9D420"/>
<path d="M178.5 408H8.5C3.808 408 0 404.192 0 399.5C0 394.808 3.808 391 8.5 391H178.5C183.192 391 187 394.808 187 399.5C187 404.192 183.192 408 178.5 408Z" fill="#B9D420"/>
</g>
<defs>
<clipPath id="clip0">
<rect width="408" height="408" fill="white"/>
</clipPath>
</defs>
</svg>
