<svg width="31" height="31" viewBox="0 0 31 31" fill="none" xmlns="http://www.w3.org/2000/svg">
<path d="M30.0948 24.4011L27.7984 11.4026C27.323 8.71215 24.9951 6.75945 22.2631 6.75945H19.0142C19.5054 6.06123 19.795 5.21145 19.795 4.29477C19.7951 1.92666 17.8683 0 15.5002 0C13.1321 0 11.2054 1.92666 11.2054 4.29483C11.2054 5.21151 11.495 6.06129 11.9862 6.75951H8.73737C6.00537 6.75951 3.6774 8.71221 3.20205 11.4026L0.905627 24.4011C0.615789 26.0418 1.06372 27.7148 2.13443 28.9914C3.2052 30.2679 4.77482 31 6.441 31H24.5595C26.2257 31 27.7953 30.2679 28.8661 28.9914C29.9368 27.7149 30.3846 26.0418 30.0948 24.4011ZM15.5002 1.83015C16.8592 1.83015 17.9649 2.9358 17.9649 4.29483C17.9649 5.65387 16.8592 6.75951 15.5002 6.75951C14.1412 6.75951 13.0355 5.65387 13.0355 4.29483C13.0355 2.9358 14.1412 1.83015 15.5002 1.83015ZM27.4638 27.8152C26.7417 28.6761 25.6832 29.1698 24.5595 29.1698H6.441C5.31738 29.1698 4.25877 28.6761 3.53669 27.8152C2.81461 26.9543 2.51248 25.826 2.70799 24.7195L5.00441 11.721C5.325 9.90662 6.89499 8.5896 8.73743 8.5896H22.2632C24.1057 8.5896 25.6757 9.9065 25.9962 11.7209L28.2926 24.7194C28.4881 25.826 28.1859 26.9543 27.4638 27.8152Z" fill="#B9D420"/>
<path d="M12.4911 18.8795L14.7842 16.5099C15.1356 16.1468 15.1261 15.5675 14.7629 15.2161C14.3997 14.8645 13.8204 14.8742 13.4689 15.2373L10.9044 17.8872V15.8736C10.9044 15.3682 10.4947 14.9585 9.98932 14.9585C9.48394 14.9585 9.07422 15.3682 9.07422 15.8736V21.8854C9.07422 22.3907 9.48394 22.8005 9.98932 22.8005C10.4947 22.8005 10.9044 22.3907 10.9044 21.8854V19.8718L13.4689 22.5217C13.6484 22.7072 13.8873 22.8005 14.1266 22.8005C14.3557 22.8005 14.5852 22.7149 14.7629 22.543C15.1261 22.1915 15.1355 21.6122 14.7842 21.249L12.4911 18.8795Z" fill="#B9D420"/>
<path d="M21.0108 18.2233H19.6371C19.1317 18.2233 18.722 18.633 18.722 19.1384C18.722 19.6438 19.1317 20.0535 19.6371 20.0535H20.0806C19.9934 20.5733 19.5403 20.9707 18.9961 20.9707C18.3898 20.9707 17.8965 20.4774 17.8965 19.8711V17.8887C17.8965 17.2824 18.3898 16.7891 18.9961 16.7891C19.3372 16.7891 19.6534 16.9436 19.8638 17.2131C20.1748 17.6114 20.7498 17.6824 21.1482 17.3714C21.5466 17.0604 21.6175 16.4854 21.3066 16.087C20.747 15.3702 19.9048 14.959 18.9961 14.959C17.3807 14.959 16.0664 16.2733 16.0664 17.8887V19.8712C16.0664 21.4866 17.3807 22.8009 18.9961 22.8009C20.6116 22.8009 21.9259 21.4866 21.9259 19.8712V19.1385C21.9259 18.633 21.5162 18.2233 21.0108 18.2233Z" fill="#B9D420"/>
</svg>
