<svg width="22" height="50" viewBox="0 0 22 50" fill="none" xmlns="http://www.w3.org/2000/svg">
<path d="M12.5625 10.1562H9.4375C7.15909 10.1588 4.97474 11.0651 3.36366 12.6762C1.75257 14.2872 0.846335 16.4716 0.84375 18.75V31.25C0.846256 33.3352 1.60576 35.3486 2.9811 36.916C4.35645 38.4833 6.25407 39.498 8.32129 39.7715C8.42399 39.8195 8.53605 39.8442 8.64941 39.8438H12.5625C14.8409 39.8412 17.0253 38.9349 18.6363 37.3238C20.2474 35.7128 21.1537 33.5284 21.1562 31.25V18.75C21.1537 16.4716 20.2474 14.2872 18.6363 12.6762C17.0253 11.0651 14.8409 10.1588 12.5625 10.1562ZM19.5938 31.25C19.5916 33.1141 18.8501 34.9013 17.532 36.2195C16.2138 37.5376 14.4266 38.2791 12.5625 38.2813H9.4375C7.57336 38.2791 5.78618 37.5376 4.46803 36.2195C3.14987 34.9013 2.4084 33.1141 2.40625 31.25V24.2188H19.5938V31.25ZM19.5938 22.6563H2.40625V18.75C2.4084 16.8859 3.14987 15.0987 4.46803 13.7805C5.78618 12.4624 7.57336 11.7209 9.4375 11.7188H12.5625C14.4266 11.7209 16.2138 12.4624 17.532 13.7805C18.8501 15.0987 19.5916 16.8859 19.5938 18.75V22.6563Z" fill="#B9D420"/>
<path d="M9.4375 21.0938H12.5625C12.7697 21.0938 12.9684 21.0114 13.1149 20.8649C13.2614 20.7184 13.3438 20.5197 13.3438 20.3125V14.0625C13.3438 13.8553 13.2614 13.6566 13.1149 13.5101C12.9684 13.3636 12.7697 13.2812 12.5625 13.2812H9.4375C9.2303 13.2812 9.03159 13.3636 8.88507 13.5101C8.73856 13.6566 8.65625 13.8553 8.65625 14.0625V20.3125C8.65625 20.5197 8.73856 20.7184 8.88507 20.8649C9.03159 21.0114 9.2303 21.0938 9.4375 21.0938ZM10.2188 14.8438H11.7812V19.5312H10.2188V14.8438Z" fill="#B9D420"/>
<path d="M6.3125 8.59375H15.6875C15.8326 8.59375 15.9748 8.55335 16.0982 8.47707C16.2216 8.40079 16.3214 8.29166 16.3863 8.16189C16.4512 8.03211 16.4786 7.88684 16.4656 7.74234C16.4526 7.59784 16.3996 7.45982 16.3125 7.34375L11.625 1.09375C11.5522 0.996722 11.4579 0.917969 11.3494 0.863729C11.2409 0.809488 11.1213 0.78125 11 0.78125C10.8787 0.78125 10.7591 0.809488 10.6506 0.863729C10.5421 0.917969 10.4478 0.996722 10.375 1.09375L5.6875 7.34375C5.60045 7.45982 5.54744 7.59784 5.53441 7.74234C5.52138 7.88684 5.54885 8.03211 5.61373 8.16189C5.67862 8.29166 5.77835 8.40079 5.90177 8.47707C6.02519 8.55335 6.16741 8.59375 6.3125 8.59375ZM11 2.86455L14.125 7.03125H7.875L11 2.86455Z" fill="#B9D420"/>
<path d="M15.6875 41.4062H6.3125C6.16741 41.4062 6.02519 41.4467 5.90177 41.5229C5.77835 41.5992 5.67862 41.7083 5.61373 41.8381C5.54885 41.9679 5.52138 42.1132 5.53441 42.2577C5.54744 42.4022 5.60045 42.5402 5.6875 42.6562L10.375 48.9062C10.4478 49.0033 10.5421 49.082 10.6506 49.1363C10.7591 49.1905 10.8787 49.2188 11 49.2188C11.1213 49.2188 11.2409 49.1905 11.3494 49.1363C11.4579 49.082 11.5522 49.0033 11.625 48.9062L16.3125 42.6562C16.3996 42.5402 16.4526 42.4022 16.4656 42.2577C16.4786 42.1132 16.4512 41.9679 16.3863 41.8381C16.3214 41.7083 16.2216 41.5992 16.0982 41.5229C15.9748 41.4467 15.8326 41.4062 15.6875 41.4062ZM11 47.1354L7.875 42.9688H14.125L11 47.1354Z" fill="#B9D420"/>
</svg>
