<svg width="94" height="128" viewBox="0 0 94 128" fill="none" xmlns="http://www.w3.org/2000/svg">
<path d="M93.9994 120.393C93.9994 120.069 93.9449 119.745 93.836 119.475C93.182 117.91 92.0922 117.1 90.4574 117.1H90.2394C89.0406 117.1 88.0052 116.668 87.1333 115.858C86.2614 114.995 85.88 114.023 85.88 112.781V108.678H89.5855C90.7843 108.678 91.8742 108.354 92.6916 107.76C93.5635 107.166 93.9994 106.411 93.9994 105.601H85.88V101.336C85.88 100.472 85.553 99.7702 84.9536 99.1763C84.3542 98.5825 83.5913 98.2585 82.7739 98.2585V105.709C81.4116 106.033 80.4307 106.681 79.8857 107.598C79.6678 107.922 79.6133 108.3 79.6133 108.678H82.7739V112.997C82.7739 115.426 83.7547 117.37 85.771 118.936C87.0788 119.907 88.5501 120.393 90.2394 120.393H93.9994Z" fill="white"/>
<path d="M74.0566 120.393C74.9285 120.393 75.6369 120.069 76.2364 119.475C76.8358 118.881 77.1627 118.126 77.1627 117.316V105.547C76.2909 105.547 75.5824 105.871 74.983 106.465C74.3836 107.058 74.0566 107.814 74.0566 108.624V120.393Z" fill="white"/>
<path d="M71.7672 120.393V101.336C71.7672 100.472 71.4403 99.7702 70.8409 99.1763C70.2414 98.5825 69.533 98.2585 68.6611 98.2585V117.316C68.6611 118.18 68.9881 118.882 69.5875 119.475C70.1869 120.069 70.8953 120.393 71.7672 120.393Z" fill="white"/>
<path d="M24.6843 120.393C26.5915 120.393 28.3353 119.691 29.9701 118.234C30.842 117.37 31.4414 116.344 31.8229 115.264C31.3324 114.995 30.842 114.887 30.2971 114.887C30.1336 114.887 29.9156 114.941 29.4797 114.941C29.0982 114.995 28.6078 115.264 28.1173 115.75L27.7904 116.074C26.9185 116.938 25.8831 117.37 24.6843 117.37C23.5399 117.37 22.5046 116.938 21.5782 116.074C20.7063 115.156 20.3248 114.131 20.3248 112.997C20.3248 111.863 20.7608 110.837 21.5782 109.92C22.5046 109.056 23.5399 108.624 24.6843 108.624C25.8831 108.624 26.864 109.056 27.7904 109.92L28.1173 110.244C28.7713 110.837 29.4797 111.161 30.3516 111.161C30.8965 111.161 31.3869 110.999 31.8229 110.783C31.4414 109.65 30.842 108.678 29.9701 107.814C28.3353 106.356 26.5915 105.655 24.6843 105.655C22.7225 105.655 20.9243 106.356 19.3985 107.814C17.9272 109.434 17.2188 111.161 17.2188 113.051C17.2188 114.941 17.9272 116.722 19.3985 118.288C20.9243 119.691 22.7225 120.393 24.6843 120.393Z" fill="white"/>
<path d="M51.3867 127.736C52.2586 127.736 52.967 127.412 53.5664 126.818C54.1659 126.224 54.4928 125.468 54.4928 124.658V112.997C54.4928 111.809 54.9288 110.783 55.7462 109.92C56.618 109.056 57.6534 108.624 58.8522 108.624C60.0511 108.624 61.0865 109.056 61.9583 109.92C62.8302 110.783 63.2117 111.755 63.2117 112.997C63.2117 114.185 62.7757 115.211 61.9583 116.074C61.0865 116.938 60.0511 117.37 58.8522 117.37H58.4708C57.5989 117.37 56.8905 117.694 56.2911 118.288C55.6917 118.882 55.4192 119.638 55.3647 120.447H58.8522C59.6696 120.447 60.4325 120.339 61.141 120.123C62.2853 119.746 63.2662 119.152 64.1381 118.288C65.6094 116.83 66.3178 115.103 66.3178 113.051C66.3178 110.999 65.6094 109.272 64.1381 107.814C62.6668 106.356 60.923 105.655 58.8522 105.655C56.7815 105.655 55.0377 106.356 53.5664 107.814C52.0951 109.272 51.3867 110.999 51.3867 113.051V127.736Z" fill="white"/>
<path d="M13.4598 120.393C13.4598 119.583 13.1873 118.881 12.6424 118.287C12.0429 117.64 11.28 117.316 10.4082 117.316H7.46553C6.26669 117.316 5.23132 116.884 4.35944 116.02C3.48755 115.156 3.1061 114.13 3.1061 112.943C3.1061 111.755 3.54204 110.729 4.35944 109.865C5.23132 109.002 6.26669 108.57 7.46553 108.57C8.66438 108.57 9.69974 109.002 10.5716 109.865C11.0076 110.297 11.3345 110.837 11.5525 111.431H6.9751C6.10321 111.431 5.3948 111.755 4.79538 112.349C4.19596 112.943 3.869 113.645 3.869 114.508H14.7676C14.8766 114.022 14.9311 113.537 14.9311 112.997C14.9311 112.457 14.8766 111.971 14.7676 111.485C14.4406 110.027 13.7867 108.786 12.7513 107.76C11.28 106.302 9.53626 105.6 7.46553 105.6C5.3948 105.6 3.65103 106.302 2.17972 107.76C0.708408 109.218 0 110.945 0 112.997C0 115.048 0.708408 116.776 2.17972 118.233C3.65103 119.691 5.3948 120.393 7.46553 120.393H13.4598Z" fill="white"/>
<path d="M74.0566 104.791C74.9285 104.791 75.6369 104.467 76.2364 103.873C76.8358 103.279 77.1627 102.577 77.1627 101.713V100.688C76.2909 100.688 75.5824 101.011 74.983 101.605C74.3836 102.199 74.0566 102.955 74.0566 103.765V104.791Z" fill="#AFCA0B"/>
<path d="M41.6325 117.316C40.4337 117.316 39.3983 116.884 38.5264 116.02C37.6545 115.156 37.2731 114.184 37.2731 112.943C37.2731 111.755 37.709 110.729 38.5264 109.865C39.3983 109.002 40.4337 108.57 41.6325 108.57C42.8314 108.57 43.8667 109.002 44.6841 109.865C45.556 110.729 45.992 111.701 45.992 112.943C45.992 114.13 45.556 115.156 44.6841 116.02C43.8122 116.884 42.8314 117.316 41.6325 117.316ZM41.6325 120.393C43.7033 120.393 45.447 119.691 46.9183 118.233C48.3896 116.776 49.0981 115.048 49.0981 112.997C49.0981 110.945 48.3352 109.218 46.9183 107.76C45.447 106.302 43.7033 105.6 41.6325 105.6C39.5618 105.6 37.818 106.302 36.3467 107.76C34.8754 109.218 34.167 110.945 34.167 112.997C34.167 115.048 34.8754 116.776 36.3467 118.233C37.7635 119.691 39.5618 120.393 41.6325 120.393Z" fill="white"/>
<path fill-rule="evenodd" clip-rule="evenodd" d="M40.9247 93.2922C42.2325 62.7348 42.0691 41.4095 40.9247 9.93433C39.8348 41.1935 39.6713 62.6268 40.9247 93.2922Z" fill="white"/>
<path fill-rule="evenodd" clip-rule="evenodd" d="M53.2941 93.2922C54.602 62.7348 54.4385 41.4095 53.2941 9.93433C52.1498 41.1935 52.0408 62.6268 53.2941 93.2922Z" fill="white"/>
<path fill-rule="evenodd" clip-rule="evenodd" d="M59.5607 93.2916C60.8686 65.8116 60.7051 46.6458 59.5607 18.356C58.4164 46.4298 58.3074 65.7036 59.5607 93.2916Z" fill="white"/>
<path fill-rule="evenodd" clip-rule="evenodd" d="M34.6581 93.2916C35.9659 65.8116 35.8025 46.6458 34.6581 18.356C33.5682 46.4298 33.4047 65.7036 34.6581 93.2916Z" fill="white"/>
<path fill-rule="evenodd" clip-rule="evenodd" d="M47.2997 93.2917C48.6075 59.0631 48.4441 35.2003 47.2997 0C46.2098 34.9304 46.0463 58.9551 47.2997 93.2917Z" fill="white"/>
</svg>
