<svg width="90" height="124" viewBox="0 0 90 124" fill="none" xmlns="http://www.w3.org/2000/svg">
<path d="M90.0005 116.631C90.0005 116.317 89.9483 116.003 89.844 115.742C89.2179 114.225 88.1744 113.441 86.6092 113.441H86.4005C85.2527 113.441 84.2614 113.022 83.4266 112.238C82.5918 111.401 82.2266 110.459 82.2266 109.257V105.282H85.7744C86.9222 105.282 87.9657 104.968 88.7483 104.393C89.5831 103.817 90.0005 103.085 90.0005 102.301H82.2266V98.1687C82.2266 97.3319 81.9135 96.652 81.3396 96.0767C80.7657 95.5014 80.0353 95.1876 79.2527 95.1876V102.405C77.9483 102.719 77.0092 103.347 76.4874 104.236C76.2787 104.549 76.2266 104.916 76.2266 105.282H79.2527V109.466C79.2527 111.819 80.1918 113.702 82.1222 115.219C83.3744 116.16 84.7831 116.631 86.4005 116.631H90.0005Z" fill="white"/>
<path d="M70.9043 116.631C71.7391 116.631 72.4173 116.317 72.9913 115.742C73.5652 115.167 73.8782 114.434 73.8782 113.65V102.248C73.0434 102.248 72.3652 102.562 71.7913 103.137C71.2173 103.713 70.9043 104.445 70.9043 105.229V116.631Z" fill="white"/>
<path d="M68.7132 116.631V98.1687C68.7132 97.3319 68.4001 96.652 67.8262 96.0767C67.2523 95.5014 66.574 95.1876 65.7393 95.1876V113.65C65.7393 114.487 66.0523 115.167 66.6262 115.742C67.2001 116.317 67.8784 116.631 68.7132 116.631Z" fill="white"/>
<path d="M23.6342 116.631C25.4603 116.631 27.1298 115.951 28.695 114.539C29.5298 113.702 30.1037 112.708 30.469 111.662C29.9994 111.401 29.5298 111.296 29.0081 111.296C28.8516 111.296 28.6429 111.349 28.2255 111.349C27.8603 111.401 27.3907 111.662 26.9211 112.133L26.6081 112.447C25.7733 113.284 24.782 113.702 23.6342 113.702C22.5385 113.702 21.5472 113.284 20.6602 112.447C19.8255 111.558 19.4602 110.564 19.4602 109.466C19.4602 108.367 19.8776 107.374 20.6602 106.485C21.5472 105.648 22.5385 105.229 23.6342 105.229C24.782 105.229 25.7211 105.648 26.6081 106.485L26.9211 106.798C27.5472 107.374 28.2255 107.688 29.0603 107.688C29.582 107.688 30.0516 107.531 30.469 107.321C30.1037 106.223 29.5298 105.282 28.695 104.445C27.1298 103.033 25.4603 102.353 23.6342 102.353C21.7559 102.353 20.0342 103.033 18.5733 104.445C17.1646 106.014 16.4863 107.688 16.4863 109.518C16.4863 111.349 17.1646 113.075 18.5733 114.591C20.0342 115.951 21.7559 116.631 23.6342 116.631Z" fill="white"/>
<path d="M49.2002 123.744C50.035 123.744 50.7132 123.43 51.2872 122.855C51.8611 122.279 52.1741 121.547 52.1741 120.763V109.466C52.1741 108.315 52.5915 107.321 53.3741 106.485C54.2089 105.648 55.2002 105.229 56.348 105.229C57.4959 105.229 58.4872 105.648 59.322 106.485C60.1567 107.321 60.522 108.263 60.522 109.466C60.522 110.616 60.1046 111.61 59.322 112.447C58.4872 113.284 57.4959 113.702 56.348 113.702H55.9828C55.148 113.702 54.4698 114.016 53.8959 114.591C53.3219 115.167 53.0611 115.899 53.0089 116.683H56.348C57.1306 116.683 57.8611 116.579 58.5393 116.369C59.635 116.003 60.5741 115.428 61.4089 114.591C62.8176 113.179 63.4959 111.505 63.4959 109.518C63.4959 107.531 62.8176 105.857 61.4089 104.445C60.0002 103.033 58.3306 102.353 56.348 102.353C54.3654 102.353 52.6959 103.033 51.2872 104.445C49.8785 105.857 49.2002 107.531 49.2002 109.518V123.744Z" fill="white"/>
<path d="M12.887 116.631C12.887 115.846 12.6261 115.167 12.1044 114.591C11.5305 113.964 10.8 113.65 9.96524 113.65H7.14784C6.00001 113.65 5.00871 113.231 4.17392 112.395C3.33914 111.558 2.97392 110.564 2.97392 109.413C2.97392 108.263 3.39131 107.269 4.17392 106.432C5.00871 105.595 6.00001 105.177 7.14784 105.177C8.29567 105.177 9.28698 105.595 10.1218 106.432C10.5392 106.851 10.8522 107.374 11.0609 107.949H6.67828C5.84349 107.949 5.16523 108.263 4.59131 108.838C4.0174 109.413 3.70436 110.093 3.70436 110.93H14.1392C14.2435 110.459 14.2957 109.989 14.2957 109.466C14.2957 108.943 14.2435 108.472 14.1392 108.001C13.8261 106.589 13.2 105.386 12.2087 104.393C10.8 102.98 9.13046 102.301 7.14784 102.301C5.16523 102.301 3.49566 102.98 2.08696 104.393C0.678262 105.805 0 107.478 0 109.466C0 111.453 0.678262 113.127 2.08696 114.539C3.49566 115.951 5.16523 116.631 7.14784 116.631H12.887Z" fill="white"/>
<path d="M70.9043 101.516C71.7391 101.516 72.4173 101.202 72.9913 100.627C73.5652 100.052 73.8782 99.3717 73.8782 98.5349V97.5411C73.0434 97.5411 72.3652 97.8549 71.7913 98.4303C71.2173 99.0056 70.9043 99.7378 70.9043 100.522V101.516Z" fill="#AFCA0B"/>
<path d="M39.8607 113.65C38.7129 113.65 37.7216 113.231 36.8868 112.395C36.052 111.558 35.6868 110.616 35.6868 109.413C35.6868 108.263 36.1042 107.269 36.8868 106.432C37.7216 105.595 38.7129 105.177 39.8607 105.177C41.0086 105.177 41.9999 105.595 42.7825 106.432C43.6173 107.269 44.0347 108.211 44.0347 109.413C44.0347 110.564 43.6173 111.558 42.7825 112.395C41.9477 113.231 41.0086 113.65 39.8607 113.65ZM39.8607 116.631C41.8433 116.631 43.5129 115.951 44.9216 114.539C46.3303 113.127 47.0086 111.453 47.0086 109.466C47.0086 107.478 46.2781 105.805 44.9216 104.393C43.5129 102.98 41.8433 102.301 39.8607 102.301C37.8781 102.301 36.2086 102.98 34.7999 104.393C33.3912 105.805 32.7129 107.478 32.7129 109.466C32.7129 111.453 33.3912 113.127 34.7999 114.539C36.1564 115.951 37.8781 116.631 39.8607 116.631Z" fill="white"/>
<path fill-rule="evenodd" clip-rule="evenodd" d="M39.1822 90.3759C40.4343 60.7736 40.2778 40.1148 39.1822 9.62335C38.1387 39.9056 37.9822 60.669 39.1822 90.3759Z" fill="white"/>
<path fill-rule="evenodd" clip-rule="evenodd" d="M51.0254 90.3759C52.2776 60.7736 52.121 40.1148 51.0254 9.62335C49.9297 39.9056 49.8254 60.669 51.0254 90.3759Z" fill="white"/>
<path fill-rule="evenodd" clip-rule="evenodd" d="M57.0254 90.3759C58.2776 63.7548 58.121 45.1879 57.0254 17.7823C55.9297 44.9787 55.8254 63.6502 57.0254 90.3759Z" fill="white"/>
<path fill-rule="evenodd" clip-rule="evenodd" d="M33.1822 90.3759C34.4343 63.7548 34.2778 45.1879 33.1822 17.7823C32.1387 44.9787 31.9822 63.6502 33.1822 90.3759Z" fill="white"/>
<path fill-rule="evenodd" clip-rule="evenodd" d="M45.2867 90.3759C46.5388 57.2172 46.3823 34.1002 45.2867 0C44.2432 33.8387 44.0867 57.1126 45.2867 90.3759Z" fill="white"/>
</svg>
