<svg width="80" height="80" viewBox="0 0 80 80" fill="none" xmlns="http://www.w3.org/2000/svg">
<path d="M80 74.1406V15.1488C80 11.9792 77.3244 9.28938 74.1406 9.28938H57.5548C57.0117 4.07734 52.5834 0 47.2181 0C41.8528 0 37.4245 4.07734 36.8812 9.28938H5.85938C2.67203 9.28938 0 11.9591 0 15.1488V74.1406C0 77.3716 2.62844 80 5.85938 80H74.1406C76.633 80 80 77.6562 80 74.1406ZM55.2019 50.8697L77.6562 27.6847V73.3239L55.2019 50.8697ZM47.2181 2.34375C51.6566 2.34375 55.2677 5.94406 55.2677 10.3695C55.2677 13.528 54.0166 17.9605 52.0028 21.9373C49.9289 26.0328 47.9564 27.875 47.2181 27.875C46.512 27.875 44.5725 26.2034 42.3733 21.7178C40.4264 17.747 39.1684 13.2925 39.1684 10.3695C39.1686 5.94406 42.7795 2.34375 47.2181 2.34375ZM2.34375 15.1488C2.34375 14.6006 2.47 14.0814 2.69469 13.6186L15.4534 26.3773L2.34375 39.4869V15.1488ZM2.34375 74.1406V54.8847L23.1523 34.0761L66.7323 77.6562H5.85938C3.92078 77.6562 2.34375 76.0791 2.34375 74.1406ZM74.1406 77.6562H70.0472L23.9809 31.5902C23.5233 31.1327 22.7812 31.1327 22.3237 31.5902L2.34375 51.57V42.8016L17.9394 27.2059C18.397 26.7481 18.397 26.0063 17.9394 25.5486L4.36031 11.9695C4.81531 11.7541 5.32344 11.6331 5.85938 11.6331H12.6505L46.4909 45.4734C46.9516 45.9338 47.6998 45.9309 48.1564 45.4652L62.1564 31.1866L69.3211 23.8795C70.3818 22.7975 68.2029 21.6729 67.1417 22.7545L60.6583 29.3667L47.3114 42.9791L15.9652 11.6331H36.8812C37.1942 15.3473 38.7769 19.7066 40.2687 22.7497C43.4552 29.2486 45.9903 30.2189 47.2181 30.2189C50.1228 30.2189 52.9941 25.168 54.0938 22.9963C56.0448 19.1434 57.2973 15.0014 57.5584 11.6331H74.1406C75.2152 11.6331 76.1781 12.1183 76.8234 12.8803L65.9502 23.9697C64.8911 25.0502 66.5606 26.6948 67.6237 25.6106L77.6562 15.3788V24.3156L52.7159 50.0677C52.2708 50.5272 52.2766 51.2591 52.7291 51.7116L77.0813 76.0639C76.4527 77.0219 75.3695 77.6562 74.1406 77.6562Z" fill="#B9D420"/>
<path d="M47.2181 16.1246C50.2353 16.1246 52.69 13.6651 52.69 10.6417C52.69 7.61822 50.2353 5.15869 47.2181 5.15869C44.2008 5.15869 41.7461 7.61822 41.7461 10.6417C41.7461 13.6651 44.2009 16.1246 47.2181 16.1246ZM47.2181 7.5026C48.943 7.5026 50.3463 8.91088 50.3463 10.6418C50.3463 12.3728 48.9431 13.781 47.2181 13.781C45.4931 13.781 44.0898 12.3728 44.0898 10.6418C44.0898 8.91088 45.4933 7.5026 47.2181 7.5026Z" fill="#B9D420"/>
<path d="M32.8736 50.5832C31.6152 47.7643 29 46 26.928 45.3835C25.2274 44.6008 26.4258 47.4161 26.1353 47.5898C29.5 49 30.4581 50.9912 30.7763 51.6292C31.3328 52.7453 31.6152 53.9453 31.6152 55.1964C31.6152 58.3549 30.3642 62.7874 28.3503 66.7641C26.2764 70.8596 24.3039 72.7017 23.5655 72.7017C22.8596 72.7017 20.9199 71.0302 18.7206 66.5446C16.7739 62.5739 15.516 58.1194 15.516 55.1964C15.516 50.771 19.1269 47.1707 23.5655 47.1707C24.7361 47.1707 25.8674 47.4177 26.928 47.9047C28.3049 48.5372 29.2831 46.4072 27.9063 45.7749C26.5366 45.1458 25.0763 44.8269 23.5656 44.8269C17.8347 44.8269 13.1724 49.4786 13.1724 55.1964C13.1724 59.145 14.9514 64.1805 16.6164 67.5763C19.8027 74.0752 22.338 75.0455 23.5656 75.0455C26.4703 75.0455 29.3416 69.9946 30.4413 67.8228C32.6439 63.4733 33.9589 58.753 33.9589 55.1963C33.9588 53.5792 33.5938 52.0272 32.8736 50.5832Z" fill="#B9D420"/>
<path d="M23.5651 49.9858C20.548 49.9858 18.0933 52.4454 18.0933 55.4688C18.0933 58.4922 20.548 60.9518 23.5651 60.9518C26.5823 60.9518 29.037 58.4922 29.037 55.4688C29.037 52.4454 26.5823 49.9858 23.5651 49.9858ZM23.5651 58.608C21.8403 58.608 20.437 57.1997 20.437 55.4688C20.437 53.7379 21.8403 52.3296 23.5651 52.3296C25.29 52.3296 26.6933 53.7379 26.6933 55.4688C26.6933 57.1997 25.29 58.608 23.5651 58.608Z" fill="#B9D420"/>
</svg>
