<svg width="80" height="80" viewBox="0 0 80 80" fill="none" xmlns="http://www.w3.org/2000/svg">
<g clip-path="url(#clip0)">
<path d="M23.7162 35.207C23.5492 38.7796 25.3863 42.0119 28.5596 43.7131C29.7287 44.2235 30.5638 45.2442 31.2318 46.265C32.902 49.3272 36.2423 51.1985 39.7496 51.0284C41.0857 51.0284 42.2548 51.3686 43.4239 52.0491C46.4302 53.9205 50.2715 53.9205 53.2778 52.0491C54.4469 51.3686 55.616 51.0284 56.9521 51.0284C60.4594 51.1985 63.7997 49.3272 65.4698 46.265C65.9709 45.0741 66.973 44.2235 68.1421 43.7131C71.3153 42.182 73.3195 38.7796 72.9855 35.3772C72.9855 34.1863 73.3195 32.9954 73.9876 31.9747C75.9917 29.0826 75.9917 25.1698 73.9876 22.2777C73.3195 21.257 72.9855 20.0662 72.9855 18.8753C73.1525 15.3027 71.3153 12.0704 67.9751 10.5393C66.806 10.0289 65.9709 9.17833 65.3028 7.98747C63.6327 4.92527 60.2924 3.05392 56.7851 3.22405C55.449 3.22405 54.2799 2.8838 53.1107 2.20331C50.1045 0.331969 46.2631 0.331969 43.2569 2.20331C42.0878 2.8838 40.9187 3.22405 39.5826 3.22405C36.0753 3.05392 32.735 4.92527 31.0648 7.98747C30.5638 9.17833 29.5617 10.0289 28.3926 10.5393C25.2193 12.0704 23.2151 15.4728 23.5492 18.8753C23.5492 20.0662 23.2151 21.257 22.5471 22.2777C20.5429 25.1698 20.5429 29.0826 22.5471 31.9747C23.3821 32.6552 23.7162 34.0162 23.7162 35.207ZM25.2193 23.6387C26.2214 22.1076 26.7224 20.2363 26.7224 18.1948C26.5554 15.8131 27.8915 13.7716 29.8957 12.7509C31.5659 11.9003 33.069 10.5393 33.9041 8.83808C34.9062 6.79661 37.2444 5.43564 39.5826 5.60576C41.5867 5.77588 43.4239 5.26551 45.094 4.24478C47.0982 2.8838 49.7705 2.8838 51.7746 4.24478C53.4448 5.26551 55.2819 5.77588 57.1191 5.60576C59.4573 5.43564 61.7955 6.79661 62.7976 8.83808C63.6327 10.5393 65.1358 11.9003 66.8059 12.7509C68.9771 13.7716 70.1462 15.9832 69.9792 18.1948C69.8122 20.0662 70.4803 21.9375 71.4824 23.6387C72.8185 25.5101 72.8185 28.0619 71.4824 29.9332C70.4803 31.4643 69.9792 33.3357 69.9792 35.3772C70.1462 37.5887 68.8101 39.8003 66.8059 40.8211C65.1358 41.6717 63.6327 43.0327 62.7976 44.7339C61.7955 46.7753 59.4573 48.1363 57.1191 47.9662C55.2819 47.7961 53.2778 48.3064 51.7746 49.3272C49.7705 50.6882 47.0982 50.6882 45.094 49.3272C43.5909 48.3064 41.9208 47.9662 40.2506 47.9662C40.0836 47.9662 39.9166 47.9662 39.7496 47.9662C37.4114 48.1363 35.2402 46.9455 34.0711 44.7339C33.236 43.0327 31.7329 41.6717 30.0627 40.8211C27.8915 39.8003 26.7224 37.5887 26.8895 35.3772C27.0565 33.5058 26.3884 31.6345 25.3863 29.9332C23.8832 28.0619 23.8832 25.5101 25.2193 23.6387Z" fill="#B9D420"/>
<path d="M38.7472 42.5221C39.4152 43.0325 40.4173 42.6923 40.7513 42.0118L58.4549 13.2611C58.7889 12.7507 58.7889 12.2404 58.4549 11.73C58.2879 11.2196 57.7868 10.8794 57.1188 10.8794C56.6177 10.8794 56.1167 11.2196 55.7826 11.5599L38.2461 40.3105C37.9121 41.1612 38.0791 42.0118 38.7472 42.5221Z" fill="#B9D420"/>
<path d="M40.4174 26.8711C44.0917 26.8711 46.9309 23.4686 46.9309 19.2156C46.9309 14.9625 43.9247 11.5601 40.4174 11.5601C36.9101 11.5601 33.9038 14.9625 33.9038 19.2156C33.9038 23.4686 36.7431 26.8711 40.4174 26.8711ZM40.4174 14.6223C42.4216 14.6223 44.0917 16.6637 44.0917 19.2156C44.0917 21.7674 42.4216 23.8089 40.4174 23.8089C38.4132 23.8089 36.7431 21.7674 36.7431 19.2156C36.7431 16.6637 38.4132 14.6223 40.4174 14.6223Z" fill="#B9D420"/>
<path d="M49.7705 34.3564C49.7705 38.6095 52.7768 42.0119 56.2841 42.0119C59.7914 42.0119 62.7977 38.6095 62.7977 34.3564C62.7977 30.1034 59.7914 26.7009 56.2841 26.7009C52.7768 26.7009 49.7705 30.1034 49.7705 34.3564ZM59.9584 34.3564C59.9584 36.9083 58.2883 38.9497 56.2841 38.9497C54.2799 38.9497 52.6098 36.9083 52.6098 34.3564C52.6098 31.8046 54.2799 29.7631 56.2841 29.7631C58.4553 29.7631 59.9584 31.8046 59.9584 34.3564Z" fill="#B9D420"/>
<path d="M79.833 59.5345C77.8288 55.9619 73.4864 54.601 69.9791 56.4723L58.2881 62.0863C56.618 59.0241 53.6117 57.1528 50.2714 56.9827L39.5825 56.6424C37.9123 56.6424 36.2422 56.1321 34.739 55.2814L33.4029 54.7711C27.7244 51.7089 21.0438 51.879 15.5324 54.7711V52.2192C15.5324 51.3686 14.8643 50.6881 14.0292 50.6881L2.17119 50.3479C1.33612 50.3479 0.668058 51.0284 0.668058 51.879L0 78.248C0 79.0986 0.668058 79.7791 1.50313 79.7791L13.1942 80.1193C14.0292 80.1193 14.6973 79.4388 14.6973 78.5882V77.3973L17.7035 75.6961C18.8727 75.0156 20.3758 74.8455 21.7119 75.1857L40.0835 80.4595C40.0835 80.4595 40.0835 80.4595 40.2505 80.4595C41.5866 80.7998 42.9228 80.7998 44.2589 80.7998C47.0981 80.7998 49.9374 80.1193 52.6096 78.9284C52.6096 78.9284 52.7766 78.9284 52.7766 78.7583L79.3319 61.2357C80 61.0656 80.167 60.215 79.833 59.5345ZM3.00626 76.887L3.67432 53.5802L12.5261 53.7503L11.858 77.0571L3.00626 76.887ZM51.2735 76.3766C48.1002 77.9077 44.4259 78.248 40.9186 77.5675L22.714 72.2937C20.7098 71.7833 18.5386 71.9534 16.5344 72.9742L15.0313 73.8248L15.5324 58.3436C20.5428 54.9412 26.8894 54.601 32.2338 57.493L33.4029 58.0034C35.2401 59.0241 37.4113 59.5345 39.5825 59.7046L50.2714 60.0449C53.2777 60.215 55.7829 62.2565 56.4509 65.3187L40.2505 64.8083C39.4154 64.8083 38.7474 65.4888 38.7474 66.3394C38.7474 67.19 39.4154 67.8705 40.2505 67.8705L57.9541 68.3809C58.7891 68.3809 59.4572 67.7004 59.4572 66.8498C59.4572 66.1693 59.4572 65.4888 59.2902 64.8083L71.3152 59.0241C72.9854 58.1735 74.9896 58.5138 76.4927 59.7046L51.2735 76.3766Z" fill="#B9D420"/>
</g>
<defs>
<clipPath id="clip0">
<rect width="80" height="80" fill="white"/>
</clipPath>
</defs>
</svg>
