<svg width="80" height="80" viewBox="0 0 80 80" fill="none" xmlns="http://www.w3.org/2000/svg">
<g clip-path="url(#clip0)">
<path d="M64.5676 15.3636C68.8248 15.3636 72.3725 11.8316 72.3725 7.59318C72.3725 3.35476 68.8248 -0.177246 64.5676 -0.177246C60.3104 -0.177246 56.7627 3.53137 56.7627 7.76978C56.7627 12.0082 60.3104 15.3636 64.5676 15.3636ZM64.5676 2.64836C67.4057 2.64836 69.7117 4.94417 69.7117 7.76978C69.7117 10.5954 67.4057 12.8912 64.5676 12.8912C61.7294 12.8912 59.4234 10.5954 59.4234 7.76978C59.4234 4.94417 61.7294 2.64836 64.5676 2.64836Z" fill="#B9D420"/>
<path d="M77.5168 22.9575C77.5168 22.6043 77.3394 22.4277 77.162 22.2511L73.2596 18.3659C73.0822 18.1893 72.7274 18.0127 72.3726 18.0127H56.7629C56.4081 18.0127 56.0534 18.1893 55.876 18.3659L51.9735 22.2511C51.7961 22.4277 51.6188 22.7809 51.6188 22.9575L48.958 44.856C48.958 45.2092 48.958 45.5624 49.3128 45.9156C49.4902 46.2688 49.8449 46.2688 50.1997 46.2688H56.7629L53.0378 78.2335C53.0378 78.5867 53.0378 78.9399 53.3926 79.2931C53.57 79.6463 53.9247 79.6463 54.2795 79.6463H62.0844C62.7939 79.6463 63.3261 79.1165 63.3261 78.4101L64.5678 62.8692L65.8094 78.4101C65.8094 79.1165 66.3416 79.6463 67.0511 79.6463H74.856C75.2108 79.6463 75.5655 79.4697 75.7429 79.2931C75.9203 78.9399 76.0977 78.5867 76.0977 78.2335L72.3726 46.2688H78.7585C79.1132 46.2688 79.468 46.0922 79.6454 45.9156C79.8228 45.5624 80.0001 45.2092 80.0001 44.856L77.5168 22.9575ZM72.3726 43.7964V25.7831H69.7119V45.0326V45.2092L73.4369 77.1739H68.2928L65.8094 47.505C65.8094 46.7986 65.2773 46.2688 64.5678 46.2688C63.8582 46.2688 63.3261 46.7986 63.3261 47.505L60.8427 77.1739H55.6986L59.4236 45.2092V45.0326V25.7831H56.7629V43.7964H51.7961L54.1021 23.8405L57.295 20.6617H71.6631L74.856 23.8405L77.162 43.7964H72.3726Z" fill="#B9D420"/>
<path d="M44.8777 40.2642L42.217 37.6152C42.0396 37.4386 41.6848 37.262 41.3301 37.262H28.3811C28.0263 37.262 27.6715 37.4386 27.4941 37.6152L24.8334 40.2642C24.656 40.4408 24.4786 40.6174 24.4786 40.9706L21.8179 53.8624C21.8179 54.2156 21.8179 54.5688 22.1726 54.922C22.35 55.2752 22.7048 55.4518 23.2369 55.4518H28.3811V56.5114L23.2369 78.2333C23.0596 78.5865 23.2369 78.9397 23.4143 79.2929C23.5917 79.6461 23.9465 79.8227 24.4786 79.8227H30.8644C31.574 79.8227 32.1061 79.4695 32.1061 78.7631L34.7669 64.9882L37.4276 78.7631C37.605 79.2929 38.1372 79.8227 38.6693 79.8227H45.0551C45.4099 79.8227 45.7647 79.6461 46.1194 79.2929C46.2968 78.9397 46.4742 78.5865 46.2968 78.2333L41.3301 56.5114V55.4518H46.4742C46.829 55.4518 47.1837 55.2752 47.5385 54.922C47.7159 54.5688 47.8933 54.2156 47.8933 53.8624L45.2325 40.9706C45.0551 40.6174 45.0551 40.4408 44.8777 40.2642ZM41.3301 52.8028V43.7962H38.6693V56.5114C38.6693 56.688 38.6693 56.688 38.6693 56.8646L43.4587 77.1737H39.7336L36.0086 57.571C36.0086 57.0412 35.4764 56.5114 34.9443 56.5114C34.4121 56.5114 33.7026 56.8646 33.7026 57.571L29.9775 77.1737H26.2525L31.0418 56.8646C31.0418 56.688 31.0418 56.688 31.0418 56.5114V43.6196H28.3811V52.6262H24.8334L26.962 41.677L28.9132 39.7344H40.7979L42.7491 41.677L44.8777 52.6262H41.3301V52.8028Z" fill="#B9D420"/>
<path d="M18.8027 56.8647L14.9002 54.2157C14.7228 54.0391 14.3681 54.0391 14.1907 54.0391H6.38581C6.20843 54.0391 5.85366 54.0391 5.67628 54.2157L1.77384 56.8647C1.41907 57.0413 1.24169 57.3945 1.24169 57.7477L0 67.9905C0 68.3437 0 68.6969 0.354767 69.0501C0.532151 69.4033 0.886918 69.4033 1.24169 69.4033H4.43459L3.72506 78.2333C3.72506 78.5865 3.90244 78.9397 4.07982 79.2929C4.25721 79.4695 4.61197 79.6461 4.96674 79.6461H15.255C15.6098 79.6461 15.9645 79.4695 16.1419 79.2929C16.3193 79.1163 16.4967 78.7631 16.4967 78.2333L15.7871 69.4033H18.98C19.3348 69.4033 19.6896 69.2267 19.867 69.0501C20.0443 68.6969 20.2217 68.3437 20.2217 67.9905L18.98 57.7477C19.3348 57.3945 19.1574 57.0413 18.8027 56.8647ZM15.9645 66.9309L15.6098 61.6329L12.949 61.8095L14.1907 77.1737H11.7073V69.4033H9.04656V77.1737H6.56319L7.80488 61.8095L5.14412 61.6329L4.78936 66.9309H2.83814L3.90244 58.6307L6.91796 56.5115H13.8359L16.8514 58.4541L17.9157 66.7543H15.9645V66.9309Z" fill="#B9D420"/>
<path d="M28.3813 28.2556C28.3813 31.7876 31.2195 34.6132 34.7672 34.6132C38.3148 34.6132 41.153 31.7876 41.153 28.2556C41.153 24.7236 38.3148 21.8979 34.7672 21.8979C31.3969 21.8979 28.3813 24.7236 28.3813 28.2556ZM38.6696 28.2556C38.6696 30.3748 36.8958 32.1408 34.7672 32.1408C32.6386 32.1408 30.8647 30.3748 30.8647 28.2556C30.8647 26.1364 32.6386 24.3704 34.7672 24.3704C37.0731 24.3704 38.6696 26.1364 38.6696 28.2556Z" fill="#B9D420"/>
<path d="M5.14404 46.2686C5.14404 49.0942 7.45003 51.39 10.2882 51.39C13.1263 51.39 15.4323 49.0942 15.4323 46.2686C15.4323 43.443 13.1263 41.1472 10.2882 41.1472C7.45003 41.1472 5.14404 43.443 5.14404 46.2686ZM12.9489 46.2686C12.9489 47.6814 11.7072 48.9176 10.2882 48.9176C8.8691 48.9176 7.8048 47.6814 7.8048 46.2686C7.8048 44.8558 9.04648 43.6196 10.4656 43.6196C11.8846 43.6196 12.9489 44.8558 12.9489 46.2686Z" fill="#B9D420"/>
<path d="M31.9293 9.35983C31.3971 8.83003 30.6876 8.83003 30.1554 9.35983L0.35498 39.0287L2.12882 40.7947L31.0423 12.1854L34.0579 15.1876C34.4126 15.5408 34.9448 15.7174 35.4769 15.5408C36.0091 15.3642 36.1865 14.8344 36.1865 14.3046V1.2362C36.1865 0.529802 35.6543 0 34.9448 0H21.9958C21.4636 0 20.9315 0.353201 20.7541 0.706402C20.5767 1.2362 20.5767 1.76601 21.1089 2.11921L24.1244 5.12142L0.35498 28.6093L2.12882 30.3753L26.7851 6.00442C27.3173 5.47462 27.3173 4.76821 26.7851 4.23841L25.1887 2.64901H33.7031V11.1258L31.9293 9.35983Z" fill="#B9D420"/>
</g>
<defs>
<clipPath id="clip0">
<rect width="80" height="80" fill="white"/>
</clipPath>
</defs>
</svg>
