<svg width="80" height="80" viewBox="0 0 80 80" fill="none" xmlns="http://www.w3.org/2000/svg">
<g clip-path="url(#clip0)">
<path d="M24.3551 79.776C22.1564 79.776 20.4651 77.9076 20.4651 75.6996C16.4059 77.5679 11.501 77.0584 8.11833 74.001C4.73567 71.1136 3.38261 66.3577 4.56654 62.1114C2.36781 62.2813 0.169075 60.9225 -5.85858e-05 58.5446C-0.169192 56.1666 1.69127 54.2983 4.05914 54.2983C2.19867 50.2218 2.70607 45.466 5.75047 41.8991C8.62573 38.5021 13.3615 37.1433 17.7589 38.3323C17.4207 35.9543 18.9429 33.9161 21.3107 33.5764C23.6786 33.4066 25.5391 35.2749 25.5391 37.6528C27.9069 36.4639 30.7822 36.294 33.3192 36.9734L44.5 23.9288L49 18.5234C49.3383 18.0139 49.9926 18.1603 50.5 18.5C51.0074 18.8397 51.4872 19.2067 51.1489 19.7162L46.324 25.5L35.1796 38.5021C34.6722 39.1815 33.8266 39.3514 32.9809 39.1815C30.6131 38.5021 28.0761 38.8418 26.0465 40.0308C25.5391 40.3705 24.8625 40.3705 24.3551 40.0308C23.8477 39.6911 23.5095 39.1815 23.3403 38.672L23.1712 37.3131C23.1712 36.4639 22.3255 35.7845 21.4799 35.9543C20.6342 35.9543 19.9577 36.8036 20.1268 37.6528L20.2959 39.0117C20.2959 39.6911 20.1268 40.2006 19.6194 40.5403C19.112 40.88 18.4355 41.0499 17.9281 40.7102C14.3763 39.3514 10.3171 40.3705 7.78007 43.2579C5.24307 46.1454 4.9048 50.3917 6.76527 53.7887C7.10354 54.2983 7.10354 54.9777 6.76527 55.4872C6.427 55.9968 5.9196 56.3365 5.4122 56.5064L4.05914 56.6762C3.21347 56.6762 2.53694 57.5255 2.70607 58.3747C2.70607 59.224 3.55174 59.9034 4.3974 59.7335L5.75047 59.5637C6.427 59.5637 6.9344 59.7335 7.27267 60.2431C7.61094 60.7526 7.78007 61.432 7.4418 61.9416C6.08874 65.5085 7.10354 69.5849 9.9788 72.1327C12.8541 74.6804 17.0824 75.0201 20.4651 73.1518C20.9725 72.8121 21.649 72.8121 22.1564 73.1518C22.6638 73.4915 23.0021 74.001 23.1712 74.5106L23.3403 75.8694C23.3403 76.7187 24.186 77.3981 25.0317 77.2282C25.8773 77.2282 26.5539 76.379 26.3847 75.5297L26.2156 74.1709C26.2156 73.4915 26.3847 72.9819 26.8921 72.6422C27.3995 72.3025 28.0761 72.1327 28.5835 72.4724C32.1353 73.8312 36.1944 72.8121 38.7314 69.9246C41.2684 67.0371 41.6067 62.7908 39.7462 59.3938C39.0697 58.2049 39.9154 56.8461 41.0993 56.6762L42.4524 56.5064C43.298 56.5064 43.9746 55.6571 43.8054 54.8078C43.8054 54.4681 43.6363 53.9586 43.298 53.7887C42.9598 53.449 42.6215 53.449 42.1141 53.449L40.761 53.6189C39.408 53.7887 38.5623 52.4299 38.9006 51.241C39.7462 49.0329 39.7462 46.4851 38.7314 44.2771C38.3932 43.4278 38.5623 42.5785 39.0697 41.8991L61.3953 15.742C62.241 14.8928 63.594 14.7229 64.6088 15.5722L66.6384 17.2707L68.1606 15.4023L66.131 13.7038C65.2854 12.8545 65.1162 11.4957 65.9619 10.4766L67.4841 8.60826C68.3298 7.759 69.6828 7.58915 70.6976 8.43841L76.1099 13.1942L77.6321 11.3259L67.315 2.49361C66.8076 2.15391 66.131 2.15391 65.7928 2.66346L49.8942 21.1773C49.556 21.6868 48.7103 21.6868 48.2029 21.3471C47.6955 21.0074 47.6955 20.1582 48.0338 19.6486L63.9323 1.1348C65.1162 -0.224013 67.315 -0.393864 68.8372 0.795096L79.1543 9.79722C79.9999 10.6465 80.1691 12.0053 79.3234 13.0244L77.6321 15.0626C76.7864 15.9119 75.4333 16.0817 74.4185 15.2325L69.0063 10.6465L67.6532 12.345L69.6828 14.0435C70.5285 14.8928 70.6976 16.2516 69.852 17.2707L68.1606 19.3089C67.315 20.1582 65.9619 20.328 64.9471 19.4787L62.9175 17.7802L40.761 43.5976C41.7758 46.1454 41.945 48.863 41.2684 51.4108C43.4672 51.0711 45.835 52.5998 46.0042 54.9777C46.1733 57.1858 44.3128 59.224 41.945 59.224C43.8054 63.3004 43.298 68.0562 40.2536 71.6231C37.3784 75.0201 32.6427 76.379 28.2452 75.19C28.5835 77.3981 26.8921 79.776 24.3551 79.776Z" fill="#B9D420"/>
<path d="M11.163 70.6042C8.28775 68.0564 7.94948 63.6403 10.4865 60.9227C13.0235 58.0352 17.2518 57.6955 20.1271 60.2432C23.0023 62.6212 23.3406 67.2072 20.8036 69.9248C18.2666 72.6424 14.0383 72.9821 11.163 70.6042ZM12.1778 62.2815C10.6556 64.1498 10.8247 67.0373 12.6852 68.7358C14.5457 70.4343 17.4209 70.0946 19.1123 68.2263C20.8036 66.3579 20.4653 63.4704 18.6049 61.7719C16.5753 60.2433 13.7 60.4131 12.1778 62.2815Z" fill="#B9D420"/>
<path d="M25.7084 53.4492C22.8332 50.9014 22.4949 46.4853 25.0319 43.7676C27.5689 40.8802 31.7972 40.5404 34.6725 43.0882C37.5477 45.4661 37.886 50.0521 35.349 52.7698C32.9811 55.4874 28.5837 55.8271 25.7084 53.4492ZM26.8924 45.1264C25.3702 46.9948 25.5393 49.8823 27.3998 51.5808C29.2602 53.2793 32.1355 52.9396 33.8268 51.0712C35.5181 49.2029 35.1799 46.3154 33.3194 44.6169C31.2898 43.0882 28.4146 43.2581 26.8924 45.1264Z" fill="#B9D420"/>
<path d="M26.216 68.5659C25.8777 68.0563 25.8777 67.3769 26.3851 66.8674C26.8925 66.5277 27.5691 66.5277 28.0765 67.0372C29.7678 69.2453 33.1505 69.2453 35.0109 67.0372C36.7022 65.1689 36.364 62.2814 34.5035 60.5829C32.6431 58.8844 29.7678 59.2241 28.0765 61.0924C27.5691 61.602 27.3999 62.1115 27.2308 62.7909C27.0617 63.4703 26.3851 63.81 25.7086 63.6402C25.0321 63.4703 24.6938 62.7909 24.8629 62.1115C25.2012 61.0924 25.5395 60.2432 26.216 59.5638C28.753 56.6763 32.9813 56.3366 35.8566 58.8844C38.7318 61.2623 39.0701 65.8483 36.5331 68.5659C33.9961 71.7931 28.9221 71.7931 26.216 68.5659Z" fill="#B9D420"/>
<path d="M9.80998 54.6381C6.93472 52.0904 6.59645 47.6742 9.13345 44.9566C11.6704 42.0691 15.8988 41.7294 18.774 44.2772C21.6493 46.6551 21.9876 51.2411 19.4506 53.9587C17.0827 56.8462 12.6852 57.016 9.80998 54.6381ZM10.9939 46.4853C9.47172 48.3536 9.64085 51.2411 11.5013 52.9396C13.3618 54.6381 16.237 54.2984 17.9284 52.4301C19.6197 50.5617 19.2814 47.6742 17.421 45.9757C15.3914 44.2772 12.5161 44.447 10.9939 46.4853Z" fill="#B9D420"/>
</g>
<defs>
<clipPath id="clip0">
<rect width="80" height="80" fill="white"/>
</clipPath>
</defs>
</svg>
