<svg width="80" height="80" viewBox="0 0 80 80" fill="none" xmlns="http://www.w3.org/2000/svg">
<g clip-path="url(#clip0)">
<path d="M49.3869 46.6807H47.8647C47.3573 46.6807 46.8499 46.3424 46.6808 45.835C46.5116 45.3276 46.3425 44.9893 46.1734 44.6511C46.0042 44.1437 46.0042 43.6363 46.5116 43.1289L47.5264 42.1141C49.0486 40.5919 49.0486 38.0549 47.5264 36.5327L43.8055 32.8118C42.2833 31.2896 39.7463 31.2896 38.2241 32.8118L37.2093 33.8266C36.871 34.1648 36.1945 34.334 35.6871 34.1648C35.3488 33.9957 34.8414 33.8266 34.5032 33.6574C33.9958 33.4883 33.6575 32.9809 33.6575 32.4735V30.9513C33.6575 28.7526 31.797 26.8921 29.5983 26.8921H24.1861C21.9873 26.8921 20.1269 28.7526 20.1269 30.9513V32.1352C20.1269 32.6426 19.7886 33.15 19.2812 33.3192C18.7738 33.4883 18.4355 33.6574 18.0973 33.8266C17.5899 33.9957 17.0825 33.9957 16.5751 33.4883L15.5603 32.4735C14.0381 30.9513 11.5011 30.9513 9.97886 32.4735L6.25793 36.1944C4.73573 37.7166 4.73573 40.2536 6.25793 41.7758L7.27273 42.7906C7.611 43.1289 7.78013 43.8054 7.61099 44.3128C7.44186 44.6511 7.27273 45.1585 7.10359 45.4967C6.93446 46.0041 6.42706 46.3424 5.91966 46.3424H4.0592C1.86047 46.6807 0 48.5411 0 50.7399V56.1521C0 58.3509 1.86047 60.2113 4.0592 60.2113H5.5814C6.0888 60.2113 6.5962 60.5496 6.76533 61.057C6.93446 61.5644 7.1036 61.9027 7.27273 62.2409C7.44186 62.7483 7.44186 63.2557 6.93446 63.7631L5.91966 64.7779C4.39746 66.3001 4.39746 68.8371 5.91966 70.3593L9.64059 74.0802C11.1628 75.6025 13.6998 75.6025 15.222 74.0802L16.2368 73.0655C16.5751 72.7272 17.2516 72.5581 17.759 72.7272C18.0973 72.8963 18.6047 73.0655 18.9429 73.2346C19.4503 73.4037 19.7886 73.9111 19.7886 74.4185V76.1099C19.7886 78.3086 21.6491 80.1691 23.8478 80.1691H29.26C31.4588 80.1691 33.3192 78.3086 33.3192 76.1099V74.5877C33.3192 74.0802 33.6575 73.5729 34.1649 73.4037C34.6723 73.2346 35.0106 73.0655 35.3488 72.8963C35.8562 72.7272 36.3636 72.7272 36.871 73.2346L37.8858 74.2494C39.408 75.7716 41.945 75.7716 43.4672 74.2494L47.1882 70.5285C48.7104 69.0063 48.7104 66.4693 47.1882 64.9471L46.1734 63.9323C45.8351 63.594 45.666 62.9175 45.8351 62.4101C46.0042 62.0718 46.1734 61.5644 46.3425 61.2261C46.5116 60.7187 47.019 60.3805 47.5264 60.3805H49.0486C51.2474 60.3805 53.1078 58.52 53.1078 56.3213V50.7399C53.4461 48.5411 51.5856 46.6807 49.3869 46.6807ZM50.74 55.983C50.74 56.6595 50.0634 57.3361 49.3869 57.3361H47.8647C46.1734 57.3361 44.6512 58.3509 44.1438 59.8731C43.9746 60.2113 43.8055 60.5496 43.6364 61.057C42.9598 62.5792 43.2981 64.2705 44.482 65.4545L45.4968 66.4693C46.0042 66.9767 46.0042 67.8223 45.4968 68.3297L41.7759 72.0507C41.2685 72.5581 40.4228 72.5581 39.9154 72.0507L38.9006 71.205C37.7167 70.0211 35.8562 69.6828 34.5032 70.3593C34.1649 70.5285 33.8266 70.6976 33.3192 70.8667C31.797 71.5433 30.7822 72.8963 30.7822 74.5877V76.1099C30.7822 76.7864 30.1057 77.4629 29.4292 77.4629H24.0169C23.3404 77.4629 22.6639 76.7864 22.6639 76.1099V74.5877C22.6639 72.8963 21.6491 71.3741 20.1269 70.8667C19.7886 70.6976 19.4503 70.5285 18.9429 70.3593C17.4207 69.6828 15.7294 70.0211 14.5455 71.205L13.5307 72.2198C13.0233 72.7272 12.1776 72.7272 11.6702 72.2198L7.94926 68.4989C7.44186 67.9915 7.44186 67.1458 7.94926 66.6384L8.96406 65.6236C9.97886 64.2705 10.3171 62.5792 9.64059 61.057C9.47146 60.7187 9.30233 60.3805 9.13319 59.8731C8.62579 58.3509 7.1036 57.3361 5.41226 57.3361H4.0592C3.38266 57.3361 2.70613 56.6595 2.70613 55.983V50.7399C2.70613 50.0633 3.38266 49.3868 4.0592 49.3868H5.5814C7.27273 49.3868 8.79493 48.372 9.30233 46.8498C9.47146 46.5115 9.64059 46.1733 9.80973 45.6659C10.4863 44.1437 10.148 42.4523 8.96406 41.2684L7.94926 40.2536C7.44186 39.7462 7.44186 38.9005 7.94926 38.3931L11.6702 34.6722C12.1776 34.1648 13.0233 34.1648 13.5307 34.6722L14.5455 35.5179C15.7294 36.7018 17.5899 37.0401 18.9429 36.3635C19.2812 36.1944 19.6195 36.0253 20.1269 35.8562C21.6491 35.3488 22.6639 33.8266 22.6639 32.1352V30.613C22.6639 29.9365 23.3404 29.26 24.0169 29.26H29.4292C30.1057 29.26 30.7822 29.9365 30.7822 30.613V32.1352C30.7822 33.8266 31.797 35.3488 33.3192 35.8562C33.6575 36.0253 33.9958 36.1944 34.5032 36.3635C36.0254 37.0401 37.7167 36.7018 38.9006 35.5179L39.9154 34.5031C40.4228 33.9957 41.2685 33.9957 41.7759 34.5031L45.4968 38.224C46.0042 38.7314 46.0042 39.5771 45.4968 40.0845L44.482 41.0993C43.2981 42.2832 42.9598 44.1437 43.6364 45.4967C43.8055 45.835 43.9746 46.1733 44.1438 46.6807C44.8203 48.2029 46.1734 49.2177 47.8647 49.2177H49.3869C50.0634 49.2177 50.74 49.8942 50.74 50.5707V55.983Z" fill="#B9D420"/>
<path d="M38.7316 52.7694C38.7316 52.4312 38.7316 52.0929 38.7316 51.7546C38.7316 51.4164 38.5624 51.0781 38.5624 50.7398C38.5624 50.5707 38.3933 50.2324 38.3933 50.0633C38.3933 49.725 38.2242 49.5559 38.2242 49.2176C38.2242 49.0485 38.055 48.8794 38.055 48.7102C37.8859 48.2028 37.7168 47.8646 37.5476 47.5263C37.5476 47.5263 37.5476 47.5263 37.5476 47.3572C37.2094 46.6806 36.8711 46.1732 36.3637 45.6658C36.3637 45.6658 36.3637 45.4967 36.1946 45.4967C36.0254 45.3276 35.8563 44.9893 35.6872 44.8202C35.518 44.651 35.518 44.651 35.3489 44.4819C35.1798 44.3128 35.0106 44.3128 35.0106 44.1436C34.8415 43.9745 34.6724 43.8054 34.5032 43.8054H33.8267C31.7971 42.2832 29.2601 41.4375 26.7231 41.4375C26.554 41.4375 26.3848 41.4375 26.3848 41.4375C26.0466 41.4375 25.8774 41.4375 25.5392 41.4375C25.3701 41.4375 25.2009 41.4375 25.0318 41.4375C24.5244 41.4375 24.1861 41.6066 23.6787 41.6066C17.2517 43.298 13.3616 49.8942 15.0529 56.3212C16.0677 60.5496 19.4504 63.9322 23.6787 64.947C24.1861 65.1162 24.5244 65.1161 25.0318 65.2853C25.3701 65.2853 25.7083 65.2853 26.0466 65.2853C26.2157 65.2853 26.3848 65.2853 26.7231 65.2853C27.0614 65.2853 27.5688 65.2853 27.907 65.2853H28.0762C28.4144 65.2853 28.7527 65.2853 29.091 65.1162C29.2601 65.1162 29.4292 65.1162 29.4292 64.947C29.5984 64.947 29.9366 64.7779 30.1058 64.7779C30.2749 64.7779 30.444 64.6088 30.6132 64.6088C30.7823 64.6088 30.9514 64.4396 31.1206 64.4396C31.2897 64.4396 31.4588 64.2705 31.628 64.2705C31.7971 64.1014 32.1354 64.1014 32.3045 63.9322C33.4884 63.2557 34.6724 62.41 35.6872 61.3952C36.0254 61.057 36.1946 60.8878 36.3637 60.5496C37.3785 58.8582 38.055 56.9978 38.3933 55.1373C38.3933 54.799 38.3933 54.6299 38.5624 54.2916C38.5624 54.1225 38.5624 53.7842 38.5624 53.6151V53.446C38.7316 53.1077 38.7316 52.9386 38.7316 52.7694ZM36.0254 53.7842C36.0254 53.9534 36.0254 53.9534 36.0254 54.1225C36.0254 54.4608 36.0254 54.799 35.8563 55.1373C35.3489 57.8434 33.6576 60.3804 31.1206 61.7335C30.9514 61.9026 30.7823 61.9026 30.6132 61.9026H30.444C29.5984 62.2409 28.9218 62.5792 28.0762 62.5792H27.907C27.7379 62.5792 27.5688 62.5792 27.3996 62.5792C27.2305 62.5792 26.8922 62.5792 26.7231 62.5792C26.554 62.5792 26.554 62.5792 26.3848 62.5792C26.0466 62.5792 25.7083 62.5792 25.3701 62.5792C25.0318 62.5792 24.6935 62.41 24.3553 62.41C19.2813 61.057 16.406 55.983 17.5899 51.0781C18.4356 47.6954 20.9726 45.1584 24.3553 44.3128C25.2009 44.1436 25.8774 43.9745 26.7231 43.9745C27.0614 43.9745 27.5688 43.9745 27.907 43.9745C28.0762 43.9745 28.0762 43.9745 28.2453 43.9745C28.5836 43.9745 28.7527 44.1436 29.091 44.1436C29.2601 44.1436 29.2601 44.1436 29.4292 44.1436C30.1058 44.3128 30.7823 44.651 31.4588 44.9893C31.628 44.9893 31.628 45.1584 31.7971 45.1584C31.9662 45.3276 32.1354 45.4967 32.4736 45.4967C32.6428 45.4967 32.6428 45.6658 32.8119 45.6658C33.1502 45.835 33.3193 46.1732 33.4884 46.3424C33.6576 46.5115 33.6576 46.5115 33.8267 46.6806C33.9958 46.8498 34.165 47.0189 34.3341 47.188C34.5032 47.3572 34.5032 47.3572 34.6724 47.5263C34.8415 47.6954 35.0106 47.8646 35.0106 48.2028C35.0106 48.372 35.1798 48.372 35.1798 48.5411C35.3489 48.8794 35.518 49.2176 35.6872 49.5559C35.6872 49.725 35.8563 49.8942 35.8563 49.8942C36.0254 50.0633 36.0254 50.4016 36.0254 50.5707C36.0254 50.7398 36.0254 50.7398 36.1946 50.909C36.1946 51.2472 36.3637 51.5855 36.3637 51.9238C36.3637 52.0929 36.3637 52.0929 36.3637 52.262C36.0254 53.1077 36.0254 53.446 36.0254 53.7842Z" fill="#B9D420"/>
<path d="M76.1101 28.0761H71.8818C71.3744 28.0761 70.867 27.7378 70.6978 27.2304C70.3596 26.0465 69.8522 24.8626 69.1756 23.6786C69.0065 23.1712 69.0065 22.4947 69.5139 22.1565L72.5583 19.1121C74.0805 17.5899 74.0805 15.0529 72.5583 13.5307L66.8078 7.94926C65.2856 6.42706 62.7486 6.42706 61.2264 7.94926L58.182 10.9937C57.8437 11.3319 57.1672 11.5011 56.6598 11.3319C55.4758 10.8245 54.2919 10.3171 53.108 9.80973C52.6006 9.64059 52.2623 9.13319 52.2623 8.62579V4.0592C52.2623 1.86047 50.4018 0 48.2031 0H40.2539C38.0551 0 36.1947 1.86047 36.1947 4.0592V8.28753C36.1947 8.79493 35.8564 9.30233 35.349 9.47146C34.1651 9.80973 32.9811 10.3171 31.7972 10.9937C31.2898 11.1628 30.6133 11.1628 30.275 10.6554L27.0615 7.78013C25.5393 6.25793 23.0023 6.25793 21.4801 7.78013L15.7295 13.3615C14.2073 14.8837 14.2073 17.4207 15.7295 18.9429L20.127 23.3404C20.6344 23.8478 21.4801 23.8478 21.9875 23.3404C22.4949 22.833 22.4949 21.9873 21.9875 21.4799L17.59 17.0825C17.0826 16.5751 17.0826 15.7294 17.59 15.222L23.1714 9.64059C23.6788 9.13319 24.5245 9.13319 25.0319 9.64059L28.0763 12.685C29.2602 13.8689 31.1207 14.2072 32.6429 13.3615C33.6577 12.8541 34.8416 12.3467 35.8564 12.0085C37.5477 11.5011 38.5625 9.97886 38.5625 8.28753V4.0592C38.5625 3.38266 39.2391 2.70613 39.9156 2.70613H47.8648C48.5414 2.70613 49.2179 3.38266 49.2179 4.0592V8.28753C49.2179 9.97886 50.2327 11.5011 51.924 12.0085C53.108 12.3467 54.1228 12.8541 55.1376 13.3615C56.6598 14.0381 58.5202 13.8689 59.7042 12.685L62.7486 9.64059C63.256 9.13319 64.1016 9.13319 64.609 9.64059L70.5287 15.222C71.0361 15.7294 71.0361 16.5751 70.5287 17.0825L67.4843 20.1269C66.3004 21.3108 65.9621 23.1712 66.8078 24.6934C67.3152 25.7082 67.8226 26.8922 68.1608 27.907C68.6682 29.5983 70.1904 30.6131 71.8818 30.6131H76.1101C76.7866 30.6131 77.4632 31.2896 77.4632 31.9662V39.9154C77.4632 40.592 76.7866 41.2685 76.1101 41.2685H71.8818C70.1904 41.2685 68.6682 42.2833 68.1608 43.9746C67.8226 45.1586 67.3152 46.1734 66.8078 47.1882C65.9621 48.7104 66.3004 50.5708 67.4843 51.7548L70.5287 54.7992C71.0361 55.3066 71.0361 56.1522 70.5287 56.6596L64.9473 62.241C64.4399 62.7484 63.5942 62.7484 63.0868 62.241L58.6894 57.8436C58.182 57.3362 57.3363 57.3362 56.8289 57.8436C56.3215 58.351 56.3215 59.1966 56.8289 59.704L61.2264 64.1015C62.7486 65.6237 65.2856 65.6237 66.8078 64.1015L72.3892 58.5201C73.9114 56.9979 73.9114 54.4609 72.3892 52.9387L69.3448 50.0634C69.0065 49.7252 68.8374 49.0486 69.0065 48.5412C69.5139 47.3573 70.0213 46.1734 70.5287 44.9894C70.6978 44.482 71.2052 44.1438 71.7126 44.1438H76.1101C78.3088 44.1438 80.1693 42.2833 80.1693 40.0846V32.1353C80.0002 29.7674 78.3088 28.0761 76.1101 28.0761Z" fill="#B9D420"/>
<path d="M56.3214 23.6787C49.556 16.9134 38.5624 16.9134 31.7971 23.6787C31.2897 24.1861 31.2897 25.0318 31.7971 25.5392C32.3045 26.0466 33.1501 26.0466 33.6575 25.5392C39.408 19.7887 48.7104 19.7887 54.4609 25.3701C60.2114 30.9515 60.2114 40.4229 54.63 46.1734L54.4609 46.3426C53.9535 46.85 53.9535 47.6956 54.4609 48.203C54.9683 48.7104 55.814 48.7104 56.3214 48.203C63.0867 41.4377 63.0867 30.6132 56.3214 23.6787Z" fill="#B9D420"/>
</g>
<defs>
<clipPath id="clip0">
<rect width="80" height="80" fill="white"/>
</clipPath>
</defs>
</svg>
