<svg width="80" height="80" viewBox="0 0 80 80" fill="none" xmlns="http://www.w3.org/2000/svg">
<path d="M78.7716 77.1261H73.5509V48.4226H76.1612C76.929 48.4226 77.3896 47.705 77.3896 46.9874V40.888C77.3896 39.991 76.7754 39.4528 76.1612 39.4528H67.1017V15.2342H69.7121C70.4799 15.2342 70.9405 14.5167 70.9405 13.7991V7.69958C70.9405 6.8026 70.3263 6.26441 69.7121 6.26441H50.3647V3.03527C50.3647 2.31768 49.7505 1.6001 49.1363 1.6001H31.0173C30.2495 1.6001 29.7889 2.31768 29.7889 3.03527V6.08501H10.2879C9.52015 6.08501 9.0595 6.8026 9.0595 7.52019V13.6197C9.0595 14.5167 9.6737 15.0548 10.2879 15.0548H12.8983V39.2734H3.83877C3.07102 39.2734 2.61036 39.991 2.61036 40.7086V46.808C2.61036 47.705 3.22457 48.2432 3.83877 48.2432H6.44914V76.9467H1.22841C0.460653 76.9467 0 77.6643 0 78.3819C0 79.2788 0.614203 79.817 1.22841 79.817H78.7716C79.5393 79.817 80 79.0994 80 78.3819C80 77.6643 79.5393 77.1261 78.7716 77.1261ZM50.3647 9.13476H68.4837V12.1845H50.3647V9.13476ZM32.2457 4.64984H47.7543V5.18803L40.0768 10.3905L32.2457 5.18803V4.64984ZM32.2457 8.77596L39.309 13.4403C39.7697 13.6197 40.2303 13.6197 40.5374 13.4403L47.7543 8.77596V16.6694H32.2457V8.77596ZM31.0173 19.7192H49.1363C49.904 19.7192 50.3647 19.0016 50.3647 18.284V15.2342H64.6449V39.2734H15.5086V15.2342H29.7889V18.284C29.6353 19.0016 30.2495 19.7192 31.0173 19.7192ZM11.6699 12.1845V9.13476H29.7889V12.1845H11.6699ZM5.22073 45.3729V42.3231H74.9328V45.3729H5.22073ZM51.5931 77.1261H28.4069V75.6909H51.5931V77.1261ZM31.0173 72.4618V55.7779H38.6948V72.4618H31.0173ZM41.3052 72.4618V55.7779H48.9827V72.4618H41.3052ZM71.094 77.1261H54.2035V74.0763C54.2035 73.1794 53.5893 72.6412 52.975 72.6412H51.7466V54.3427C51.7466 53.4457 51.1324 52.9075 50.5182 52.9075H29.6353C28.8676 52.9075 28.4069 53.6251 28.4069 54.3427V72.4618H27.1785C26.4107 72.4618 25.9501 73.1794 25.9501 73.8969V76.9467H9.0595V48.2432H71.094V77.1261Z" fill="#B9D420"/>
<path d="M67.1015 63.4919V54.5221C67.1015 53.6251 66.4873 53.0869 65.8731 53.0869H58.1956C57.4278 53.0869 56.9672 53.8045 56.9672 54.5221V63.4919C56.1994 63.4919 55.7388 64.2095 55.7388 64.9271C55.7388 65.8241 56.353 66.3623 56.9672 66.3623H67.2551C68.0228 66.3623 68.4835 65.6447 68.4835 64.9271C68.4835 64.2095 67.8693 63.4919 67.1015 63.4919ZM64.6447 63.4919H59.424V55.9573H64.6447V63.4919Z" fill="#B9D420"/>
<path d="M23.186 63.4919V54.5221C23.186 53.6251 22.5718 53.0869 21.9576 53.0869H14.2801C13.5123 53.0869 13.0516 53.8045 13.0516 54.5221V63.4919C12.2839 63.4919 11.8232 64.2095 11.8232 64.9271C11.8232 65.8241 12.4374 66.3623 13.0516 66.3623H23.3396C24.1073 66.3623 24.568 65.6447 24.568 64.9271C24.568 64.2095 23.9538 63.4919 23.186 63.4919ZM20.7292 63.4919H15.5085V55.9573H20.7292V63.4919Z" fill="#B9D420"/>
<path d="M45.144 33.3532V24.3834C45.144 23.4864 44.5298 22.9482 43.9156 22.9482H36.2381C35.4703 22.9482 35.0097 23.6658 35.0097 24.3834V33.3532C34.2419 33.3532 33.7812 34.0708 33.7812 34.7884C33.7812 35.506 34.3955 36.2236 35.0097 36.2236H45.2976C46.0653 36.2236 46.526 35.506 46.526 34.7884C46.526 34.0708 45.9118 33.3532 45.144 33.3532ZM42.6872 33.3532H37.4665V25.8186H42.6872V33.3532Z" fill="#B9D420"/>
<path d="M29.6352 33.3532V24.3834C29.6352 23.4864 29.021 22.9482 28.4068 22.9482H20.7293C19.9615 22.9482 19.5009 23.6658 19.5009 24.3834V33.3532C18.7331 33.3532 18.2725 34.0708 18.2725 34.7884C18.2725 35.506 18.8867 36.2236 19.5009 36.2236H29.7888C30.5565 36.2236 31.0172 35.506 31.0172 34.7884C31.0172 34.0708 30.403 33.3532 29.6352 33.3532ZM27.1784 33.3532H21.9577V25.8186H27.1784V33.3532Z" fill="#B9D420"/>
<path d="M60.6528 33.3532V24.3834C60.6528 23.4864 60.0386 22.9482 59.4244 22.9482H51.7469C50.9791 22.9482 50.5185 23.6658 50.5185 24.3834V33.3532C49.7507 33.3532 49.29 34.0708 49.29 34.7884C49.29 35.506 49.9042 36.2236 50.5185 36.2236H60.8063C61.5741 36.2236 62.0348 35.506 62.0348 34.7884C62.0348 34.0708 61.4206 33.3532 60.6528 33.3532ZM58.0424 33.3532H52.8217V25.8186H58.0424V33.3532Z" fill="#B9D420"/>
</svg>
