<svg width="80" height="80" viewBox="0 0 80 80" fill="none" xmlns="http://www.w3.org/2000/svg">
<path d="M59.3196 0V2.62911H63.8547L37.3694 30.2347L24.4896 16.7136L8.16309 33.8028L9.97714 35.6808L24.4896 20.6573L37.3694 33.9906L65.6688 4.50704V9.38967H68.3898V0H59.3196Z" fill="#B9D420"/>
<path d="M77.2789 77.3709V18.5916H64.3991V77.3709H61.8594V26.6667H48.9796V77.3709H46.4399V45.446H33.5601V77.5587H31.0204V37.3709H17.9592V77.3709H15.4195V58.7793H2.53968V77.3709H0V80H80V77.3709H77.2789ZM12.8798 77.3709H5.07937V61.4085H12.8798V77.3709ZM28.2993 77.3709H20.4989V40H28.2993V77.3709ZM43.9002 77.3709H36.0998V48.0751H43.9002V77.3709ZM59.3197 77.3709H51.5193V29.2958H59.3197V77.3709ZM74.7392 77.3709H67.1202V21.4085H74.9206V77.3709H74.7392Z" fill="#B9D420"/>
</svg>
