<svg width="80" height="80" viewBox="0 0 80 80" fill="none" xmlns="http://www.w3.org/2000/svg">
<g clip-path="url(#clip0)">
<path d="M78.4326 38.4635C78.4323 38.4635 78.4321 38.4635 78.4318 38.4635C77.5693 38.4635 76.8699 39.1624 76.8695 40.025C76.8645 49.866 73.0295 59.118 66.0705 66.0767C59.107 73.0405 49.848 76.8756 39.9998 76.8756C30.1515 76.8756 20.893 73.0403 13.9291 66.0766C6.96539 59.113 3.13023 49.8539 3.13023 40.0058C3.13023 30.1575 6.96523 20.8988 13.9291 13.935C25.1045 2.7594 42.1313 -0.058412 56.2982 6.92253C57.0716 7.30378 58.0087 6.98549 58.3901 6.21174C58.7715 5.43784 58.4532 4.50128 57.6793 4.11987C42.3115 -3.45279 23.842 -0.396069 11.7198 11.7256C4.16601 19.2796 0.00585938 29.3228 0.00585938 40.0058C0.00585938 50.6886 4.16601 60.7321 11.7198 68.286C19.2738 75.84 29.3173 80 40.0001 80C50.6829 80 60.7263 75.8399 68.2802 68.2861C75.8285 60.7377 79.9887 50.7014 79.9941 40.0266C79.9945 39.1636 79.2955 38.4639 78.4326 38.4635Z" fill="#B9D420"/>
<path d="M39.9724 69.0528C23.9496 69.0528 10.9141 56.0174 10.9141 39.9946C10.9141 29.6177 16.3819 20.191 25.1285 15.0044C25.0269 15.6602 25.3538 16.3339 25.9803 16.6435C26.203 16.7535 26.4391 16.8057 26.6713 16.8057C27.2469 16.8057 27.8006 16.4861 28.0731 15.9352L29.8038 12.433C30.1861 11.6596 29.8689 10.7227 29.0955 10.3404L25.5931 8.60957C24.8194 8.22723 23.8828 8.54457 23.5003 9.31801C23.118 10.0914 23.4352 11.0283 24.2086 11.4107L24.7036 11.6552C14.3355 17.2332 7.78955 28.0452 7.78955 39.9943C7.78955 57.7399 22.2266 72.1771 39.9724 72.1771C47.3997 72.1771 54.6464 69.5864 60.3775 64.8825C66.0299 60.2432 69.9674 53.7696 71.4649 46.6543C71.6427 45.81 71.1022 44.9814 70.2578 44.8038C69.4139 44.6255 68.5852 45.1664 68.4074 46.0108C65.5972 59.3622 53.6385 69.0528 39.9724 69.0528Z" fill="#B9D420"/>
<path d="M35.2518 38.4436H22.346C21.4834 38.4436 20.7837 39.143 20.7837 40.006C20.7837 40.8686 21.4832 41.5683 22.346 41.5683H35.2518C35.7473 43.07 36.9357 44.2585 38.4374 44.7539V61.8108C38.4374 62.6734 39.137 63.3731 39.9998 63.3731C40.8624 63.3731 41.5621 62.6736 41.5621 61.8108V44.7538C43.5557 44.0961 44.9992 42.2167 44.9992 40.0058C44.9992 37.2492 42.7565 35.0066 39.9999 35.0066C37.7888 35.0066 35.9096 36.45 35.2518 38.4436ZM39.9998 38.1311C41.0335 38.1311 41.8745 38.9721 41.8745 40.0058C41.8745 41.0396 41.0335 41.8805 39.9998 41.8805C38.966 41.8805 38.1251 41.0396 38.1251 40.0058C38.1251 38.9721 38.966 38.1311 39.9998 38.1311Z" fill="#B9D420"/>
<path d="M39.047 29.5007C38.5032 29.9007 38.2776 30.6047 38.4881 31.2463C38.6987 31.8877 39.2975 32.3216 39.9726 32.3216H47.1878C48.0504 32.3216 48.7501 31.6222 48.7501 30.7593C48.7501 29.8963 48.0506 29.1969 47.1878 29.1969H44.1429C46.3137 27.0179 48.75 23.866 48.75 20.6947C48.75 17.6026 46.6723 15.5249 43.5801 15.5249C40.7295 15.5249 38.4103 17.8441 38.4103 20.6947C38.4103 21.5576 39.1098 22.2571 39.9726 22.2571C40.8353 22.2571 41.535 21.5577 41.535 20.6947C41.535 19.5669 42.4525 18.6494 43.5803 18.6494C45.6256 18.6494 45.6256 20.189 45.6256 20.6947C45.6253 23.9391 40.8761 28.1519 39.047 29.5007Z" fill="#B9D420"/>
<path d="M55.8332 22.3668V17.087C55.8332 16.2242 55.1337 15.5247 54.2708 15.5247C53.4082 15.5247 52.7085 16.224 52.7085 17.087V23.9292C52.7085 24.792 53.408 25.4915 54.2708 25.4915H60.0444V30.7865C60.0444 31.6494 60.744 32.3489 61.6068 32.3489C62.4694 32.3489 63.1691 31.6495 63.1691 30.7865V25.4915H63.4119C64.2746 25.4915 64.9743 24.7922 64.9743 23.9292C64.9743 23.0662 64.2747 22.3668 63.4119 22.3668H63.1691V17.087C63.1691 16.2242 62.4696 15.5247 61.6068 15.5247C60.7441 15.5247 60.0444 16.224 60.0444 17.087V22.3668H55.8332Z" fill="#B9D420"/>
<path d="M71.0388 32.3217C71.9014 32.3217 72.6011 31.6223 72.6011 30.7593V28.8495V27.3639C72.6011 26.3531 73.4234 25.5309 74.4341 25.5309C75.445 25.5309 76.2672 26.3533 76.2672 27.3639V30.7593C76.2672 31.6222 76.9667 32.3217 77.8295 32.3217C78.6922 32.3217 79.3919 31.6223 79.3919 30.7593V27.3639C79.3919 24.6303 77.1678 22.4064 74.4342 22.4064C73.7869 22.4064 73.1686 22.5325 72.6013 22.7592V17.087C72.6013 16.2242 71.9017 15.5247 71.0389 15.5247C70.1762 15.5247 69.4766 16.224 69.4766 17.087V30.7593C69.4764 31.6222 70.1761 32.3217 71.0388 32.3217Z" fill="#B9D420"/>
</g>
<defs>
<clipPath id="clip0">
<rect width="80" height="80" fill="white"/>
</clipPath>
</defs>
</svg>
