<svg width="60" height="60" viewBox="0 0 60 60" fill="none" xmlns="http://www.w3.org/2000/svg">
<rect x="59.0001" y="59" width="58" height="58" rx="29" transform="rotate(-180 59.0001 59)" stroke="#FFD954" stroke-width="2"/>
<g clip-path="url(#clip0)">
<path d="M35.4298 36.287L41.6499 30.2513L41.651 30.2502C42.1172 29.7965 42.1157 29.0592 41.6509 28.607L41.6498 28.6059L35.4297 22.5702C34.9637 22.118 34.21 22.1197 33.7462 22.5741C33.2824 23.0285 33.2842 23.7634 33.7502 24.2156L37.9263 28.2679L18.2835 28.2679C17.626 28.2679 17.0931 28.7875 17.0931 29.4286C17.0931 30.0697 17.626 30.5893 18.2835 30.5893L37.9263 30.5893L33.7503 34.6416C33.2843 35.0938 33.2825 35.8287 33.7463 36.2831C34.2101 36.7376 34.9639 36.7391 35.4298 36.287Z" fill="#0F0F0F"/>
</g>
<defs>
<clipPath id="clip0">
<rect width="24" height="25.2" fill="white" transform="translate(42.0001 18) rotate(90)"/>
</clipPath>
</defs>
</svg>
