<svg width="23" height="23" viewBox="0 0 23 23" fill="none" xmlns="http://www.w3.org/2000/svg">
<path d="M2.15629 16.5312C2.2979 16.5314 2.43815 16.5036 2.56898 16.4494C2.69981 16.3952 2.81864 16.3157 2.91865 16.2155L8.9844 10.1497L11.4564 12.6217C11.5565 12.7218 11.6754 12.8013 11.8062 12.8554C11.937 12.9096 12.0772 12.9375 12.2188 12.9375C12.3604 12.9375 12.5006 12.9096 12.6314 12.8554C12.7622 12.8013 12.881 12.7218 12.9811 12.6217L19.7652 5.83763L19.7648 8.26561C19.7648 8.55155 19.8784 8.82577 20.0806 9.02796C20.2828 9.23015 20.557 9.34373 20.8429 9.34373C21.1289 9.34373 21.4031 9.23015 21.6053 9.02796C21.8075 8.82577 21.9211 8.55155 21.9211 8.26561L21.9219 3.23437C21.9219 2.94844 21.8083 2.67421 21.6061 2.47202C21.4039 2.26984 21.1297 2.15625 20.8437 2.15625H15.8125C15.5266 2.15625 15.2523 2.26984 15.0502 2.47202C14.848 2.67421 14.7344 2.94844 14.7344 3.23437C14.7344 3.52031 14.848 3.79453 15.0502 3.99672C15.2523 4.19891 15.5266 4.3125 15.8125 4.3125H18.2409L12.2188 10.3347L9.74676 7.86262C9.64665 7.7625 9.5278 7.68308 9.39699 7.6289C9.26618 7.57471 9.12598 7.54682 8.9844 7.54682C8.84281 7.54682 8.70261 7.57471 8.5718 7.6289C8.441 7.68308 8.32214 7.7625 8.22203 7.86262L1.39392 14.6907C1.24313 14.8415 1.14045 15.0336 1.09884 15.2428C1.05724 15.4519 1.07859 15.6687 1.16019 15.8657C1.2418 16.0627 1.37999 16.2311 1.55729 16.3495C1.7346 16.468 1.94305 16.5312 2.15629 16.5312Z" fill="#0F0F0F"/>
<path d="M20.8437 18.6874H2.15628C1.87034 18.6874 1.59612 18.801 1.39393 19.0032C1.19174 19.2053 1.07816 19.4796 1.07816 19.7655C1.07816 20.0514 1.19174 20.3257 1.39393 20.5278C1.59612 20.73 1.87034 20.8436 2.15628 20.8436H20.8437C21.1297 20.8436 21.4039 20.73 21.6061 20.5278C21.8083 20.3257 21.9219 20.0514 21.9219 19.7655C21.9219 19.4796 21.8083 19.2053 21.6061 19.0032C21.4039 18.801 21.1297 18.6874 20.8437 18.6874Z" fill="#0F0F0F"/>
</svg>
