<svg width="33" height="34" viewBox="0 0 33 34" fill="none" xmlns="http://www.w3.org/2000/svg">
<path d="M12.2083 32.7976C12.1502 32.7976 12.092 32.7976 12.0629 32.7676C7.41021 31.4188 3.57172 28.0619 1.53616 23.536C-2.30233 15.0537 1.30353 4.92293 9.56209 0.966531C9.70749 0.906585 9.85289 0.906585 9.99828 0.936558C10.1437 0.996503 10.26 1.11639 10.3182 1.23629L17.0355 16.1327C17.0937 16.2526 17.0937 16.4025 17.0646 16.5524L12.7899 32.378C12.7608 32.5278 12.6445 32.6477 12.5282 32.7376C12.4119 32.7976 12.3246 32.7976 12.2083 32.7976ZM9.53301 2.3153C2.23407 6.15182 -0.906513 15.3235 2.58302 23.0564C4.38595 27.0728 7.73008 30.1 11.8303 31.4488L15.9014 16.4325L9.53301 2.3153Z" fill="#666666"/>
<path d="M18.2859 16.6426L14.302 32.4382C18.4022 33.0676 22.706 32.0486 26.2828 29.2611C29.8305 26.4736 32.2441 22.4273 32.4767 17.6617L18.2859 16.6426Z" fill="#F8D56B"/>
<path d="M16.6284 33.1874C15.8141 33.1874 14.9999 33.1275 14.1857 33.0076C14.0112 32.9776 13.8658 32.8877 13.7786 32.7379C13.6913 32.588 13.6622 32.4082 13.6913 32.2583L17.6752 16.4627C17.7334 16.1929 17.9951 16.0131 18.2859 16.0131L32.4476 17.0621C32.7675 17.0921 33.0001 17.3618 33.0001 17.6915C32.7675 22.3973 30.4993 26.6534 26.5735 29.7406C23.6947 31.9885 20.2633 33.1874 16.6284 33.1874ZM14.9999 31.9286C15.5233 31.9885 16.0758 32.0185 16.6284 32.0185C20.0016 32.0185 23.2003 30.9095 25.9047 28.7815C29.3652 26.0539 31.4589 22.3373 31.8369 18.231L18.7221 17.2719L14.9999 31.9286Z" fill="#666666"/>
<path d="M30.4121 16.0431H30.383L18.2569 15.2638C18.0533 15.2638 17.8497 15.1139 17.7625 14.9041L12.0629 2.25562C11.9175 1.95589 12.0629 1.59622 12.3537 1.44636C14.0985 0.607118 15.9596 0.1875 17.8788 0.1875C22.9968 0.1875 27.6786 3.27469 29.8305 8.04036C30.761 10.1385 31.2263 12.9859 30.9937 15.4736C30.9646 15.8033 30.7029 16.0431 30.4121 16.0431ZM18.664 14.0949L29.8596 14.8142C29.9468 12.6861 29.5397 10.3183 28.7545 8.57987C26.8062 4.20385 22.5315 1.38641 17.8788 1.38641C16.3376 1.38641 14.8255 1.68614 13.3715 2.28559L18.664 14.0949Z" fill="#666666"/>
</svg>
